<svg xmlns="http://www.w3.org/2000/svg" xmlns:xlink="http://www.w3.org/1999/xlink" viewBox="0 0 88 88"><defs><style>.cls-1{fill:none;}.cls-2{clip-path:url(#clip-path);}.cls-3{fill:#ed5054;}.cls-4{fill:#65c8c4;}.cls-5{fill:#fff;}</style><clipPath id="clip-path" transform="translate(0)"><rect class="cls-1" width="88" height="88"/></clipPath></defs><title>1</title><g id="Слой_2" data-name="Слой 2"><g id="Слой_1-2" data-name="Слой 1"><g class="cls-2"><g id="I-88-delivery-active"><g id="_88_icon_delivery_active" data-name=" 88 icon delivery active"><rect id="Rectangle_73" data-name="Rectangle 73" class="cls-3" width="88" height="88" rx="20"/><g id="Group_10697" data-name="Group 10697"><g id="Group_10685" data-name="Group 10685"><g id="Group_10674" data-name="Group 10674"><path id="Path_4758" data-name="Path 4758" class="cls-4" d="M66.7,30.6V45.1a3.8,3.8,0,0,1-3.8,3.8H51a3.8,3.8,0,0,1-3.8-3.8v-3h8a3.69,3.69,0,0,0,3.7-3.68v0a3.76,3.76,0,0,0-3.7-3.7h-8V30.6A3.8,3.8,0,0,1,51,26.8H62.9A3.8,3.8,0,0,1,66.7,30.6Z" transform="translate(0)"/></g><g id="Group_10675" data-name="Group 10675"><path id="Path_4759" data-name="Path 4759" class="cls-5" d="M41.4,27.2a8,8,0,1,1,8-8A8,8,0,0,1,41.4,27.2Zm0-13.6A5.6,5.6,0,1,0,47,19.2h0a5.59,5.59,0,0,0-5.58-5.6Z" transform="translate(0)"/></g><g id="Group_10676" data-name="Group 10676"><path id="Path_4760" data-name="Path 4760" class="cls-5" d="M53.7,19.7h-15a1.2,1.2,0,0,1,0-2.4h15a1.2,1.2,0,0,1,0,2.4Z" transform="translate(0)"/></g><g id="Group_10677" data-name="Group 10677"><path id="Path_4761" data-name="Path 4761" class="cls-5" d="M46.1,78.9H39a3.76,3.76,0,0,1-3.7-3.1L33.1,63.6a.7.7,0,0,0-.2-.4l-8.3-7.6A8.83,8.83,0,0,1,22,51l-2.4,4a2.76,2.76,0,0,1-3.2,1.2l-13.6-5H2.5c-.1,0-.1.1-.1.3v8.9a1.75,1.75,0,0,0,1.7,1.7h0a1.7,1.7,0,0,0,1.2-.5,1.85,1.85,0,0,0,.5-1.2V58.6A2.09,2.09,0,0,1,6.6,57a1.68,1.68,0,0,1,1.8-.2l12.9,4.7,2.5-3.4a1.21,1.21,0,0,1,1.9,1.5L23.1,63a2,2,0,0,1-2.4.7L8.2,59.2v1.2A4,4,0,0,1,7,63.3a4,4,0,0,1-2.9,1.2h0a4.05,4.05,0,0,1-4.1-4v-9a2.53,2.53,0,0,1,1.2-2.2A2.74,2.74,0,0,1,3.7,49l13.7,4.9c.1.1.3,0,.4-.1l5.4-9.1v-.1l8.3-13.9h0a6.45,6.45,0,0,1,4.1-2.9,6.56,6.56,0,0,1,4.9,1.1l5.9,4.5h8.9a4.9,4.9,0,1,1,0,9.8h-10a2.45,2.45,0,0,1-1.2-.4l-3.4-2.7L34.6,50.4l5.2,4.8a8.59,8.59,0,0,1,2.7,4.9L44.3,70a1.4,1.4,0,0,0,1.4,1.2h.6A3.8,3.8,0,0,1,50.1,75h0A4.05,4.05,0,0,1,46.1,78.9Zm-21-33a6.39,6.39,0,0,0,1.2,7.9l8.3,7.6a3.17,3.17,0,0,1,.9,1.7l2.2,12.2a1.4,1.4,0,0,0,1.4,1.2h7.1a1.4,1.4,0,1,0,0-2.8h-.6a3.76,3.76,0,0,1-3.7-3.1l-1.8-9.9a6,6,0,0,0-2-3.6l-6-5.5a1.21,1.21,0,0,1-.2-1.5l6.8-11.6a2,2,0,0,1,1.3-.9,1.88,1.88,0,0,1,1.6.4l3.7,2.9h9.8a2.5,2.5,0,0,0,0-5H46a1.93,1.93,0,0,1-1.2-.4l-6-4.6a3.8,3.8,0,0,0-5.5,1h0Z" transform="translate(0)"/></g><g id="Group_10678" data-name="Group 10678"><path id="Path_4762" data-name="Path 4762" class="cls-5" d="M62.9,50.1H51a5,5,0,0,1-5-5,1.2,1.2,0,1,1,2.4,0h0A2.65,2.65,0,0,0,51,47.7H62.9a2.65,2.65,0,0,0,2.6-2.6V30.6A2.65,2.65,0,0,0,62.9,28H51a2.65,2.65,0,0,0-2.6,2.6,1.2,1.2,0,1,1-2.4,0h0a5,5,0,0,1,5-5H62.9a5,5,0,0,1,5,5V45.1A5,5,0,0,1,62.9,50.1Z" transform="translate(0)"/></g><g id="Group_10679" data-name="Group 10679"><path id="Path_4763" data-name="Path 4763" class="cls-5" d="M25.7,18.3H17a1.2,1.2,0,1,1,0-2.4h8.7A1.15,1.15,0,0,1,26.9,17v.09A1.22,1.22,0,0,1,25.7,18.3Z" transform="translate(0)"/></g><g id="Group_10680" data-name="Group 10680"><path id="Path_4764" data-name="Path 4764" class="cls-5" d="M30.9,25.2H14a1.2,1.2,0,0,1,0-2.4H30.9a1.15,1.15,0,0,1,1.2,1.11V24A1.22,1.22,0,0,1,30.9,25.2Z" transform="translate(0)"/></g><g id="Group_10681" data-name="Group 10681"><path id="Path_4765" data-name="Path 4765" class="cls-5" d="M24.9,33.1H12a1.2,1.2,0,1,1,0-2.4H24.9a1.2,1.2,0,1,1,0,2.4Z" transform="translate(0)"/></g><g id="Group_10682" data-name="Group 10682"><path id="Path_4766" data-name="Path 4766" class="cls-5" d="M12.9,18.2H11.2a1.2,1.2,0,0,1,0-2.4h1.7a1.15,1.15,0,0,1,1.2,1.11V17A1.22,1.22,0,0,1,12.9,18.2Z" transform="translate(0)"/></g><g id="Group_10683" data-name="Group 10683"><path id="Path_4767" data-name="Path 4767" class="cls-5" d="M7.3,33.1H5.5a1.2,1.2,0,0,1,0-2.4H7.2a1.15,1.15,0,0,1,1.2,1.11v.09a1.13,1.13,0,0,1-1.07,1.2Z" transform="translate(0)"/></g><g id="Group_10684" data-name="Group 10684"><path id="Path_4768" data-name="Path 4768" class="cls-5" d="M4.1,64.5a4.05,4.05,0,0,1-4.1-4v-9a2.66,2.66,0,0,1,1.1-2.2A2.74,2.74,0,0,1,3.6,49l13.7,4.9a.63.63,0,0,0,.4-.1l13.8-23a1.17,1.17,0,1,1,2,1.2h0L19.7,55a2.76,2.76,0,0,1-3.2,1.2l-13.7-5H2.5c-.1,0-.1.1-.1.3v8.9a1.75,1.75,0,0,0,1.7,1.7,1.7,1.7,0,0,0,1.2-.5,1.85,1.85,0,0,0,.5-1.2V58.6A2.09,2.09,0,0,1,6.6,57a1.68,1.68,0,0,1,1.8-.2l12.9,4.7,2.5-3.4a1.21,1.21,0,0,1,1.9,1.5L23.1,63a2.05,2.05,0,0,1-2.5.7L8.2,59.2v1.2A4,4,0,0,1,7,63.3,4.42,4.42,0,0,1,4.1,64.5Z" transform="translate(0)"/></g></g><g id="Group_10694" data-name="Group 10694"><g id="Group_10686" data-name="Group 10686"><path id="Path_4769" data-name="Path 4769" class="cls-5" d="M71.6,72.4a1.17,1.17,0,0,1-1.1-.8,1.19,1.19,0,0,1,.7-1.5,27.84,27.84,0,0,1,8.3-1.3s3,0,6.5-.1h0a1.2,1.2,0,0,1,0,2.4c-3.4,0-6.5.1-6.5.1A25.46,25.46,0,0,0,72,72.4Z" transform="translate(0)"/></g><g id="Group_10687" data-name="Group 10687"><path id="Path_4770" data-name="Path 4770" class="cls-5" d="M82.9,78.4A1.24,1.24,0,0,1,82,78c-7.1-7.4-22.6-7-22.8-7H43.6a1.2,1.2,0,0,1,0-2.4H59.2c.6,0,16.8-.4,24.6,7.7a1.25,1.25,0,0,1-.9,2.1Z" transform="translate(0)"/></g><g id="Group_10688" data-name="Group 10688"><path id="Path_4771" data-name="Path 4771" class="cls-5" d="M35,71H1.2A1.22,1.22,0,0,1,0,69.8a1.15,1.15,0,0,1,1.11-1.2H35A1.2,1.2,0,0,1,35,71Z" transform="translate(0)"/></g><g id="Group_10689" data-name="Group 10689"><path id="Path_4772" data-name="Path 4772" class="cls-5" d="M46.9,70.8a1.15,1.15,0,0,1-1.2-1.11V59a2.47,2.47,0,0,1,2.45-2.5H53.5A2.47,2.47,0,0,1,56,59v6a1.2,1.2,0,0,1-2.4,0V59a.09.09,0,0,0-.1-.1H48.2a.09.09,0,0,0-.1.1V69.6A1.22,1.22,0,0,1,46.9,70.8Z" transform="translate(0)"/></g><g id="Group_10690" data-name="Group 10690"><path id="Path_4773" data-name="Path 4773" class="cls-5" d="M81.3,71.1A1.15,1.15,0,0,1,80.1,70V51.6a.09.09,0,0,0-.1-.1H75.3a.09.09,0,0,0-.1.1v2.6a1.2,1.2,0,1,1-2.4,0V51.6a2.47,2.47,0,0,1,2.45-2.5H80a2.47,2.47,0,0,1,2.5,2.45V69.9A1.22,1.22,0,0,1,81.3,71.1Z" transform="translate(0)"/></g><g id="Group_10691" data-name="Group 10691"><path id="Path_4774" data-name="Path 4774" class="cls-5" d="M59.2,71A1.15,1.15,0,0,1,58,69.89V54.1c0-.2-.1-.4-.2-.4a.45.45,0,0,0-.5,0l-4.1,2.2a.7.7,0,0,0-.2.4v1.3a1.2,1.2,0,1,1-2.4,0V56.3a2.83,2.83,0,0,1,1.5-2.5l4.1-2.2a2.58,2.58,0,0,1,2.8.1,2.74,2.74,0,0,1,1.4,2.5V69.9A1.2,1.2,0,0,1,59.2,71Z" transform="translate(0)"/></g><g id="Group_10692" data-name="Group 10692"><path id="Path_4775" data-name="Path 4775" class="cls-5" d="M73.9,71.6a1.15,1.15,0,0,1-1.2-1.11V63.2a.27.27,0,0,0-.22-.3H63.6a.27.27,0,0,0-.3.22V69.8a1.2,1.2,0,1,1-2.4,0V63.2a2.68,2.68,0,0,1,2.68-2.7H72.4a2.68,2.68,0,0,1,2.7,2.68V70.4A1.22,1.22,0,0,1,73.9,71.6Z" transform="translate(0)"/></g><g id="Group_10693" data-name="Group 10693"><path id="Path_4776" data-name="Path 4776" class="cls-5" d="M63.3,62.8a1.15,1.15,0,0,1-1.2-1.11V59.9a2.86,2.86,0,0,1,2.61-3.09H71a2.92,2.92,0,0,1,2.7,3.1v1.7a1.2,1.2,0,1,1-2.4,0V59.9a1,1,0,0,0-.3-.8H64.8c-.1,0-.3.3-.3.8v1.7A1.22,1.22,0,0,1,63.3,62.8Z" transform="translate(0)"/></g></g><g id="Group_10696" data-name="Group 10696"><g id="Group_10695" data-name="Group 10695"><path id="Path_4777" data-name="Path 4777" class="cls-5" d="M68.6,88H19.4A19.44,19.44,0,0,1,.1,70.3,1.16,1.16,0,0,1,1.1,69h.1a1.21,1.21,0,0,1,1.3,1.1,17.13,17.13,0,0,0,17,15.5H68.7a17,17,0,0,0,17-17V19.4a17,17,0,0,0-17-17H19.4a17,17,0,0,0-17,17V42.5a1.15,1.15,0,0,1-1.11,1.2H1.2A1.15,1.15,0,0,1,0,42.59V19.4A19.42,19.42,0,0,1,19.4,0H68.6A19.42,19.42,0,0,1,88,19.4V68.6A19.42,19.42,0,0,1,68.6,88Z" transform="translate(0)"/></g></g></g></g></g></g></g></g></svg>