<svg xmlns="http://www.w3.org/2000/svg" viewBox="0 0 595.91 353.83"><defs><style>.cls-1{isolation:isolate;}.cls-2{fill:#f7e5e2;}.cls-3,.cls-4{fill:#f5afaf;}.cls-17,.cls-4{opacity:0.4;mix-blend-mode:multiply;}.cls-5{fill:#f3cdca;}.cls-6{fill:#f29291;}.cls-7{fill:#115f5c;}.cls-8{fill:#33928e;}.cls-9{fill:#de535e;}.cls-10{fill:#6ac2c1;}.cls-11{fill:#fff;}.cls-12{fill:#b96d6b;}.cls-13{fill:none;stroke:#ed6e6c;stroke-linecap:round;stroke-linejoin:round;stroke-width:2px;}.cls-14{fill:#ef7c80;}.cls-15{fill:#f49a6e;}.cls-16{fill:#1d2827;}.cls-17{fill:#ec6063;}.cls-18{fill:#dc805b;}.cls-19{fill:#7fc8c5;}.cls-20{fill:#f39ca0;}</style></defs><title>Slide11</title><g class="cls-1"><g id="Слой_2" data-name="Слой 2"><g id="Слой_1-2" data-name="Слой 1"><rect class="cls-2" width="595.28" height="221.25"/><rect class="cls-3" x="0.64" y="221.78" width="595.28" height="132.05"/><path class="cls-4" d="M264.18,274.65c6.6-1.31,10.61-3,10.61-4.92,0-4.09-18.87-7.41-42.14-7.41s-42.14,3.32-42.14,7.41c0,2.29,5.89,4.33,15.14,5.69-21.28,1.36-35.53,3.84-35.53,6.66,0,4.29,32.71,7.77,73.06,7.77s73.07-3.48,73.07-7.77C316.25,278.57,294.3,275.61,264.18,274.65Z"/><ellipse class="cls-4" cx="429.43" cy="318.17" rx="33.71" ry="7.78"/><path class="cls-5" d="M251.91,67.12c0,32.24-3.5,52.24-39.34,53.78S114.9,93.46,114.9,61.22,144,1.59,179.79.05,251.91,34.88,251.91,67.12Z"/><path class="cls-6" d="M222.76,49.07H139.47a11.06,11.06,0,0,0-11.06,11.06V85.18a11.06,11.06,0,0,0,11.06,11.06h83.29a11.06,11.06,0,0,0,11.06-11.06V60.13A11.06,11.06,0,0,0,222.76,49.07Zm6.69,36.11a6.7,6.7,0,0,1-6.69,6.69H139.47a6.7,6.7,0,0,1-6.69-6.69V60.13a6.7,6.7,0,0,1,6.69-6.69h83.29a6.7,6.7,0,0,1,6.69,6.69Z"/><rect class="cls-7" x="137.82" y="57.17" width="5.47" height="32.82"/><rect class="cls-8" x="183.83" y="57.37" width="5.47" height="32.82" transform="translate(-14.03 76.99) rotate(-22.49)"/><rect class="cls-9" x="210.35" y="57.24" width="5.47" height="32.82" transform="translate(38.74 -69.3) rotate(20.28)"/><rect class="cls-10" x="218.07" y="56.88" width="3.42" height="32.82" transform="translate(39.04 -71.65) rotate(20.28)"/><rect class="cls-11" x="191.23" y="57.78" width="3.32" height="32.82" transform="translate(-13.71 79.44) rotate(-22.49)"/><rect class="cls-9" x="178.78" y="57.78" width="3.32" height="32.82" transform="translate(-14.66 74.68) rotate(-22.49)"/><rect class="cls-10" x="166.81" y="57.44" width="4.65" height="32.54"/><rect class="cls-12" x="161.34" y="54.71" width="3.28" height="35.28"/><rect class="cls-11" x="149.86" y="57.17" width="9.02" height="32.82"/><rect class="cls-6" x="145.76" y="61" width="2.73" height="28.99"/><line class="cls-13" x1="247.58" y1="215.14" x2="259.87" y2="271.8"/><line class="cls-13" x1="220.26" y1="217.9" x2="211.73" y2="274.56"/><line class="cls-13" x1="213.49" y1="214.14" x2="202.96" y2="269.79"/><line class="cls-13" x1="256.11" y1="212.13" x2="269.4" y2="271.3"/><path class="cls-14" d="M213.78,129c-5.6,3.43-11.95,13-11.95,38.63,0,45.88,13.54,53,34.22,51.15s26.33-12,27.45-18.81c1-6.13-4.74-66.24-32.1-72.5C228.55,126.82,218.19,126.3,213.78,129Z"/><path class="cls-9" d="M218,187.56a10,10,0,0,1-10-9.34c-.19-2.93-.28-6.11-.28-9.57,0-20.76,5.14-28.49,9.67-31.27,3.57-2.18,12-1.76,14.26-1.23,13.93,3.18,20.95,23.62,24,39.57a10,10,0,0,1-9.81,11.84Z"/><path class="cls-9" d="M256.55,193.58a.82.82,0,0,1,.58.32,1.94,1.94,0,0,1,.36,1.68c-.1.45-.22.91-.37,1.39-1.71,5.27-7,11.75-21.7,13.08-10.65,1-18.95-1-23.59-12.15a3.11,3.11,0,0,1,2.85-4.32Z"/><path class="cls-11" d="M265.35,145.68H219.48a2.63,2.63,0,0,0-2.62,2.63l5.68,29.26a2.63,2.63,0,0,0,2.62,2.63h35.39a2.63,2.63,0,0,0,2.62-2.63L268,148.31A2.63,2.63,0,0,0,265.35,145.68Z"/><ellipse class="cls-3" cx="242.42" cy="163.16" rx="5.46" ry="2.18"/><rect class="cls-7" x="180.17" y="178.45" width="120.57" height="5.24"/><path class="cls-7" d="M300.74,284.42a2,2,0,0,1-2-1.71L284.34,184a2,2,0,1,1,4-.58l14.42,98.73A2,2,0,0,1,301,284.4Z"/><path class="cls-7" d="M180.17,284.42l-.29,0a2,2,0,0,1-1.69-2.27L192.6,183.4a2,2,0,0,1,4,.58l-14.41,98.73A2,2,0,0,1,180.17,284.42Z"/><path class="cls-15" d="M464.18,292.69s1.6,10.7-.67,16-4.41,11.5-.4,12.57,8-1.6,6.82-13-.27-16-.27-16Z"/><path class="cls-15" d="M457.89,292.15s.67,14.18.81,18.32.8,10.16-4.68,11.1-4.42-5.75-2.81-11.1,2.54-8.69.93-16S457.89,292.15,457.89,292.15Z"/><path class="cls-7" d="M470.13,311.17l-.2,0s-4.68,5.21-7.22.4c-.07-.13-.14-.23-.2-.33-1.78,4.62-2.8,9.18.6,10.09C466.76,322.27,470.41,320.14,470.13,311.17Z"/><path class="cls-15" d="M457.89,292.15s.67,14.18.81,18.32.8,10.16-4.68,11.1-4.42-5.75-2.81-11.1,2.54-8.69.93-16S457.89,292.15,457.89,292.15Z"/><path class="cls-11" d="M439.64,165.34s-1.2,11.23.81,40.11S444.66,253,444.66,253s6.21,35.3,7.42,41.11a5.34,5.34,0,0,0,5.41-.2l1-1,2.2-118.12,3.21,118.32s4.21,2.61,5.82.4,11.23-59.16,12-80.62.73-49.46.73-49.46Z"/><path class="cls-16" d="M445.86,90.14c-5.75-6.15-6.42-13.37-.93-15.37s6.41-1.88,5.34-5.89-3.87-9.22-2.14-12.43,5.35-11.63,10-9.63,4.41-.26,7.35,0,10.7,1.21,11.23,8.43-2.4,7.62,2.14,13,6.42,13.77-1.2,19.52S445.86,90.14,445.86,90.14Z"/><path class="cls-9" d="M457,74.36s.75,6.2-.38,7.56-14.29,4.69-16.18,7.94A21.61,21.61,0,0,0,437.83,107c2,8.47,9.83,15.2,10.81,17.39s2.05,3.7,1.37,5.52-4.69,6.35-5.9,11.12-4.27,16.46-4.87,25.89,43.12,2.2,43.32.8A93.94,93.94,0,0,0,480,146.09a44.84,44.84,0,0,0-6.41-13.84c-1.41-2.4,0-7.82,0-7.82s11.63-6.61,11.83-23.86c.06-5.42-1-9.23-4.41-11.63s-12.64-5-12.64-5-1.4-.6-1.6-3.21a67.58,67.58,0,0,1,.2-7.62Z"/><path class="cls-17" d="M476.08,122.51c-1.42-3.78-2.44-6.4-2.44-6.4L462.41,99.57l-16.12,21.76a19.18,19.18,0,0,1,2.35,3.09c.75,1.65,1.53,2.92,1.58,4.22a32.36,32.36,0,0,1,28.68,14.08,47.07,47.07,0,0,0-5.36-10.47c-1.41-2.4,0-7.82,0-7.82A16.53,16.53,0,0,0,476.08,122.51Z"/><path class="cls-7" d="M458.72,311.19c-.8,1.42-4.88,8-7.68.55l-.12-.28c-1.42,5.15-2.05,11,3.1,10.11S458.89,315.28,458.72,311.19Z"/><path class="cls-15" d="M452.41,83.85c1.56,5.48,5.07,9.3,9.16,9.3,3.9,0,7.28-3.49,8.93-8.57-1.3-.41-2.18-.66-2.18-.66s-1.4-.6-1.6-3.21a67.58,67.58,0,0,1,.2-7.62L457,74.36s.75,6.2-.38,7.56C456.28,82.37,454.58,83,452.41,83.85Z"/><path class="cls-18" d="M463.58,84a9.46,9.46,0,0,0,3.56-1.52,5.48,5.48,0,0,1-.42-1.81,67.58,67.58,0,0,1,.2-7.62L457,74.36a34.17,34.17,0,0,1,.2,5.3C458.85,81.6,461.52,84.33,463.58,84Z"/><path class="cls-15" d="M461.5,55.58s-1.73,5.21-5.34,7.09S455,76.9,459.77,78.31s8.55-4.61,9.49-6.55,2.67-2,3.07-4,.07-3.34-1.27-2.67-2.8-.27-3.61-2.21S463.91,56,461.5,55.58Z"/><ellipse class="cls-11" cx="471.5" cy="71.89" rx="1.7" ry="2.21"/><path class="cls-15" d="M472.34,67.82c-.41,1.93-2.15,2-3.08,3.93a16.68,16.68,0,0,1-3.66,4.85,0,0,0,0,0,0,0C464,78,462,79,459.77,78.31a4.3,4.3,0,0,1-1.84-1.17c-3.48-3.48-4.88-12.86-1.77-14.47,3.61-1.87,5.35-7.09,5.35-7.09,2.4.4,5.14,5.42,5.94,7.35s2.28,2.88,3.61,2.21S472.74,65.87,472.34,67.82Z"/><path class="cls-18" d="M462.22,68.34s-3.8-1-5.28,1.15c-.77,1.12-.92,3.08-.75,5.13a9.84,9.84,0,0,0,1.74,2.52,4.3,4.3,0,0,0,1.84,1.17c2.2.65,4.21-.3,5.82-1.7a0,0,0,0,1,0,0,10.1,10.1,0,0,0,.87-.86C467.12,73.45,466.56,70.72,462.22,68.34Z"/><path class="cls-15" d="M454.49,124.08a4,4,0,0,0,1-1.34c1.44-3.17,7.31-16.63,7.78-27.29.54-12.16-.27-13.78-.27-13.78s-.27-2.16.81-3.24,3.92-4.06,1.22-7.17-6.89-2.83-7.43.54a11.11,11.11,0,0,0,1.08,6.36S460,78,458.78,83c-1,4.26-3.44,18-6.22,23.9-.49,1-2,3.66-3,2s-.68-1.08-.68-1.08-4.3,6.38-8.82,4.81h0c2.91,5.37,7.23,9.5,8.37,11.37C449.37,124.69,452.07,126.16,454.49,124.08Z"/><path class="cls-18" d="M449.6,109c-1-1.62-.68-1.08-.68-1.08s-4.19,6.22-8.65,4.87l-.19,0c.47.86,1,1.68,1.49,2.47,5.58-.67,7.73-3.62,8.54-5.57A2,2,0,0,1,449.6,109Z"/><path class="cls-18" d="M458.1,86.13c.67,7.15,1.52,17.37,2.66,22.45a56.43,56.43,0,0,0,2.48-13.13c.12-2.71.18-4.9.19-6.66-.29-.92-.55-1.8-.77-2.61-.62-2.24-1.43-6-.35-7.21s5.78-6-1-9.83a3.11,3.11,0,0,0-3.72,2.66,11.11,11.11,0,0,0,1.08,6.36S460,78,458.79,83C458.6,83.79,458.37,84.86,458.1,86.13Z"/><path class="cls-15" d="M483.11,112.21h-.17c-1,.09-6.67.34-8.75-4.07l-1.89,1.76s-6.1-15.23-8.44-23.73c-.61-2.24-1.43-6-.35-7.21s5.81-6.08-1.08-9.87c0,0-3.1-.81-4.32,1s-.54,6.08.27,8.51,2,25.81,4.05,31.75,3.65,12.17,5.68,13.65c1.24.91,3.83.66,5.67.32a25.64,25.64,0,0,0,9.36-11.94Z"/><path class="cls-18" d="M483.11,112.21h-.17c-1,.09-6.67.34-8.75-4.07l-.79.74c.86,2.35,3,7.16,6.51,8.44.17.06.35.1.52.15a28,28,0,0,0,2.71-5.14Z"/><rect class="cls-11" x="352.54" y="174.32" width="19.22" height="25.77" rx="2.62"/><rect class="cls-10" x="357.34" y="180.43" width="9.61" height="13.54" rx="2.62"/><path class="cls-10" d="M293.77,290.75c-4.75,0-9-.68-12.22-2.23-11.75-5.56-13.2-35.29-14.72-66.77-.72-14.78-1.46-30.07-3.29-43.17a1,1,0,0,1,.81-1.08,1,1,0,0,1,1.08.82c1.84,13.18,2.58,28.51,3.3,43.34,1.5,30.89,2.92,60.06,13.63,65.14,15.77,7.46,57.31-7,64.29-19.69a28.29,28.29,0,0,1,10.5-11.29c2.42-1.59,3.88-2.55,4.24-5.41.86-6.84,0-57,0-57.53a1,1,0,0,1,.94-1h0a1,1,0,0,1,1,.94c0,2.07.87,50.82,0,57.8-.46,3.73-2.5,5.07-5.09,6.76A26.42,26.42,0,0,0,348.32,268C342.31,278.92,313.51,290.75,293.77,290.75Z"/><path class="cls-9" d="M357,184c-.11-.15-.52-.64-1.15-1.36C352.12,178.41,341,166.2,341,166.2l-5.81,5.45-26.51-14.17,25.06,24,8-6.9Z"/><path class="cls-9" d="M350.51,197.75c-.14,0-.6,0-1.29.05-4.06.21-16,1.11-16,1.11l.51,5.76-20,8.79,24.92-3.57-.36-7.65Z"/><path class="cls-9" d="M392.74,223.59c0-.13-.18-.57-.42-1.22-1.39-3.82-5.75-15-5.75-15l-5.36,2.17L367,193l10.7,22.78,7.21-2.58Z"/><path class="cls-9" d="M375.18,171.45c.11-.07.47-.37,1-.83,3.06-2.67,11.93-10.77,11.93-10.77l-4-4.21,10.28-19.25L377,154.58l5,5.8Z"/><path class="cls-19" d="M357.67,131.32a13.06,13.06,0,0,0-4.74.9,10.45,10.45,0,0,0-17.44,10.57,8.14,8.14,0,0,0-1.22-.1,7.89,7.89,0,1,0,2.33,15.43,7.39,7.39,0,0,0,13.94-3,13,13,0,1,0,7.13-23.82Z"/><circle class="cls-19" cx="355.43" cy="165.33" r="4.21"/><path class="cls-11" d="M378.46,42.71a27.77,27.77,0,0,0-21.95,10.73,22.57,22.57,0,0,0-42.28,15.14,22.59,22.59,0,1,0,20,37.17,17.47,17.47,0,0,0,30.29-11.08,27.84,27.84,0,1,0,13.89-52Z"/><path class="cls-7" d="M82.59,182.81c2.36-.89,2.91-4.19,1.86-6.49s-3.16-3.89-5-5.64-3.53-4-3.33-6.52c.21-2.74,2.59-4.89,3-7.61,1-6-7.31-9.61-8.21-15.58-.46-3.07,1.15-6.3.19-9.25-.65-2-2.36-3.46-3.44-5.27a9.2,9.2,0,0,1-1-6.73c.47-2,1.5-4.31.11-5.78-1.25-1.31-3.65-.61-4.64.91s-1,3.45-.9,5.26A105.26,105.26,0,0,0,65,143c1,3.42,2,7.29.21,10.33-.46.77-1.09,1.43-1.49,2.23A4.8,4.8,0,0,0,66.35,162c1.32.45,3.09.5,3.58,1.81s-.66,2.4-1.12,3.62a3.86,3.86,0,0,0,3.79,4.95c-.12,3.34.81,6.9,3.31,9.12s6.78,2.53,9,.06"/><path class="cls-3" d="M80.35,185.2c.55-1.95.06-4-.1-6s.19-4.34,1.86-5.49a19.43,19.43,0,0,1,3-1.26c3.58-1.68,4.26-6.48,3.82-10.41s-1.44-8.18.48-11.64c.76-1.38,1.94-2.5,2.71-3.88,2.11-3.77.76-8.43-.19-12.64s-1.12-9.42,2.35-12c1.37-1,3.51-1.32,4.63,0a4.28,4.28,0,0,1,.83,2.49,16.91,16.91,0,0,1-1.32,8c-.77,1.79-1.89,3.58-1.72,5.53.37,4.28,6.6,6.67,6.07,10.93-.41,3.22-4.64,5.12-4.58,8.36,0,2.57,2.82,4.42,3,7,.33,4.55-7.17,6.31-7.45,10.86-.08,1.32.49,2.78-.2,3.91a4.09,4.09,0,0,1-2.38,1.46l-9.23,3Z"/><path class="cls-6" d="M84.52,183.34l3.65-13.61c1.48-5.54,2.45-12.65-2.25-15.93-2.18-1.52-5.58-2.35-5.72-5-.08-1.43,1-2.65,1.84-3.77a29.62,29.62,0,0,0,6.23-19.75,4.63,4.63,0,0,0-.74-2.62c-.66-.83-1.78-1.16-2.57-1.86a6,6,0,0,1-1.6-3.69,21.92,21.92,0,0,1,1.22-10.88c.83-2.16,1.91-4.86.31-6.52-2.15-2.23-5.89.62-6.71,3.6a12.47,12.47,0,0,0,1.66,10.15,8.54,8.54,0,0,1,1.6,2.84c.52,2.33-1.55,4.33-2.81,6.36a10.45,10.45,0,0,0-.3,10.3,29.33,29.33,0,0,1,2.19,3.85c.93,2.64-.07,5.53-1.06,8.15-2.74,7.27-5.44,15.4-2.47,22.58a12.56,12.56,0,0,1,1.39,4.15c.09,2.36-1.65,4.43-1.95,6.78a5.67,5.67,0,0,0,9.92,4.42"/><path class="cls-9" d="M66.68,180.74a23.55,23.55,0,0,0-.37,4.15,21.25,21.25,0,0,0,6.25,15.51h19a21.21,21.21,0,0,0,6.25-15.51,24.54,24.54,0,0,0-.36-4.15Z"/><rect class="cls-6" x="51.13" y="199.85" width="58.98" height="43.69" rx="2.73"/><polygon class="cls-20" points="110.11 214.71 81.5 214.71 81.5 199.85 79.75 199.85 79.75 214.71 51.13 214.71 51.13 216.46 79.75 216.46 81.5 216.46 110.11 216.46 110.11 214.71"/><ellipse class="cls-3" cx="66.51" cy="207.63" rx="4.46" ry="1.6"/><ellipse class="cls-3" cx="95.56" cy="207.63" rx="4.46" ry="1.6"/></g></g></g></svg>