<svg xmlns="http://www.w3.org/2000/svg" viewBox="0 0 44.3 40.5"><defs><style>.cls-1{fill:#7fc8c5;}</style></defs><title>smoke</title><g id="Слой_2" data-name="Слой 2"><g id="Слой_1-2" data-name="Слой 1"><path id="Path_37" data-name="Path 37" class="cls-1" d="M31.2,2.3a12,12,0,0,0-4.7.9A10.37,10.37,0,0,0,19,0,10.5,10.5,0,0,0,8.5,10.5h0a8.85,8.85,0,0,0,.6,3.3,4.83,4.83,0,0,0-1.2-.1,7.9,7.9,0,0,0,0,15.8,8.49,8.49,0,0,0,2.3-.3,7.32,7.32,0,0,0,6.6,4,7.44,7.44,0,0,0,7.4-7,13.16,13.16,0,0,0,7.1,2.1,13,13,0,0,0,13-12.95v0A13.12,13.12,0,0,0,31.2,2.3Z"/><circle id="Ellipse_4" data-name="Ellipse 4" class="cls-1" cx="29" cy="36.3" r="4.2"/></g></g></svg>