<svg xmlns="http://www.w3.org/2000/svg" viewBox="0 0 193.61 163.79"><defs><style>.cls-1{fill:none;stroke:#ed6e6c;stroke-linecap:round;stroke-linejoin:round;stroke-width:2px;}.cls-2{fill:#ef7b80;}.cls-3{fill:#de525d;}.cls-4{fill:#fff;}.cls-5{fill:#f5aeae;}.cls-6{fill:#105e5b;}.cls-7{fill:#6ac2c0;}</style></defs><title>Ресурс8</title><g id="Слой_2" data-name="Слой 2"><g id="Слой_1-2" data-name="Слой 1"><g id="Group_3" data-name="Group 3"><line id="Line_1" data-name="Line 1" class="cls-1" x1="69.41" y1="88.17" x2="81.71" y2="144.87"/><line id="Line_2" data-name="Line 2" class="cls-1" x1="42.11" y1="90.97" x2="33.61" y2="147.67"/><line id="Line_3" data-name="Line 3" class="cls-1" x1="35.31" y1="87.17" x2="24.81" y2="142.87"/><line id="Line_4" data-name="Line 4" class="cls-1" x1="77.91" y1="85.17" x2="91.21" y2="144.37"/><path id="Path_4" data-name="Path 4" class="cls-2" d="M35.61,2.07c-5.6,3.4-11.9,13-11.9,38.6,0,45.9,13.5,53,34.2,51.1s26.3-12,27.5-18.8c1-6.1-4.7-66.2-32.1-72.5C50.41-.13,40-.63,35.61,2.07Z"/><g id="Group_2" data-name="Group 2"><path id="Path_5" data-name="Path 5" class="cls-3" d="M39.81,60.67a10,10,0,0,1-10-9.3q-.3-4.35-.3-9.6c0-20.8,5.1-28.5,9.7-31.3,3.6-2.2,12-1.8,14.3-1.2,13.9,3.2,20.9,23.6,24,39.6A9.92,9.92,0,0,1,69.64,60.5a9.56,9.56,0,0,1-1.93.17Z"/><path id="Path_6" data-name="Path 6" class="cls-3" d="M78.41,66.67a.89.89,0,0,1,.6.3,2.09,2.09,0,0,1,.4,1.7,9.37,9.37,0,0,1-.4,1.4c-1.7,5.3-7,11.8-21.7,13.1-10.6,1-19-1-23.6-12.1a3.05,3.05,0,0,1,1.56-4,3.09,3.09,0,0,1,1.34-.27Z"/></g></g><g id="Group_7" data-name="Group 7"><path id="Path_7" data-name="Path 7" class="cls-4" d="M87.21,18.77H41.31a2.66,2.66,0,0,0-2.6,2.6l5.7,29.3a2.65,2.65,0,0,0,2.6,2.6h35.4a2.63,2.63,0,0,0,2.6-2.6l4.8-29.3A2.65,2.65,0,0,0,87.21,18.77Z"/><ellipse id="Ellipse_2" data-name="Ellipse 2" class="cls-5" cx="64.31" cy="36.27" rx="5.5" ry="2.2"/><g id="Group_6" data-name="Group 6"><rect id="Rectangle_13" data-name="Rectangle 13" class="cls-6" x="2.01" y="51.47" width="120.6" height="5.2"/><g id="Group_4" data-name="Group 4"><path id="Path_8" data-name="Path 8" class="cls-6" d="M122.61,157.47a2,2,0,0,1-2-1.7l-14.4-98.7a2,2,0,0,1,1.7-2.3h0a2.1,2.1,0,0,1,2.3,1.7l14.4,98.7a2,2,0,0,1-1.69,2.3h-.31Z"/></g><g id="Group_5" data-name="Group 5"><path id="Path_9" data-name="Path 9" class="cls-6" d="M2,157.47h-.3a2.1,2.1,0,0,1-1.7-2.3l14.4-98.7a2,2,0,0,1,4,.6h0L4,155.77A2,2,0,0,1,2,157.47Z"/></g></g></g><path id="Path_30" data-name="Path 30" class="cls-4" d="M191,73.17H177a2.65,2.65,0,0,1-2.6-2.6V50.07a2.66,2.66,0,0,1,2.6-2.6h14a2.65,2.65,0,0,1,2.6,2.6v20.5A2.63,2.63,0,0,1,191,73.17Z"/><path id="Path_31" data-name="Path 31" class="cls-7" d="M186.21,67.07h-4.4a2.65,2.65,0,0,1-2.6-2.6v-8.3a2.66,2.66,0,0,1,2.6-2.6h4.4a2.65,2.65,0,0,1,2.6,2.6v8.3A2.63,2.63,0,0,1,186.21,67.07Z"/><g id="Group_10" data-name="Group 10"><path id="Path_32" data-name="Path 32" class="cls-7" d="M115.61,163.77a29.51,29.51,0,0,1-12.2-2.2c-11.7-5.6-13.2-35.3-14.7-66.8-.7-14.8-1.5-30.1-3.3-43.2a1,1,0,0,1,1.9-.3c1.8,13.2,2.6,28.5,3.3,43.3,1.5,30.9,2.9,60.1,13.6,65.1,15.8,7.5,57.3-7,64.3-19.7a29,29,0,0,1,10.5-11.3c2.4-1.6,3.9-2.5,4.2-5.4.9-6.8,0-57,0-57.5a1,1,0,0,1,.9-1h0a1.06,1.06,0,0,1,1,.9c0,2.1.9,50.8,0,57.8-.5,3.7-2.5,5.1-5.1,6.8a26.25,26.25,0,0,0-9.9,10.6C164.11,152,135.31,163.77,115.61,163.77Z"/></g></g></g></svg>