<svg xmlns="http://www.w3.org/2000/svg" viewBox="0 0 140.29 254.15"><defs><style>.cls-1{fill:#f29291;}.cls-2{fill:#f3cdca;}.cls-3{fill:#de535e;}</style></defs><title>stairs</title><g id="Слой_2" data-name="Слой 2"><g id="Слой_1-2" data-name="Слой 1"><ellipse class="cls-1" cx="70.15" cy="239.12" rx="70.15" ry="15.03"/><polygon class="cls-2" points="63.63 240.63 66.78 240.63 73.08 0 69.93 0 63.63 240.63"/><polygon class="cls-2" points="12.61 240.63 15.76 240.63 22.06 0 18.91 0 12.61 240.63"/><polygon class="cls-3" points="81.9 241.26 85.05 241.26 73.08 0 69.93 0 81.9 241.26"/><polygon class="cls-3" points="30.88 241.26 34.03 241.26 22.06 0 18.91 0 30.88 241.26"/><polygon class="cls-3" points="25.78 74.96 75.54 74.96 75.36 71.18 25.59 71.18 25.78 74.96"/><polygon class="cls-3" points="27.06 100.79 76.82 100.79 76.64 97.01 26.87 97.01 27.06 100.79"/><polygon class="cls-3" points="28.34 126.62 78.11 126.62 77.92 122.84 28.15 122.84 28.34 126.62"/><polygon class="cls-3" points="29.62 152.44 79.39 152.44 79.2 148.66 29.43 148.66 29.62 152.44"/><polygon class="cls-3" points="30.9 178.27 80.67 178.27 80.48 174.49 30.72 174.49 30.9 178.27"/><polygon class="cls-3" points="32.18 204.1 81.95 204.1 81.76 200.32 32 200.32 32.18 204.1"/><polygon class="cls-3" points="21.48 52.46 73.76 52.46 71.86 14.03 19.57 14.03 21.48 52.46"/></g></g></svg>