<svg xmlns="http://www.w3.org/2000/svg" xmlns:xlink="http://www.w3.org/1999/xlink" viewBox="0 0 132.28 470.2"><defs><style>.cls-1{fill:none;}.cls-2{isolation:isolate;}.cls-3{fill:#6ac2c1;}.cls-4{fill:#f7e4e2;}.cls-5{clip-path:url(#clip-path);}.cls-11,.cls-6{fill:#f49a6e;}.cls-7{fill:#115f5c;}.cls-8{fill:#fff;}.cls-9{fill:#1d2827;}.cls-10{fill:#de535e;}.cls-11{opacity:0.4;mix-blend-mode:multiply;}</style><clipPath id="clip-path"><circle class="cls-1" cx="66.14" cy="66.14" r="51.74"/></clipPath></defs><title>woman_location</title><g class="cls-2"><g id="Слой_2" data-name="Слой 2"><g id="Слой_1-2" data-name="Слой 1"><path class="cls-3" d="M76.39,180.75a11.84,11.84,0,0,1-20.51,0L10,101.11a66.14,66.14,0,1,1,111.86.7Z"/><circle class="cls-4" cx="66.14" cy="66.14" r="51.74"/><g class="cls-5"><path class="cls-6" d="M70.08,422.56S72.71,440.15,69,449s-7.26,18.91-.66,20.67S81.51,467,79.53,448.29s-.44-26.39-.44-26.39Z"/><path class="cls-6" d="M59.74,421.68s1.1,23.31,1.32,30.13,1.32,16.71-7.7,18.25-7.25-9.46-4.61-18.25,4.17-14.3,1.53-26.39S59.74,421.68,59.74,421.68Z"/><path class="cls-7" d="M79.86,453l-.33,0s-7.69,8.57-11.87.66a5.54,5.54,0,0,0-.33-.56c-2.92,7.61-4.61,15.12,1,16.61C74.32,471.22,80.33,467.71,79.86,453Z"/><path class="cls-6" d="M59.74,421.68s1.1,23.31,1.32,30.13,1.32,16.71-7.7,18.25-7.25-9.46-4.61-18.25,4.17-14.3,1.53-26.39S59.74,421.68,59.74,421.68Z"/><path class="cls-8" d="M29.72,213.11s-2,18.47,1.32,66S38,357.25,38,357.25s10.23,58.05,12.2,67.62c0,0,4.62,2.64,8.91-.33l1.65-1.65,3.63-194.28,5.28,194.61s6.92,4.29,9.56.66S97.67,326.57,99,291.28s1.21-81.36,1.21-81.36Z"/><path class="cls-9" d="M40,89.41c-9.46-10.11-10.56-22-1.54-25.29S49,61,47.21,54.45,40.83,39.27,43.69,34s8.79-19.13,16.49-15.84,7.26-.44,12.09,0,17.6,2,18.48,13.86-4,12.53,3.51,21.33,10.56,22.65-2,32.1S40,89.41,40,89.41Z"/><path class="cls-10" d="M58.33,63.46s1.25,10.19-.62,12.43S34.2,83.6,31.1,89s-7.72,14.31-4.36,28.24,16.17,25,17.79,28.6,3.36,6.1,2.24,9.08-7.71,10.45-9.7,18.29-7,27.08-8,42.58,70.92,3.63,71.25,1.32-.66-22.43-4.29-35.62-8.5-19.24-10.55-22.76c-2.31-4,0-12.86,0-12.86s19.13-10.89,19.46-39.26c.1-8.9-1.65-15.17-7.26-19.13s-20.78-8.24-20.78-8.24-2.31-1-2.64-5.28a110.81,110.81,0,0,1,.33-12.54Z"/><path class="cls-10" d="M89.66,142.65c-2.35-6.22-4-10.52-4-10.52L67.16,104.91l-26.51,35.8a31.32,31.32,0,0,1,3.88,5.08c1.22,2.72,2.5,4.81,2.58,7,10.12-.54,31.64,1.27,47.18,23.16-3.32-9.42-7.08-14.23-8.82-17.22-2.31-4,0-12.86,0-12.86A28,28,0,0,0,89.66,142.65Z"/><path class="cls-7" d="M61.1,453c-1.31,2.32-8,13.2-12.63.9-.06-.18-.13-.31-.19-.46-2.35,8.46-3.38,18.06,5.08,16.62S61.37,459.72,61.1,453Z"/><path class="cls-6" d="M50.72,79.07c2.57,9,8.34,15.29,15.07,15.29,6.42,0,12-5.74,14.69-14.09-2.15-.68-3.59-1.08-3.59-1.08s-2.31-1-2.64-5.28a110.81,110.81,0,0,1,.33-12.54L58.33,63.46s1.25,10.19-.62,12.43C57.09,76.64,54.29,77.74,50.72,79.07Z"/><path class="cls-11" d="M69.09,79.37A15.59,15.59,0,0,0,75,76.88a9.13,9.13,0,0,1-.7-3,110.81,110.81,0,0,1,.33-12.54L58.33,63.46a54.59,54.59,0,0,1,.34,8.71C61.32,75.36,65.7,79.85,69.09,79.37Z"/><path class="cls-6" d="M65.68,32.57s-2.86,8.57-8.8,11.65S55,67.64,62.82,70s14.07-7.59,15.61-10.77,4.4-3.3,5.06-6.49.11-5.5-2.09-4.4-4.62-.44-5.94-3.63S69.64,33.23,65.68,32.57Z"/><ellipse class="cls-8" cx="82.12" cy="59.39" rx="2.8" ry="3.63"/><path class="cls-6" d="M83.49,52.69c-.66,3.18-3.52,3.3-5.06,6.48a27.29,27.29,0,0,1-6,8,0,0,0,0,0,0,0c-2.65,2.31-6,3.87-9.58,2.8a7.14,7.14,0,0,1-3-1.93c-5.73-5.71-8-21.15-2.92-23.8,5.94-3.07,8.8-11.65,8.8-11.65,4,.66,8.46,8.91,9.78,12.09s3.75,4.73,5.94,3.63S84.15,49.5,83.49,52.69Z"/></g></g></g></g></svg>