<svg xmlns="http://www.w3.org/2000/svg" viewBox="0 0 185.64 163.8"><defs><style>.cls-1{isolation:isolate;}.cls-2,.cls-8{fill:#f5afaf;}.cls-2,.cls-5{opacity:0.4;mix-blend-mode:multiply;}.cls-3{fill:none;stroke:#ed6e6c;stroke-linecap:round;stroke-linejoin:round;stroke-width:2px;}.cls-4{fill:#ef7c80;}.cls-6{fill:#de535e;}.cls-7{fill:#fff;}.cls-9{fill:#115f5c;}.cls-10{fill:#6ac2c1;}</style></defs><title>comp_table</title><g class="cls-1"><g id="Слой_2" data-name="Слой 2"><g id="Слой_1-2" data-name="Слой 1"><path class="cls-2" d="M94.06,147.7c6.6-1.31,10.61-3,10.61-4.91,0-4.1-18.87-7.41-42.14-7.41s-42.14,3.31-42.14,7.41c0,2.28,5.89,4.32,15.14,5.68C14.25,149.83,0,152.31,0,155.13c0,4.29,32.71,7.77,73.06,7.77s73.07-3.48,73.07-7.77C146.13,151.62,124.18,148.66,94.06,147.7Z"/><line class="cls-3" x1="77.46" y1="88.19" x2="89.75" y2="144.85"/><line class="cls-3" x1="50.14" y1="90.95" x2="41.61" y2="147.61"/><line class="cls-3" x1="43.37" y1="87.19" x2="32.84" y2="142.84"/><line class="cls-3" x1="85.99" y1="85.18" x2="99.28" y2="144.35"/><path class="cls-4" d="M43.66,2.05c-5.6,3.43-11.95,13-11.95,38.63,0,45.88,13.54,53,34.22,51.15S92.26,79.79,93.38,73c1-6.13-4.74-66.24-32.1-72.5C58.43-.13,48.07-.65,43.66,2.05Z"/><g class="cls-5"><path class="cls-6" d="M47.84,60.61a10,10,0,0,1-10-9.34c-.19-2.93-.28-6.11-.28-9.57,0-20.76,5.14-28.49,9.67-31.26,3.57-2.19,12-1.77,14.26-1.24,13.93,3.18,21,23.62,24,39.57a10,10,0,0,1-9.81,11.84Z"/><path class="cls-6" d="M86.43,66.63A.82.82,0,0,1,87,67a1.94,1.94,0,0,1,.36,1.68c-.1.45-.22.91-.37,1.39-1.71,5.27-7,11.75-21.7,13.08-10.65,1-18.95-1-23.59-12.15a3.11,3.11,0,0,1,2.85-4.32Z"/></g><path class="cls-7" d="M95.23,18.73H49.36a2.63,2.63,0,0,0-2.62,2.63l5.68,29.27A2.63,2.63,0,0,0,55,53.25H90.43a2.63,2.63,0,0,0,2.62-2.62l4.81-29.27A2.63,2.63,0,0,0,95.23,18.73Z"/><ellipse class="cls-8" cx="72.3" cy="36.21" rx="5.46" ry="2.18"/><rect class="cls-9" x="10.05" y="51.5" width="120.57" height="5.24"/><path class="cls-9" d="M130.62,157.47a2,2,0,0,1-2-1.71L114.22,57a2,2,0,1,1,4-.58l14.42,98.73a2,2,0,0,1-1.69,2.27Z"/><path class="cls-9" d="M10.05,157.47l-.29,0a2,2,0,0,1-1.69-2.27L22.48,56.45a2,2,0,0,1,4,.58L12,155.76A2,2,0,0,1,10.05,157.47Z"/><rect class="cls-7" x="166.42" y="47.37" width="19.22" height="25.77" rx="2.62"/><rect class="cls-10" x="171.22" y="53.48" width="9.61" height="13.54" rx="2.62"/><path class="cls-10" d="M107.65,163.8a29,29,0,0,1-12.22-2.22C83.68,156,82.24,126.28,80.71,94.8,80,80,79.25,64.73,77.42,51.63a1,1,0,0,1,.81-1.08,1,1,0,0,1,1.08.82c1.84,13.18,2.58,28.51,3.3,43.34,1.5,30.89,2.92,60.07,13.63,65.14,15.77,7.46,57.3-7,64.29-19.69A28.29,28.29,0,0,1,171,128.87c2.42-1.59,3.88-2.55,4.24-5.41.85-6.84,0-57,0-57.53a1,1,0,0,1,.94-1h0a1,1,0,0,1,.95.94c0,2.07.87,50.82,0,57.8-.46,3.73-2.5,5.07-5.09,6.76a26.42,26.42,0,0,0-9.87,10.62C156.19,152,127.39,163.8,107.65,163.8Z"/></g></g></g></svg>