<svg xmlns="http://www.w3.org/2000/svg" xmlns:xlink="http://www.w3.org/1999/xlink" viewBox="0 0 494.56 446.55"><defs><style>.cls-1{isolation:isolate;}.cls-2{fill:#f7e5e2;}.cls-15,.cls-3{fill:#f5afaf;}.cls-14,.cls-18,.cls-19,.cls-20,.cls-3{opacity:0.4;}.cls-14,.cls-18,.cls-19,.cls-20,.cls-23,.cls-3{mix-blend-mode:multiply;}.cls-4{fill:#f3cdca;}.cls-5{fill:#f29291;}.cls-6{fill:#115f5c;}.cls-7{fill:#33928e;}.cls-20,.cls-8{fill:#de535e;}.cls-9{fill:#6ac2c1;}.cls-10{fill:#fff;}.cls-11{fill:#b96d6b;}.cls-12{fill:none;stroke:#ed6e6c;stroke-linecap:round;stroke-linejoin:round;stroke-width:2px;}.cls-13{fill:#ef7c80;}.cls-16,.cls-19{fill:#f49a6e;}.cls-17,.cls-18{fill:#b4d1cf;}.cls-21{fill:#1d2827;}.cls-22{fill:#cc4e4c;}.cls-23{fill:#c3d1dd;opacity:0.68;}</style><image id="image" width="512" height="512" xlink:href="../../../../../../../Downloads/star%20(1).png"/></defs><title>Slide4</title><g class="cls-1"><g id="Слой_2" data-name="Слой 2"><g id="Слой_1-2" data-name="Слой 1"><ellipse class="cls-2" cx="247.28" cy="223.28" rx="247.28" ry="223.28"/><path class="cls-3" d="M219.43,334.77c6.6-1.31,10.61-3,10.61-4.92,0-4.09-18.87-7.41-42.14-7.41s-42.14,3.32-42.14,7.41c0,2.29,5.89,4.33,15.14,5.69-21.28,1.36-35.53,3.83-35.53,6.66,0,4.29,32.71,7.77,73.07,7.77s73.06-3.48,73.06-7.77C271.5,338.69,249.55,335.72,219.43,334.77Z"/><path class="cls-4" d="M208.16,127.24c0,32.24-3.49,52.24-39.34,53.78s-97.67-27.44-97.67-59.68S100.2,61.71,136,60.17,208.16,95,208.16,127.24Z"/><path class="cls-5" d="M179,109.19H95.72a11.06,11.06,0,0,0-11.06,11.06V145.3a11.06,11.06,0,0,0,11.06,11.06H179a11.06,11.06,0,0,0,11.06-11.06V120.25A11.06,11.06,0,0,0,179,109.19Zm6.69,36.11A6.7,6.7,0,0,1,179,152H95.72A6.7,6.7,0,0,1,89,145.3V120.25a6.7,6.7,0,0,1,6.69-6.69H179a6.7,6.7,0,0,1,6.69,6.69Z"/><rect class="cls-6" x="94.08" y="117.29" width="5.47" height="32.82"/><rect class="cls-7" x="140.08" y="117.49" width="5.47" height="32.82" transform="translate(-40.36 64.83) rotate(-22.49)"/><rect class="cls-8" x="166.6" y="117.36" width="5.47" height="32.82" transform="translate(56.87 -50.41) rotate(20.28)"/><rect class="cls-9" x="174.32" y="117" width="3.42" height="32.82" transform="translate(57.16 -52.75) rotate(20.28)"/><rect class="cls-10" x="147.48" y="117.9" width="3.32" height="32.82" transform="translate(-40.04 67.28) rotate(-22.49)"/><rect class="cls-8" x="135.03" y="117.9" width="3.32" height="32.82" transform="translate(-40.99 62.52) rotate(-22.49)"/><rect class="cls-9" x="123.06" y="117.56" width="4.65" height="32.54"/><rect class="cls-11" x="117.59" y="114.83" width="3.28" height="35.28"/><rect class="cls-10" x="106.11" y="117.29" width="9.02" height="32.82"/><rect class="cls-5" x="102.01" y="121.12" width="2.73" height="28.99"/><line class="cls-12" x1="202.84" y1="275.26" x2="215.12" y2="331.92"/><line class="cls-12" x1="175.51" y1="278.02" x2="166.98" y2="334.68"/><line class="cls-12" x1="168.74" y1="274.26" x2="158.21" y2="329.91"/><line class="cls-12" x1="211.36" y1="272.25" x2="224.65" y2="331.42"/><path class="cls-13" d="M169,189.12c-5.6,3.43-11.95,13-11.95,38.63,0,45.88,13.54,53,34.22,51.14s26.33-12,27.46-18.8c1-6.13-4.75-66.24-32.11-72.5C183.81,186.94,173.44,186.42,169,189.12Z"/><g class="cls-14"><path class="cls-8" d="M173.21,247.68a10,10,0,0,1-10-9.34c-.19-2.93-.28-6.11-.28-9.57,0-20.76,5.14-28.49,9.67-31.27,3.57-2.19,12-1.76,14.27-1.23,13.93,3.18,20.94,23.61,24,39.57a10,10,0,0,1-9.8,11.84Z"/><path class="cls-8" d="M211.8,253.7a.82.82,0,0,1,.58.32,1.94,1.94,0,0,1,.36,1.68,12.9,12.9,0,0,1-.37,1.38c-1.7,5.27-7,11.76-21.7,13.09-10.65,1-18.95-1-23.59-12.15a3.11,3.11,0,0,1,2.85-4.32Z"/></g><path class="cls-10" d="M220.61,205.8H174.74a2.63,2.63,0,0,0-2.63,2.62l5.68,29.27a2.63,2.63,0,0,0,2.63,2.62H215.8a2.63,2.63,0,0,0,2.62-2.62l4.81-29.27A2.63,2.63,0,0,0,220.61,205.8Z"/><ellipse class="cls-15" cx="197.67" cy="223.28" rx="5.46" ry="2.18"/><rect class="cls-6" x="135.42" y="238.57" width="120.57" height="5.24"/><path class="cls-6" d="M256,344.54a2,2,0,0,1-2-1.71L239.6,244.1a2,2,0,1,1,4-.58L258,342.25a2,2,0,0,1-1.69,2.27Z"/><path class="cls-6" d="M135.42,344.54l-.29,0a2,2,0,0,1-1.69-2.27l14.42-98.73a2,2,0,1,1,3.95.58L137.4,342.83A2,2,0,0,1,135.42,344.54Z"/><rect class="cls-10" x="291.79" y="234.44" width="19.22" height="25.77" rx="2.62"/><rect class="cls-9" x="296.59" y="240.55" width="9.61" height="13.54" rx="2.62"/><path class="cls-9" d="M233,350.87c-4.75,0-9-.68-12.22-2.23-11.75-5.56-13.19-35.29-14.72-66.77-.72-14.78-1.46-30.07-3.29-43.17a1,1,0,0,1,.81-1.08,1,1,0,0,1,1.08.81c1.84,13.19,2.58,28.52,3.3,43.35,1.5,30.89,2.92,60.06,13.64,65.14,15.76,7.46,57.3-7,64.28-19.7a28.36,28.36,0,0,1,10.5-11.29c2.42-1.59,3.88-2.54,4.24-5.4.86-6.84,0-57,0-57.53a1,1,0,0,1,.94-1h0a1,1,0,0,1,1,.94c0,2.07.87,50.82,0,57.8-.46,3.73-2.5,5.07-5.09,6.76a26.35,26.35,0,0,0-9.87,10.62C281.56,339,252.76,350.87,233,350.87Z"/><ellipse class="cls-5" cx="135.59" cy="365.59" rx="48.69" ry="13.23"/><ellipse class="cls-5" cx="355.8" cy="361.66" rx="41.05" ry="7.88"/><path class="cls-6" d="M95,180.26a.88.88,0,0,1-.52.29L85.38,191l-1.06-.92,9.05-10.42a.91.91,0,0,1,.22-.55l2.07-2.69a.49.49,0,0,1,.7,0l.84.73a.5.5,0,0,1,0,.7Z"/><path class="cls-5" d="M83.52,194.88l-.07-.06-2,2.35a1.43,1.43,0,0,1-.31,1.21l-2.39,3.48a9.36,9.36,0,0,1-1.38,1.57l-3.07,2.82a1.42,1.42,0,0,1-2,.14l-1.41-1.23a1.42,1.42,0,0,1-.14-2l2.41-3.39a9.64,9.64,0,0,1,1.14-1.33l3.29-3.15a1.41,1.41,0,0,1,1.16-.47l2-2.34-.06-.06A1,1,0,0,1,82,190.91l.06.05.7-.8a1.7,1.7,0,0,1,2.39-.17l.12.11a1.69,1.69,0,0,1,.17,2.39l-.7.8.07.06a1,1,0,0,1-1.33,1.53Z"/><path class="cls-6" d="M85.15,196.74l-.63,1.13.73.75.58-1s0,.16.33.3l.08,0c.27.18.42.12.42.12l-.57,1,1,.25.64-1.13-.2-.37a1.6,1.6,0,0,0,.46-.9h.19l.55-.82.65-3.33-.47-.26-2.52,2.27-.41.9.1.15a1.63,1.63,0,0,0-.53.86Zm1.44,0a.22.22,0,0,1,.31-.08.23.23,0,0,1,.08.3.23.23,0,0,1-.31.09A.23.23,0,0,1,86.59,196.77Zm1.49-2.71c.17-.3.41-.49.54-.42s.08.37-.09.67-.41.49-.53.42S87.91,194.36,88.08,194.06Z"/><path class="cls-5" d="M85.62,199.58a.57.57,0,0,1,.66-.54h1s.31-.13.29.28a.62.62,0,0,0,.51.74c.4.13.3.34,0,.4a4.31,4.31,0,0,1-.73,0s-.34.05-.4.54a48.23,48.23,0,0,1-1.15,6.13,22.9,22.9,0,0,1-1.49,3,.65.65,0,0,1-.6.23c-.43,0-.79-.07-.83-.62s.21-.8.52-1.22a6.52,6.52,0,0,0,1-2.15C84.54,205.64,85.62,199.58,85.62,199.58Z"/><path class="cls-5" d="M85.09,199.28a.58.58,0,0,0,.13-.85l-.51-.85s0-.34-.4-.11a.61.61,0,0,1-.89-.05c-.32-.27-.45-.09-.33.21a3.46,3.46,0,0,0,.34.65s.14.31-.25.61a48.77,48.77,0,0,0-4.66,4.16,22.36,22.36,0,0,0-1.81,2.83.63.63,0,0,0,.11.63c.25.36.47.64,1,.4s.57-.6.77-1.08a6.57,6.57,0,0,1,1.33-2C80.46,203.34,85.09,199.28,85.09,199.28Z"/><rect class="cls-6" x="98.02" y="203.12" width="13.34" height="19.78" rx="2.99" transform="translate(91.12 449.97) rotate(-150.55)"/><rect class="cls-10" x="102.84" y="206.18" width="8.74" height="5.37" rx="1.95" transform="translate(97.87 443.45) rotate(-150.55)"/><rect class="cls-11" x="76.39" y="193.74" width="48.77" height="3.37" transform="translate(92.43 415.15) rotate(-150.55)"/><path class="cls-5" d="M92.75,206.15a.64.64,0,0,1,.8-.53l1.11.1s.36-.11.29.35a.7.7,0,0,0,.48.88c.43.19.3.41-.05.43a4.23,4.23,0,0,1-.82,0s-.38,0-.5.55a54.44,54.44,0,0,1-2,6.71,26,26,0,0,1-2,3.18.71.71,0,0,1-.69.19c-.48-.08-.87-.17-.86-.78s.33-.87.72-1.3a7.31,7.31,0,0,0,1.35-2.28C90.87,212.77,92.75,206.15,92.75,206.15Z"/><path class="cls-5" d="M92.52,206a.64.64,0,0,0,0-1l-.67-.89s-.09-.37-.44-.07a.7.7,0,0,1-1,0c-.39-.27-.51,0-.35.27a4.31,4.31,0,0,0,.46.68.6.6,0,0,1-.21.71A53.07,53.07,0,0,0,85.63,211a25.57,25.57,0,0,0-1.7,3.36.75.75,0,0,0,.2.69c.32.36.59.66,1.11.33s.58-.73.74-1.28a7.25,7.25,0,0,1,1.26-2.35C87.82,211.06,92.52,206,92.52,206Z"/><path class="cls-6" d="M95.4,203.84l.67-1.21L98,197l-.22-.12h0l-.23-.13-3.84,4.61-.68,1.2.28.16c-.53.25-.46,1-.46,1l-.23-.13-.51.91s.61,1,.61,1l.57-1,.15.09h0l.16.09-.57,1s1.1,0,1.13,0l.52-.91-.23-.13s.7-.34.64-.92Zm-1.21-.12a.25.25,0,0,1-.33.09.23.23,0,0,1-.09-.33.25.25,0,0,1,.33-.09A.25.25,0,0,1,94.19,203.72Z"/><path class="cls-8" d="M82.17,180a2.15,2.15,0,0,1,.82,2.93l-8.45,15L113,219.61l8.45-15a2.15,2.15,0,1,1,3.74,2.11l-18,31.78a2.14,2.14,0,0,1-2.92.81,2.33,2.33,0,0,1-.26-.17v0l-42.47-24,.05-.08a2.16,2.16,0,0,1-.33-2.54l18-31.78A2.15,2.15,0,0,1,82.17,180Z"/><path class="cls-10" d="M103.75,218l.87.4c1.85-4,1.35-6,.6-6.89a3.18,3.18,0,0,0-5.2,1.1l.93.21a2,2,0,0,1,1.54-1.22,1.93,1.93,0,0,1,2,.52C105,212.65,105.48,214.18,103.75,218Z"/><path class="cls-10" d="M98.07,223.07a2.75,2.75,0,0,1,.15-.36l2-3.54a3.14,3.14,0,1,1,5.47,3.1l-2,3.53a2.62,2.62,0,0,1-.23.32Z"/><path class="cls-10" d="M100.43,228.63a.47.47,0,0,0,.63-.18l1.62-2.87a.47.47,0,0,0-.18-.63.46.46,0,0,0-.62.18L100.25,228A.47.47,0,0,0,100.43,228.63Z"/><path class="cls-10" d="M97.49,227a.46.46,0,0,0,.63-.18l1.62-2.87a.46.46,0,0,0-.8-.45l-1.62,2.87A.46.46,0,0,0,97.49,227Z"/><path class="cls-6" d="M73.8,201.82l4.17-2.4a1.38,1.38,0,0,1,1.49.07h0l3,1.69,4.6,2.6a6.55,6.55,0,0,1,2,1.27,2.22,2.22,0,0,1,.17,1.1L87,215a1.44,1.44,0,0,1-1.57,1.12,1.47,1.47,0,0,1-.47-.17,1.39,1.39,0,0,1-.66-1.53l.59-2.38c0-.42.06-1.45-.61-.05a1.21,1.21,0,0,1-.19.31L82.74,216a1.39,1.39,0,0,1-1.78.81l-.19-.1a1.36,1.36,0,0,1-.62-1.68l1.63-4.36c.2-.58.54-1.62-.35,0l-2.05,4.1a1.37,1.37,0,0,1-1.85.61l-.06,0a1.38,1.38,0,0,1-.56-1.82l2.24-4.47c.1-.26.3-.85.17-.9s-.47.21-.87.55l-3,3.36a1.38,1.38,0,0,1-1.7.28,1.24,1.24,0,0,1-.23-.17,1.46,1.46,0,0,1,0-2l5.71-6.31a.85.85,0,0,0-1-1.3l-2.92,1.68a1.39,1.39,0,0,1-1.88-.51A1.38,1.38,0,0,1,73.8,201.82Z"/><path class="cls-16" d="M175.32,119.58s-37,21.55-43.39,26.8S107.06,184,104.58,185.9s-7.47,5.8-7.47,8.84,1.39,5.8,6.08,5.25,6.36-8.57,8.29-11.33,24-28.74,27.64-31.5,21-9.12,21-9.12Z"/><path class="cls-17" d="M175.32,119.58s-14.77,8.59-27.25,16.25c.67,5.43,2,12.3,4.31,15l.15.14c4.14-1.64,7.59-2.9,7.59-2.9Z"/><path class="cls-18" d="M175,120.18l-.82.07c-1.94,1.13-6.17,3.61-11.27,6.64-3.61,5.17-8.81,12.91-12.36,20.52a10.83,10.83,0,0,0,1.84,3.39l.15.14c4.14-1.64,7.59-2.9,7.59-2.9Z"/><path class="cls-16" d="M315.84,139.54c-.19.55-27.8,36.57-49.16,35.08,0,0-14-.14-10.74,5.79s9.95-.09,11.61-.44,32.24.13,49.95-20.89C333.34,140.28,315.84,139.54,315.84,139.54Z"/><path class="cls-19" d="M269.52,174.58a20.73,20.73,0,0,1-2.84,0s-14-.14-10.74,5.79a4.63,4.63,0,0,0,2.81,2.44C264.75,184,270.75,176.49,269.52,174.58Z"/><path class="cls-8" d="M315.84,139.54A126.71,126.71,0,0,1,305,152.13c1.25,4.11,3.44,9.45,6.9,12.56a49.3,49.3,0,0,0,5.58-5.61C333.34,140.28,315.84,139.54,315.84,139.54Z"/><path class="cls-20" d="M315.84,139.54a91.18,91.18,0,0,1-5.81,7.13c-.1,3.61-1.32,7.64-.34,10.4.75,2.14,3,4.31,3.78,6.23a47.58,47.58,0,0,0,4-4.22C333.34,140.28,315.84,139.54,315.84,139.54Z"/><path class="cls-16" d="M124.07,352.07s-.57,3.86.49,5.18c.88,1.08,7.91,1.79,12.08,3.09,1.69.53,4.24,1.66,4.39,3.42.09,1.07-2.47,2.3-4.21,2.24l-12.52-.47-2.77-.48a3,3,0,0,0-.59,0l-2.79.05c-1.2,0-3-.41-3.36-1.54a10.11,10.11,0,0,1,.21-5.71c1-2,.31-8.28.31-8.28Z"/><path class="cls-21" d="M141,363.76c-.15-1.76-2.7-2.89-4.39-3.42-4.1-1.28-10.95-2-12-3-2.33,1.05-6.23,2.24-9.66.59a10.22,10.22,0,0,0-.18,5.63c.4,1.13,2.16,1.56,3.36,1.54l2.79-.05a3,3,0,0,1,.59,0l2.77.48,12.52.47C138.56,366.06,141.12,364.83,141,363.76Z"/><path class="cls-16" d="M154.87,352.34s-.43,3.88.69,5.15c.92,1.05,8,1.5,12.18,2.65,1.7.47,4.3,1.49,4.52,3.25.13,1.07-2.39,2.39-4.13,2.39H155.6l-2.79-.37a2.32,2.32,0,0,0-.59,0l-2.79.15c-1.19.07-3-.3-3.41-1.41a10.26,10.26,0,0,1,0-5.71c1-2.08,0-8.29,0-8.29Z"/><path class="cls-21" d="M172.26,363.39c-.22-1.76-2.82-2.78-4.52-3.25-4.14-1.13-11-1.58-12.12-2.59-2.28,1.13-6.14,2.47-9.62.95a10.26,10.26,0,0,0,0,5.63c.45,1.11,2.22,1.48,3.41,1.41l2.79-.15a2.32,2.32,0,0,1,.59,0l2.79.37h12.53C169.87,365.78,172.39,364.46,172.26,363.39Z"/><path class="cls-21" d="M318.65,131.45s5.53-5.5,2.81-7.18c-4.25-2.62-5.67-9.65-5.36-12.71.4-3.88,2.82-12.59,5.79-16.48.8-1,4.64-3.46,8.15-3.93a17.63,17.63,0,0,1,9,1.33c9,3.66,10.91,6.56,16.81,10.24C361,105.93,364,106,371,101.63c10.61-6.71,29.09-5.91,23.56,11.78-3,9.64-16.61,37.28-39,24.13-13.6-8-14-2.13-21.22-.61S318.65,131.45,318.65,131.45Z"/><path class="cls-16" d="M327,118.47s-.14,8.29-3.59,10.09-7.19,3.45-8.29,6.91-4,14.09-3.18,17.27,3.87,7.18,7.46,13.4,8.77,14.19,8.64,19.72-3.37,24.71-2,25.68,2.88.88,7.3.88,26.12-.41,34.41-13.95c0,0,.33-.17.47-1s-14.29-22.21-16.92-29.4a37.32,37.32,0,0,1-1.93-14.5s35.51,21.69,46.56,46c0,0,.28-.13,0,3.18s5.36,14.41,8.54,11.37c2.61-2.5.93-10-1.19-15-.46-1.08-3.48-3.38-5.41-7.67,0,0-11.89-23.07-19.76-31.08s-24.46-27.78-35.09-31.23a8.31,8.31,0,0,1-7.33-3.73l-.55-9.81Z"/><path class="cls-17" d="M326.37,207.87l11.24,139.86h7.74s11.79-96.16,8.84-120.11S326.37,207.87,326.37,207.87Z"/><path class="cls-16" d="M337.75,347.48a29.85,29.85,0,0,1,.78,6.41c-.13,2.42-10.73,5.1-11.84,6.15s-1.31,1.64-.72,2.23a10.36,10.36,0,0,0,8,1.5c4.12-.85,6.22-1.63,8.05-.46s4.84-.52,4.71-1.83.26-3.66-2.09-5.63a22.79,22.79,0,0,1,.66-8.12C346.52,343.68,337.75,347.48,337.75,347.48Z"/><path class="cls-6" d="M342.07,363.31c1.83,1.18,4.84-.52,4.71-1.83a9.67,9.67,0,0,0-.61-3.76c-2.66-.43-6.95,1.84-10.13,1.16a4.33,4.33,0,0,1-2.7-1.55c-2.91,1.17-6.07,2.16-6.65,2.71-1.11,1-1.31,1.64-.72,2.23a10.36,10.36,0,0,0,8,1.5C338.14,362.92,340.24,362.14,342.07,363.31Z"/><path class="cls-16" d="M372.9,346a30.27,30.27,0,0,1,2.58,5.92c.57,2.36-8.83,8-9.6,9.28s-.79,1.94-.05,2.33a10.32,10.32,0,0,0,8.14-.85c3.71-2,5.49-3.34,7.59-2.73s4.49-1.88,4-3.1-.79-3.59-3.61-4.8a22.69,22.69,0,0,1-1.68-8C380.23,339.9,372.9,346,372.9,346Z"/><path class="cls-6" d="M381.56,360c2.09.61,4.49-1.88,4-3.1a9.78,9.78,0,0,0-1.66-3.42c-2.67.34-6.13,3.74-9.37,4a4.39,4.39,0,0,1-3-.7c-2.46,1.94-5.21,3.8-5.61,4.49-.77,1.32-.79,1.94-.05,2.33a10.32,10.32,0,0,0,8.14-.85C377.68,360.73,379.46,359.38,381.56,360Z"/><path class="cls-10" d="M333.61,207.79l.08.29c1.89,6.91,37.22,135.59,39,138.73,0,0,7.74-1.57,8.11-1.57s-10.32-116-12.53-126.37.83-14.92.46-17.87-.37-4.05-3-6.91-32.07,13.8-32.07,13.8"/><path class="cls-19" d="M335.31,119.21a.59.59,0,0,1,.06-.14l-.2-3.5-8.15,2.9a24.84,24.84,0,0,1-1.09,6.53C327.94,124.69,333.37,123.46,335.31,119.21Z"/><path class="cls-16" d="M333,100c-2.31,6.35,1.38,9.85,2.48,11.14.92,1.07,1.84.46,2.58,1.2s-.18,2-.28,3-2.11,2.49-2.11,1.93-.83-.55-.83-.55l-1.75.74c-4.15,3-11.33,3-12.71,1.38s-1.94-8,.55-13.82a10.61,10.61,0,0,1,2-3.05,12.44,12.44,0,0,0,6.57-.36A15,15,0,0,0,333,100Z"/><path class="cls-8" d="M367.59,149.11c-8-8.4-17.55-17.73-24.54-20a8.78,8.78,0,0,1-4-.8c-.05.08-.1.15-.14.23-6.42,12.84-15.13,14.22-17,10.09-1.07-2.41-.63-6.31-.05-9.28-3,1.53-5.81,3.17-6.75,6.12-1.11,3.45-4,14.09-3.18,17.27s3.87,7.18,7.46,13.4,8.77,14.19,8.64,19.72-3.37,24.71-2,25.68,2.88.88,7.3.88,26.12-.41,34.41-13.95c0,0,.33-.17.47-1s-14.29-22.21-16.92-29.4a37.32,37.32,0,0,1-1.93-14.5s4.61,2.82,11,7.55C363.32,158.61,365.81,153.59,367.59,149.11Z"/><path class="cls-16" d="M199.45,102.17s-6.82,12.53-14.74,13.45-12.71,4.6-15.11,7.55-30.76,47.16-33.15,53.24-4.61,16.39-4.61,26.89,12.16,64.3,12.53,75.9,1.1,73.14,1.1,73.14-.55,1.47,3.32,1.47,7.92.55,8.66-.55,7.92-54,9.39-70.56,5.16-75.9,4-86.4c-.36-3.68,10.69-14.55,10.69-14.55s13.63-11.61,17.87-19.16,4.09-27.2,4.09-33.28-1.41-7.76-.49-10.52a5.48,5.48,0,0,1,2.95-3.5l-4.89-13.67Z"/><path class="cls-21" d="M132.57,203.47s-5.7,63.15-9.49,74.55-8.49,35.23-9,51.19c-.46,13.12-.46,19.66-.43,22.29a1.56,1.56,0,0,0,1.48,1.54l9.08.48s4.18-22,9.38-45.31c3.2-14.39,8-20.86,10.79-31.81S152,212.28,152,212.28l-13.27-17.8Z"/><path class="cls-10" d="M199.45,162.59c4.23-7.55,4.09-27.2,4.09-33.28-8.2-1.68-13.07-11.12-14.8-15.12a10.61,10.61,0,0,1-4,1.43c-7.92.92-12.71,4.6-15.11,7.55s-30.76,47.16-33.15,53.24a76.17,76.17,0,0,0-4.37,20.76l39,9.66c.08-4.84,0-8.55-.17-10.53-.36-3.68,10.69-14.55,10.69-14.55S195.21,170.14,199.45,162.59Z"/><path class="cls-6" d="M196.32,134c-2.77-15.2-14.1-14.93-14.1-14.93-9.5-1.78-13.46,6.74-16.69,10.16a.64.64,0,0,0-.1.13c-8.58,13-27.07,42.24-29,47.1-2.4,6.08-4.61,16.39-4.61,26.89s12.16,64.3,12.53,75.9,1.1,73.14,1.1,73.14-.55,1.47,3.32,1.47,7.92.55,8.66-.55,7.92-54,9.39-70.56,5.16-75.9,4-86.4c-.35-3.57,10.05-13.91,10.66-14.52l.06-.05A147.75,147.75,0,0,0,195,168.61a1.07,1.07,0,0,0,.13-1.24l-2.91-5.24a1.1,1.1,0,0,1,0-1C193.49,158.62,198.75,147.34,196.32,134ZM185,158.54c-1.31,1.68-9.45,12.35-14.58,19.07a7.64,7.64,0,0,1-10.11,1.84h0a7.64,7.64,0,0,1-3.17-9l11.26-32.62,0-.08c.22-.87,4.34-16.38,10.79-15.84,6.63.55,10.2,5.93,10.2,12.28S186.92,156.05,185,158.54Z"/><path class="cls-19" d="M206,115.29,204.47,111,201,107s-1.48.42-2.53,6.54c-.58,3.38,2.06,7.08,4.53,9.71a8.53,8.53,0,0,1,0-4.41A5.48,5.48,0,0,1,206,115.29Z"/><path class="cls-16" d="M221.49,100.75s-2,17.51-10.15,18.33c-1.34.13-5.23-.65-8.83-4.58s-3.6-8.67-3.6-11,.16-6.55,1.47-8.35,10.31-4.42,14.4-2.94S221.49,99.45,221.49,100.75Z"/><path class="cls-21" d="M213.63,97s-.81,8.51-2.94,5.73-3.27-2-3.93-1-.49,4.41-1.63,5.23-6.06-.16-6.22-2.45-.16-7.2.65-8,8-1,8-1Z"/><path class="cls-8" d="M198.58,99s20.62,2.13,22.58,3.28,4.42-11.46-6.54-14.73S199.07,92.25,198.58,99Z"/><path class="cls-22" d="M220.51,105.66a7.87,7.87,0,0,0-4.26-4.41c-3.11-1.15,12.6,0,12.6,0s5.73,0,4.75,4.09c0,2.12-2.46,2.12-5.4,1.8S220.51,105.66,220.51,105.66Z"/><circle class="cls-10" cx="336.38" cy="118.14" r="1.67"/><path class="cls-20" d="M349.4,153.57l.59.36a5.2,5.2,0,0,0-2.8-3.13c-3.32-1.38-4.42,6.91-3.87,10.23s3.87,13.81,6.63,18.23c2.14,3.43,13.23,14.15,18.13,18.8a2.24,2.24,0,0,0,.17-.59c.14-.83-14.29-22.21-16.92-29.4A37.32,37.32,0,0,1,349.4,153.57Z"/><path class="cls-23" d="M177.53,121.51s-6.91,6.36-6.64,13,11.61,30.95,18.24,37.86c.41.43.83.83,1.25,1.21,3.53-3.56,7.21-7.66,9.07-11C202.2,157.69,177.53,121.51,177.53,121.51Z"/><path class="cls-16" d="M260,171.82c-3.27.28-8.27,2.18-11,2-13.78-1-38-8.79-41.72-12.29s-6.92-11.14-6.92-11.14-6.54-24.66-17.14-28.5-9.36,10.32-7.95,15.37,12.39,29.39,21,34.51,32.66,11,45.42,10.26l0-.06a71.4,71.4,0,0,1,8.52.76c3.08.59,8.85.61,11.94-.79a13.87,13.87,0,0,0,3.29-2.33,6.49,6.49,0,0,0,.92-3.81C266.43,173.28,261.14,171.72,260,171.82Z"/><path class="cls-10" d="M200.05,149.32c-1.4-4.8-7.56-24.08-16.83-27.43-10.6-3.85-9.36,10.32-7.95,15.37.85,3,5.16,13.05,10.33,21.67C192.9,157.66,198,152,200.05,149.32Z"/><path class="cls-10" d="M326.93,114l-6.08-2.76S319.93,119.12,326.93,114Z"/><path class="cls-10" d="M216.76,114.14l-.37-.15-5.52-2.24S210.87,119.3,216.76,114.14Z"/><use transform="translate(276.02 251.3) scale(0.02)" xlink:href="#image"/><use transform="translate(278.91 223.28) scale(0.02 0.02)" xlink:href="#image"/><use transform="translate(313.74 255.61) scale(0.01)" xlink:href="#image"/><use transform="translate(310.11 221.09) scale(0.02 0.02)" xlink:href="#image"/><use transform="translate(295.1 221.75) scale(0.01)" xlink:href="#image"/></g></g></g></svg>