<svg xmlns="http://www.w3.org/2000/svg" viewBox="0 0 48.83 55.95"><defs><style>.cls-1{fill:#f5adad;}</style></defs><title>Stars</title><g id="Слой_2" data-name="Слой 2"><g id="Слой_1-2" data-name="Слой 1"><g id="star"><path id="Path_5766" data-name="Path 5766" class="cls-1" d="M43.92,3.12l-2.68-.41L40,.14a.29.29,0,0,0-.39-.1.27.27,0,0,0-.11.1l-1.2,2.57-2.69.41a.27.27,0,0,0-.23.31.31.31,0,0,0,.08.15l2,2L37,8.4a.29.29,0,0,0,.23.32.32.32,0,0,0,.17,0l2.4-1.33,2.4,1.33a.28.28,0,0,0,.37-.11.29.29,0,0,0,0-.18l-.46-2.82,1.95-2a.28.28,0,0,0,0-.39.26.26,0,0,0-.15-.07Z"/></g><g id="star-2" data-name="star"><path id="Path_5766-2" data-name="Path 5766" class="cls-1" d="M40.7,51l-2.39-.37-1.07-2.28a.25.25,0,0,0-.34-.09.22.22,0,0,0-.1.09L35.73,50.6,33.34,51a.24.24,0,0,0-.2.27.27.27,0,0,0,.07.14l1.73,1.77-.41,2.52a.25.25,0,0,0,.2.28.29.29,0,0,0,.16,0L37,54.74l2.13,1.18a.24.24,0,0,0,.33-.1.2.2,0,0,0,0-.15l-.41-2.52,1.73-1.77a.24.24,0,0,0,0-.35A.22.22,0,0,0,40.7,51Z"/></g><g id="star-3" data-name="star"><path id="Path_5766-3" data-name="Path 5766" class="cls-1" d="M48.67,31.51l-1.93-.29-.86-1.84a.2.2,0,0,0-.28-.08.2.2,0,0,0-.08.08l-.86,1.84-1.93.29a.19.19,0,0,0-.16.22.16.16,0,0,0,0,.11L44,33.28l-.33,2a.2.2,0,0,0,.29.2l1.72-.95,1.72.95a.2.2,0,0,0,.27-.08.17.17,0,0,0,0-.12l-.33-2,1.4-1.44a.2.2,0,0,0,0-.28.31.31,0,0,0-.1,0Z"/></g><g id="star-4" data-name="star"><path id="Path_5766-4" data-name="Path 5766" class="cls-1" d="M9.83,10.66l-1.93-.3L7,8.52a.2.2,0,0,0-.28-.07.18.18,0,0,0-.08.07l-.86,1.84-1.93.3a.19.19,0,0,0-.16.22.16.16,0,0,0,0,.11l1.4,1.43-.33,2a.2.2,0,0,0,.16.23.19.19,0,0,0,.13,0l1.72-1,1.72,1a.19.19,0,0,0,.27-.07.2.2,0,0,0,0-.13l-.33-2L9.94,11a.2.2,0,0,0,0-.28.16.16,0,0,0-.11-.05Z"/></g><g id="star-5" data-name="star"><path id="Path_5766-5" data-name="Path 5766" class="cls-1" d="M7.06,35.32,4.83,35l-1-2.13a.24.24,0,0,0-.32-.09.2.2,0,0,0-.09.09L2.42,35l-2.23.34a.23.23,0,0,0-.19.26.27.27,0,0,0,.06.12l1.62,1.66L1.3,39.71a.23.23,0,0,0,.19.26.17.17,0,0,0,.14,0l2-1.1,2,1.1a.22.22,0,0,0,.3-.09.17.17,0,0,0,0-.14l-.38-2.35L7.19,35.7a.23.23,0,0,0,0-.32.27.27,0,0,0-.12-.06Z"/></g></g></g></svg>