<svg xmlns="http://www.w3.org/2000/svg" viewBox="0 0 199.67 163.8"><defs><style>.cls-1,.cls-7{fill:#f5afaf;}.cls-1,.cls-4{opacity:0.4;}.cls-1{isolation:isolate;}.cls-2{fill:none;stroke:#ed6e6d;stroke-linecap:round;stroke-linejoin:round;stroke-width:2px;}.cls-3{fill:#ef7c80;}.cls-5{fill:#df535e;}.cls-6{fill:#fff;}.cls-8{fill:#115f5c;}.cls-9{fill:#6ac2c1;}.cls-10{fill:#f5adad;}</style></defs><title>table</title><g id="Слой_2" data-name="Слой 2"><g id="Слой_1-2" data-name="Слой 1"><g id="Group_2" data-name="Group 2"><g id="Slide4"><g id="Слой_2-2" data-name="Слой 2"><g id="Слой_1-3" data-name="Слой 1"><path id="Path_1" data-name="Path 1" class="cls-1" d="M94.06,147.7c6.6-1.31,10.61-3,10.61-4.92,0-4.09-18.87-7.41-42.14-7.41s-42.14,3.32-42.14,7.41c0,2.29,5.89,4.33,15.14,5.69C14.25,149.83,0,152.3,0,155.13c0,4.29,32.71,7.77,73.07,7.77s73.06-3.48,73.06-7.77C146.13,151.62,124.18,148.65,94.06,147.7Z"/><line id="Line_1" data-name="Line 1" class="cls-2" x1="77.47" y1="88.19" x2="89.75" y2="144.85"/><line id="Line_2" data-name="Line 2" class="cls-2" x1="50.14" y1="90.95" x2="41.61" y2="147.61"/><line id="Line_3" data-name="Line 3" class="cls-2" x1="43.37" y1="87.19" x2="32.84" y2="142.84"/><line id="Line_4" data-name="Line 4" class="cls-2" x1="85.99" y1="85.18" x2="99.28" y2="144.35"/><path id="Path_4" data-name="Path 4" class="cls-3" d="M43.63,2.05c-5.6,3.43-12,13-12,38.63,0,45.88,13.54,53,34.22,51.14s26.33-12,27.46-18.8c1-6.13-4.75-66.24-32.11-72.5C58.44-.13,48.07-.65,43.63,2.05Z"/><g id="Group_1" data-name="Group 1" class="cls-4"><path id="Path_5" data-name="Path 5" class="cls-5" d="M47.84,60.61a10,10,0,0,1-10-9.34c-.19-2.93-.28-6.11-.28-9.57,0-20.76,5.14-28.49,9.67-31.27,3.57-2.19,12-1.76,14.27-1.23,13.93,3.18,20.94,23.61,24,39.57a10,10,0,0,1-9.8,11.84Z"/><path id="Path_6" data-name="Path 6" class="cls-5" d="M86.43,66.63A.83.83,0,0,1,87,67a2,2,0,0,1,.36,1.68A12.73,12.73,0,0,1,87,70c-1.7,5.27-7,11.76-21.7,13.09-10.65,1-18.95-1-23.59-12.15a3.12,3.12,0,0,1,2.85-4.32Z"/></g><path id="Path_7" data-name="Path 7" class="cls-6" d="M95.24,18.73H49.37a2.63,2.63,0,0,0-2.63,2.62l5.68,29.27a2.63,2.63,0,0,0,2.63,2.62H90.43a2.63,2.63,0,0,0,2.62-2.62l4.81-29.27A2.64,2.64,0,0,0,95.24,18.73Z"/><ellipse id="Ellipse_2" data-name="Ellipse 2" class="cls-7" cx="72.3" cy="36.21" rx="5.46" ry="2.18"/><rect id="Rectangle_11" data-name="Rectangle 11" class="cls-8" x="10.05" y="51.5" width="120.57" height="5.24"/><path id="Path_8" data-name="Path 8" class="cls-8" d="M130.63,157.47a2,2,0,0,1-2-1.71L114.23,57a2,2,0,0,1,4-.58l14.4,98.73a2,2,0,0,1-1.69,2.27h0Z"/><path id="Path_9" data-name="Path 9" class="cls-8" d="M10.05,157.47H9.76a2,2,0,0,1-1.69-2.27h0L22.49,56.47a2,2,0,1,1,4,.58L12,155.76A2,2,0,0,1,10.05,157.47Z"/><rect id="Rectangle_12" data-name="Rectangle 12" class="cls-6" x="166.42" y="47.37" width="19.22" height="25.77" rx="2.62"/><rect id="Rectangle_13" data-name="Rectangle 13" class="cls-9" x="171.22" y="53.48" width="9.61" height="13.54" rx="2.62"/><path id="Path_10" data-name="Path 10" class="cls-9" d="M107.63,163.8c-4.75,0-9-.68-12.22-2.23C83.66,156,82.22,126.28,80.69,94.8,80,80,79.23,64.73,77.4,51.63a1,1,0,0,1,1.89-.27c1.84,13.19,2.58,28.52,3.3,43.35,1.5,30.89,2.92,60.06,13.64,65.14,15.76,7.46,57.3-7,64.28-19.7A28.32,28.32,0,0,1,171,128.86c2.42-1.59,3.88-2.54,4.24-5.4.86-6.84,0-57,0-57.53a1,1,0,0,1,.94-1h0a1,1,0,0,1,1,.94c0,2.07.87,50.82,0,57.8-.46,3.73-2.5,5.07-5.09,6.76a26.36,26.36,0,0,0-9.87,10.62C156.19,151.93,127.39,163.8,107.63,163.8Z"/></g></g></g></g><g id="star"><path id="Path_5766" data-name="Path 5766" class="cls-10" d="M194.76,36.82l-2.69-.41-1.2-2.56a.29.29,0,0,0-.39-.11.35.35,0,0,0-.1.11l-1.21,2.56-2.68.41a.28.28,0,0,0-.23.31.28.28,0,0,0,.08.15l1.95,2-.47,2.83a.27.27,0,0,0,.23.31.25.25,0,0,0,.17,0l2.4-1.32,2.4,1.32a.27.27,0,0,0,.37-.11.25.25,0,0,0,0-.17L193,39.28l1.95-2a.26.26,0,0,0,0-.38.31.31,0,0,0-.15-.08Z"/></g><g id="star-2" data-name="star"><path id="Path_5766-2" data-name="Path 5766" class="cls-10" d="M191.53,84.67l-2.38-.36L188.08,82a.26.26,0,0,0-.35-.1.28.28,0,0,0-.09.1l-1.07,2.28-2.39.36a.25.25,0,0,0-.2.28.2.2,0,0,0,.06.13l1.74,1.78-.41,2.51a.24.24,0,0,0,.2.28.25.25,0,0,0,.15,0l2.14-1.18L190,89.63a.25.25,0,0,0,.33-.1.41.41,0,0,0,0-.16l-.41-2.51,1.73-1.78a.25.25,0,0,0,0-.34.27.27,0,0,0-.14-.07Z"/></g><g id="star-3" data-name="star"><path id="Path_5766-3" data-name="Path 5766" class="cls-10" d="M199.5,65.22l-1.92-.3-.87-1.84a.2.2,0,0,0-.28-.07.16.16,0,0,0-.07.07l-.87,1.84-1.92.3a.19.19,0,0,0-.17.22.24.24,0,0,0,.06.11l1.4,1.43-.33,2a.2.2,0,0,0,.16.23.18.18,0,0,0,.12,0l1.73-.95,1.72,1a.2.2,0,0,0,.26-.08.19.19,0,0,0,0-.13l-.33-2,1.4-1.43a.19.19,0,0,0,0-.28.16.16,0,0,0-.11,0Z"/></g><g id="star-4" data-name="star"><path id="Path_5766-4" data-name="Path 5766" class="cls-10" d="M160.67,44.36l-1.93-.29-.87-1.84a.2.2,0,0,0-.27-.08.2.2,0,0,0-.08.08l-.86,1.84-1.93.29a.21.21,0,0,0-.17.23.21.21,0,0,0,.06.1l1.4,1.44-.33,2a.19.19,0,0,0,.16.22.16.16,0,0,0,.12,0l1.73-1,1.72,1a.2.2,0,0,0,.27-.08.25.25,0,0,0,0-.12l-.33-2,1.4-1.44a.19.19,0,0,0,0-.27.21.21,0,0,0-.1-.06Z"/></g><g id="star-5" data-name="star"><path id="Path_5766-5" data-name="Path 5766" class="cls-10" d="M157.89,69l-2.22-.35-1-2.12a.23.23,0,0,0-.41,0l-1,2.12L151,69a.21.21,0,0,0-.19.25.31.31,0,0,0,.06.13l1.62,1.66-.38,2.34a.23.23,0,0,0,.33.24l2-1.1,2,1.1a.23.23,0,0,0,.31-.09.26.26,0,0,0,0-.15l-.38-2.34L158,69.41a.22.22,0,0,0,0-.32.18.18,0,0,0-.13-.06Z"/></g></g></g></svg>