<svg xmlns="http://www.w3.org/2000/svg" viewBox="0 0 73.14 70.99"><defs><style>.cls-1{fill:#f3cdca;}.cls-2{fill:#f29291;}.cls-3{fill:#fff;}</style></defs><title>clock</title><g id="Слой_2" data-name="Слой 2"><g id="Слой_1-2" data-name="Слой 1"><path class="cls-1" d="M0,42C0,58,3,71,18.61,71S56.55,58,56.55,42,43.89,13,28.27,13,0,26,0,42Z"/><circle class="cls-2" cx="45.81" cy="27.33" r="27.33"/><circle class="cls-3" cx="45.81" cy="25.5" r="22.19"/><path class="cls-2" d="M43.16,22.78l-2,17.48a.2.2,0,0,0,.39.09l6.15-16.49a2.08,2.08,0,0,0-1.49-2.77l-.47-.1A2.08,2.08,0,0,0,43.16,22.78Z"/><path class="cls-2" d="M44.88,25.57,59,26.84a.2.2,0,0,0,.09-.39L46,21.07a2.08,2.08,0,0,0-2.77,1.49l-.1.47A2.1,2.1,0,0,0,44.88,25.57Z"/></g></g></svg>