<svg xmlns="http://www.w3.org/2000/svg" viewBox="0 0 58.9 144.59"><defs><style>.cls-1{fill:#105e5b;}.cls-2{fill:#f5aeae;}.cls-3{fill:#f29291;}.cls-4{fill:#de525d;}.cls-5{fill:#f39b9f;}</style></defs><title>flowers</title><g id="Слой_2" data-name="Слой 2"><g id="Слой_1-2" data-name="Слой 1"><g id="Group_14" data-name="Group 14"><g id="Group_11" data-name="Group 11"><path id="Path_39" data-name="Path 39" class="cls-1" d="M31.4,83.89c2.4-.9,2.9-4.2,1.9-6.5s-3.2-3.9-5-5.6-3.5-4-3.3-6.5c.2-2.7,2.6-4.9,3-7.6,1-6-7.3-9.6-8.2-15.6-.5-3.1,1.2-6.3.2-9.3-.7-2-2.4-3.5-3.4-5.3a8.8,8.8,0,0,1-1-6.7c.5-2,1.5-4.3.1-5.8-1.2-1.3-3.6-.6-4.6.9s-1,3.5-.9,5.3a111.07,111.07,0,0,0,3.7,22.9c1,3.4,2,7.3.2,10.3-.5.8-1.1,1.4-1.5,2.2a4.74,4.74,0,0,0,2.32,6.28l.28.12c1.3.4,3.1.5,3.6,1.8s-.7,2.4-1.1,3.6a3.91,3.91,0,0,0,2.66,4.84,4,4,0,0,0,1.14.16c-.1,3.3.8,6.9,3.3,9.1s6.8,2.5,9,.1"/></g><g id="Group_12" data-name="Group 12"><path id="Path_40" data-name="Path 40" class="cls-2" d="M29.2,86.29c.6-1.9.1-4-.1-6s.2-4.3,1.9-5.5a24.92,24.92,0,0,1,3-1.3c3.6-1.7,4.3-6.5,3.8-10.4s-1.4-8.2.5-11.6c.8-1.4,1.9-2.5,2.7-3.9,2.1-3.8.8-8.4-.2-12.6s-1.1-9.4,2.4-12c1.4-1,3.5-1.3,4.6,0a3.75,3.75,0,0,1,.8,2.5,16.87,16.87,0,0,1-1.3,8c-.8,1.8-1.9,3.6-1.7,5.5.4,4.3,6.6,6.7,6.1,10.9-.4,3.2-4.6,5.1-4.6,8.4,0,2.6,2.8,4.4,3,7,.3,4.5-7.2,6.3-7.4,10.9-.1,1.3.5,2.8-.2,3.9a4.36,4.36,0,0,1-2.4,1.5c-3.1,1-6.2,2-9.2,3Z"/></g><g id="Group_13" data-name="Group 13"><path id="Path_41" data-name="Path 41" class="cls-3" d="M33.4,84.39c1.2-4.5,2.4-9.1,3.6-13.6,1.5-5.5,2.5-12.6-2.3-15.9-2.2-1.5-5.6-2.4-5.7-5-.1-1.4.9-2.7,1.8-3.8A29.21,29.21,0,0,0,37,26.39a5.62,5.62,0,0,0-.7-2.6,23.07,23.07,0,0,0-2.6-1.9,6,6,0,0,1-1.6-3.7,22.47,22.47,0,0,1,1.2-10.9c.8-2.2,1.9-4.9.3-6.5-2.1-2.2-5.9.6-6.7,3.6a12.45,12.45,0,0,0,1.7,10.1,8.75,8.75,0,0,1,1.6,2.8c.5,2.3-1.6,4.3-2.8,6.4A10.5,10.5,0,0,0,27.1,34a29.82,29.82,0,0,1,2.2,3.9c.9,2.6-.1,5.5-1.1,8.2-2.7,7.3-5.4,15.4-2.5,22.6a13.19,13.19,0,0,1,1.4,4.1c.1,2.4-1.6,4.4-1.9,6.8a5.86,5.86,0,0,0,3.3,5.9A5.71,5.71,0,0,0,35.1,84"/></g><path id="Path_42" data-name="Path 42" class="cls-4" d="M15.5,81.79a26.9,26.9,0,0,0-.4,4.2,21.54,21.54,0,0,0,6.2,15.5h19c3.8-3.5,6.2-9.2,6.2-15.5a19.74,19.74,0,0,0-.4-4.2Z"/></g><path id="Path_43" data-name="Path 43" class="cls-3" d="M56.2,144.59H2.7A2.7,2.7,0,0,1,0,141.91V103.69A2.68,2.68,0,0,1,2.68,101H56.2a2.68,2.68,0,0,1,2.7,2.68v38.22a2.69,2.69,0,0,1-2.68,2.7Z"/><path id="Path_44" data-name="Path 44" class="cls-5" d="M58.9,115.79H30.3V101H28.6v14.8H0v1.8H58.9Z"/><ellipse id="Ellipse_6" data-name="Ellipse 6" class="cls-2" cx="15.4" cy="108.69" rx="4.5" ry="1.6"/><ellipse id="Ellipse_7" data-name="Ellipse 7" class="cls-2" cx="44.4" cy="108.69" rx="4.5" ry="1.6"/></g></g></svg>