<svg xmlns="http://www.w3.org/2000/svg" xmlns:xlink="http://www.w3.org/1999/xlink" viewBox="0 0 132.28 186.68"><defs><style>.cls-1{fill:none;}.cls-2{isolation:isolate;}.cls-3{fill:#de535e;}.cls-4{fill:#f7e4e2;}.cls-5{clip-path:url(#clip-path);}.cls-6,.cls-7{fill:#f49a6e;}.cls-7{opacity:0.4;mix-blend-mode:multiply;}.cls-8{fill:#fff;}.cls-9{fill:#115f5c;}.cls-10{fill:#1d2827;}.cls-11{fill:#b96d6b;}</style><clipPath id="clip-path"><circle class="cls-1" cx="66.14" cy="66.14" r="51.74"/></clipPath></defs><title>man_location</title><g class="cls-2"><g id="Слой_2" data-name="Слой 2"><g id="Слой_1-2" data-name="Слой 1"><path class="cls-3" d="M76.39,180.75a11.84,11.84,0,0,1-20.51,0L10,101.11a66.14,66.14,0,1,1,111.86.7Z"/><circle class="cls-4" cx="66.14" cy="66.14" r="51.74"/><g class="cls-5"><path class="cls-6" d="M58.1,69.55,57,84S56,87.54,52.93,87.9s-19.41,3.56-19.41,3.56-16.57,3-21,22.44-3,53.79-3,53.79l113.46,1.78S124,123.88,119,110c-.21-.57-.43-1.14-.65-1.68A30.77,30.77,0,0,0,95.5,90.23l-12.76-2.4s-2.85-.36-3.2-4.46-.25-13.64-.25-13.64Z"/><path class="cls-7" d="M58.1,69.55l-.43,5.72c2.27,2.1,5.45,4.82,7.73,5.86,3.12,1.42,10.07.46,13.68-1.24a85.77,85.77,0,0,1,.21-10.16Z"/><path class="cls-8" d="M118.36,108.3A30.77,30.77,0,0,0,95.5,90.23l-12.76-2.4a3.51,3.51,0,0,1-2.09-1.32c-3.88,4.9-14,14.6-25.2.09a4.2,4.2,0,0,1-2.52,1.3c-3,.36-19.41,3.56-19.41,3.56s-16.57,3-21,22.44-3,53.79-3,53.79l113.46,1.78S124,123.88,119,110C118.8,109.41,118.58,108.84,118.36,108.3Z"/><path class="cls-9" d="M95.5,90.23l-8.28-1.56c-1.8,9.62-6,33.57-6.16,46.91l8.93.1c.14-12.49,4.26-35.93,6-45.34Z"/><path class="cls-9" d="M42.77,119.94c.48,13.68.55,16.07.55,16.44h0a4.47,4.47,0,0,0,4.51,4.53H48c3.33-.14,4.09-2.45,4.22-4.95h0c0-.83,0-1.69,0-2.49-.07-2.33-.21-6.5-.47-13.85-.62-17.61-2.71-28.15-3.34-31-2.67.48-6,1.11-8.79,1.64C39.94,91.9,42.14,102.17,42.77,119.94Z"/><rect class="cls-9" x="42.71" y="121.21" width="48.34" height="50.58"/><path class="cls-6" d="M69.32,76.14s11.93,2.32,15.14-19c0,0,2.67-.89,3.2-5a9.74,9.74,0,0,0-1.78-7L83.21,32.51,61,30.73,52.4,40.17l-.46,3.33c0,.36.07.85-.23,1-1.81,1.15-3.23,9.16,1,12.72C52.75,57.26,57.39,76.68,69.32,76.14Z"/><path class="cls-10" d="M59.17,37.85S75,35,79.29,38.39s2.82,13.75,4.63,13.71c4-.1,3.74-11.4,3.74-11.4L83.75,28.23l-26.19-3L51.15,35c-.39-.17-.48,15.64,2.14,17.63,1.22.93,2.14-1.06,2.31-3.38S55.78,38.92,59.17,37.85Z"/><path class="cls-11" d="M50.8,42.66h37S98.94,45.06,96,47C89,51.62,50.8,42.66,50.8,42.66h37"/><path class="cls-3" d="M87.84,42.66V30.93c0-7.83-6.7-14.24-14.89-14.24H65.69c-8.19,0-14.89,6.41-14.89,14.24V42.66Z"/></g></g></g></g></svg>