<svg xmlns="http://www.w3.org/2000/svg" viewBox="0 0 238.35 267.37"><defs><style>.cls-1{fill:#f29291;}.cls-2{fill:#1d2827;}.cls-3{fill:#f49a6e;}.cls-4{fill:#db4d58;}.cls-5{fill:#dc805b;}.cls-6{fill:#fff;}.cls-7{fill:#de535e;}.cls-8{fill:#115f5c;}.cls-9{fill:#b35a5d;}.cls-10{fill:#b96d6b;}</style></defs><title>man_with_table2</title><g id="Слой_2" data-name="Слой 2"><g id="Слой_1-2" data-name="Слой 1"><ellipse class="cls-1" cx="172.5" cy="241.09" rx="65.85" ry="17.89"/><ellipse class="cls-1" cx="80.26" cy="242.06" rx="80.26" ry="25.31"/><path class="cls-2" d="M189.15,20.05s3.2-1,3.5-4.1-.8-4.19-1.1-5.59,0-3.2-.5-4.8a6.82,6.82,0,0,0-4.11-4c-1.69-.4-7-1.24-10-.64s-3,2.19-3.33,4.48-3,4.27-2,5.37S189.15,20.05,189.15,20.05Z"/><polygon class="cls-3" points="140.76 223.48 140.04 232.07 147.92 231 148.28 222.94 140.76 223.48"/><path class="cls-2" d="M127.15,240.57c3.7-1.2,11.08-4.21,12.54-9.39l7.33-3.05s1-.53,2.15.72c1.79,2,1.43,5.81,1.79,7.06s-10.56,6-10.56,6a20.67,20.67,0,0,1-3.58,1.61c-9.82,3.47-12.16,0-12.16,0h0A3.69,3.69,0,0,1,127.15,240.57Z"/><path class="cls-4" d="M192.36,10.19s10.12,7.3,8.33,10.12-11.78-4-11.78-4l.25-5.25Z"/><path class="cls-2" d="M138.79,224.67l11-.23s16.22-46.53,17.65-51.78,6.21-20,10.5-22.43S211.56,140,211.56,140l-17.89-32.21-24.46,3.7-.83,8-18.14,23.38Z"/><path class="cls-5" d="M190.45,21s4.41,10.85,15.15,16.58,19.09,19.2,21.23,34.95c0,0,.82,16,.23,23s-7,11.1-7,11.1-47.6,5.37-50.82,4.77l-.12-6.68s-7.63,3.82-10.26-4.89.36-28.51.36-28.51l-1.07-1s10.14-23.85,25-32.44c0,0,2.86-1,2-8.12S190.45,21,190.45,21Z"/><path class="cls-6" d="M158.64,70.89l-.52-.47s10.14-23.85,25-32.44l.07,0c.3-.12.6-.24.88-.33,7-2.36,14.86-2,18.89-1.56.82.55,1.68,1.07,2.59,1.56,10.73,5.72,19.09,19.2,21.23,34.95,0,0,1.22,16.21.63,23.25S220,106.69,220,106.69s-41.63,7.52-50.82,4.77l-.12-6.68a29.93,29.93,0,0,1-.35-4.89c0-3,4.89-16,4.53-19C173,78.27,161.94,73.29,158.64,70.89Z"/><path class="cls-3" d="M172.5,11.05s-1.1,3.6.2,9.59,5.29,11.29,7.19,11.59,7.89-1.4,9.09-4.3.8-7.79,1.3-8.69,2.59-2.69,1.49-4.39-2.09-1-2.79,0-1.4,1.9-1.8.6-.9-4-1.6-4.6-1.3-3.29-3.5-3S172.5,11.05,172.5,11.05Z"/><path class="cls-7" d="M171.93,15.66s17.16-3.2,19.6-4.86c1.54-1.06.72-13.19-13.33-10.38C166,2.85,171.08,13.86,171.93,15.66Z"/><path class="cls-3" d="M165.39,105.5c4.06.12,5.37-1.79,8-6.44S176,88,178.28,78.42s2.74-30.54,2.86-36.51,1.79-7.27,3-11.45-.35-5.25-.35-5.25-3.22-1.67-6.33,2.74-1.91,11.82-2.14,12.89-9.67,24.1-11.34,30.3-4.41,19-4.53,21.47-.24,6.8,1.19,9.19S165.39,105.5,165.39,105.5Z"/><path class="cls-8" d="M227,154.86a1,1,0,0,1-.13-2.09c9.72-1.13,9.8-8.92,9-16.81a25.12,25.12,0,0,1-.2-3.39c.19-3.43-6.42-19.82-9-25.84a1,1,0,0,1,.59-1.37,1.08,1.08,0,0,1,1.4.57c1,2.26,9.39,22.23,9.15,26.76a23.23,23.23,0,0,0,.19,3.08c.59,6.16,1.69,17.62-10.92,19.08Z"/><path class="cls-8" d="M228.42,239.75a1.05,1.05,0,0,1-1-.89L215,155.59a1,1,0,0,1,.9-1.18,1.08,1.08,0,0,1,1.21.88l12.41,83.28a1,1,0,0,1-.9,1.17Z"/><path class="cls-8" d="M179.27,239.75h-.15a1,1,0,0,1-.9-1.17l12.4-83.28a1.08,1.08,0,0,1,1.21-.88,1,1,0,0,1,.9,1.18l-12.4,83.27A1.07,1.07,0,0,1,179.27,239.75Z"/><path class="cls-7" d="M176.89,142.17h51.54a0,0,0,0,1,0,0v14.2a0,0,0,0,1,0,0H181.18a8.35,8.35,0,0,1-8.35-8.35v-1.79A4.06,4.06,0,0,1,176.89,142.17Z" transform="translate(401.25 298.54) rotate(-180)"/><path class="cls-7" d="M213.27,88.64h16.58a0,0,0,0,1,0,0v20.48a0,0,0,0,1,0,0H213.27a3.7,3.7,0,0,1-3.7-3.7V92.34A3.7,3.7,0,0,1,213.27,88.64Z" transform="translate(439.43 197.76) rotate(-180)"/><path class="cls-5" d="M228.5,98.82l-1.31-22.55-18.61,2.51s1.34,8.82,1.85,12.71a4.13,4.13,0,0,0,.14.7l2.9,11.32c3.09,1.5,7.14,5,8.47,4.49C229.81,105.14,228.5,98.82,228.5,98.82Z"/><path class="cls-8" d="M180.23,42.34l-.64,20.14,12.88-1.2s-.62-14.1,11.56-22.14c.51.31,1,.62,1.57.91a30.24,30.24,0,0,1,4.19,2.72c-3.25,2.06-7,6-9,13.5C197,71.07,208,101.13,208,101.13l12.35,7.81-.3.18s-41.63,7.52-50.82,4.77l-.12-6.68a29.93,29.93,0,0,1-.35-4.89c0-3,4.89-16,4.53-19-.1-.79-1.16-1.8-2.69-2.89l2.09-10.83,1.7-22.06A44.24,44.24,0,0,1,180.23,42.34Z"/><polygon class="cls-3" points="179.41 220.62 181.92 228.13 188.9 225.27 185.85 218.65 179.41 220.62"/><path class="cls-8" d="M220.83,105.19s11.69,21.23,2.39,31-47.48,12.16-47.48,12.16-4.3,1-1.19,3.58c0,0,7.87,13.12,8.59,34.84s3.34,34.59,3.34,34.59-8.59,2.87-8.59,2.15-36.51-86.61-36.51-86.61-5.72-15.51,10.74-17.65,33.64-5.49,33.64-5.49l15.51-8.59Z"/><path class="cls-2" d="M168.93,237.73c3.73-1.23,11.38-4.45,13-10.49l6.62-2.86a8.08,8.08,0,0,1,5.55,5.19l.42,3.65s-8.78,5.5-12.41,7.26c-2.38,1.15-11.09,3.74-14.42,2.11-1.14-.56-1.43-2.1-1.51-2.11h0A4.35,4.35,0,0,1,168.93,237.73Z"/><path class="cls-3" d="M226.72,92.26,174.77,61.08a2.26,2.26,0,0,1-1-1.41,12,12,0,0,0-2.15-4.89c-2.15-2.66-6.87-4.72-7.69-4.56-1.27.24-2.71,2.81-1.42,5.74s3.35,6.93,6.33,9.65a14.11,14.11,0,0,0,4.46,2.72c7.16,7.82,38.43,39.78,47.81,39.79h.24C227.56,108.24,232.44,94.8,226.72,92.26Z"/><path class="cls-9" d="M20.72,246.06h-.16a1.65,1.65,0,0,1-1.47-1.8L32,112.36a1.64,1.64,0,1,1,3.27.32L22.36,244.58A1.65,1.65,0,0,1,20.72,246.06Z"/><path class="cls-8" d="M70.28,53.74a1,1,0,0,1-.34.58L66.8,69.72l-1.57-.32L68.37,54a1.09,1.09,0,0,1-.1-.67l.56-3.83a.57.57,0,0,1,.66-.44l1.24.26a.57.57,0,0,1,.44.66Z"/><path class="cls-1" d="M67.13,74.63l-.09,0-.71,3.46a1.63,1.63,0,0,1,.38,1.38l-.43,4.78a10.35,10.35,0,0,1-.48,2.34l-1.47,4.5a1.59,1.59,0,0,1-1.88,1.25l-2.08-.42A1.61,1.61,0,0,1,59.12,90l.49-4.71a10.69,10.69,0,0,1,.39-2l1.49-5a1.62,1.62,0,0,1,.89-1.11l.7-3.47-.09,0a1.15,1.15,0,0,1-.9-1.36,1.17,1.17,0,0,1,1.36-.9l.09,0,.25-1.19a1.93,1.93,0,0,1,2.27-1.5l.18,0a1.92,1.92,0,0,1,1.5,2.27l-.24,1.19.1,0a1.15,1.15,0,1,1-.47,2.26Z"/><path class="cls-8" d="M69.8,75.56V77l1.15.33V76s.12.14.49.12h.11c.37,0,.49-.12.49-.12v1.34L73.19,77V75.56l-.4-.25a1.85,1.85,0,0,0,0-1.15l.18-.1.1-1.12-1.22-3.66h-.62L70,72.94l.09,1.12.19.1a1.81,1.81,0,0,0,0,1.15Zm1.44-.77a.26.26,0,1,1,.26.26A.26.26,0,0,1,71.24,74.79Zm0-3.53c0-.39.13-.71.3-.71s.29.32.29.71-.13.72-.29.72S71.2,71.66,71.2,71.26Z"/><path class="cls-1" d="M71.85,78.12a.67.67,0,0,1,.36-.92l1-.56s.24-.3.45.12a.69.69,0,0,0,.91.44c.47-.09.49.17.21.4a4.09,4.09,0,0,1-.7.45.61.61,0,0,0-.1.75,53,53,0,0,1,2.3,6.73,25.56,25.56,0,0,1,.21,3.82.73.73,0,0,1-.47.56c-.44.21-.82.38-1.17-.14a1.86,1.86,0,0,1-.16-1.5,7.45,7.45,0,0,0-.21-2.7C74.18,84.73,71.85,78.12,71.85,78.12Z"/><path class="cls-1" d="M71.16,78.12a.66.66,0,0,0-.35-.92l-1-.56s-.23-.3-.44.12a.71.71,0,0,1-.92.44c-.46-.09-.49.17-.21.4a4,4,0,0,0,.71.45s.3.23.09.75a54.63,54.63,0,0,0-2.3,6.73,27.13,27.13,0,0,0-.21,3.82.76.76,0,0,0,.47.56c.45.21.82.38,1.17-.14a1.87,1.87,0,0,0,.17-1.5,7.45,7.45,0,0,1,.21-2.7C68.84,84.73,71.16,78.12,71.16,78.12Z"/><rect class="cls-8" x="90.68" y="69.49" width="15.19" height="22.52" rx="3.4" transform="translate(196.55 161.51) rotate(-180)"/><rect class="cls-6" x="93.48" y="72.18" width="9.95" height="6.11" rx="2.22" transform="translate(196.9 150.47) rotate(-180)"/><rect class="cls-10" x="56.79" y="63.6" width="55.52" height="3.84" transform="translate(169.09 131.03) rotate(-180)"/><path class="cls-1" d="M82.6,80.64a.74.74,0,0,1,.49-1l1.16-.52s.3-.31.48.19a.79.79,0,0,0,1,.59c.53,0,.53.24.19.47a5,5,0,0,1-.83.42s-.37.22-.19.82a61.45,61.45,0,0,1,1.8,7.75,29.11,29.11,0,0,1-.19,4.28.83.83,0,0,1-.59.57c-.52.18-1,.33-1.29-.29a2.07,2.07,0,0,1,0-1.69,8.52,8.52,0,0,0,.07-3C84.44,88.26,82.6,80.64,82.6,80.64Z"/><path class="cls-1" d="M82.3,80.64a.74.74,0,0,0-.49-1l-1.16-.52s-.3-.31-.48.19a.79.79,0,0,1-1,.59c-.53,0-.53.24-.19.47a5,5,0,0,0,.83.42s.37.22.19.82a61.45,61.45,0,0,0-1.8,7.75,29.11,29.11,0,0,0,.19,4.28.83.83,0,0,0,.59.57c.52.18.95.33,1.29-.29a2.07,2.07,0,0,0,0-1.69,8.29,8.29,0,0,1-.07-3C80.46,88.26,82.3,80.64,82.3,80.64Z"/><path class="cls-8" d="M83.93,76.86V75.29L82.7,68.57h-.62l-1.23,6.72v1.57h.37c-.39.55.11,1.28.11,1.28H81v1.18s1.14.62,1.14.62V78.61h.43v1.33s1.1-.62,1.14-.62V78.14h-.29s.5-.73.11-1.28Zm-1.27.56a.27.27,0,1,1-.54,0,.27.27,0,0,1,.54,0Z"/><path class="cls-7" d="M57.48,60.65a2.45,2.45,0,0,1,2.45,2.44V82.65h50.28V63.09a2.45,2.45,0,0,1,4.89,0v41.55a2.45,2.45,0,0,1-2.44,2.45,2,2,0,0,1-.35,0v0H56.79V107A2.45,2.45,0,0,1,55,104.64V63.09A2.44,2.44,0,0,1,57.48,60.65Z"/><path class="cls-6" d="M100.11,86.18l1.08-.09c-.41-5-2-6.68-3.26-7.17a3.24,3.24,0,0,0-3.39.81,3.28,3.28,0,0,0-1.15,3.19l1-.31a2.23,2.23,0,0,1,.84-2.07,2.18,2.18,0,0,1,2.26-.6C98.33,80.25,99.72,81.47,100.11,86.18Z"/><path class="cls-6" d="M97.34,94.43a3.12,3.12,0,0,1,0-.44V89.37a3.58,3.58,0,0,1,7.16,0V94c0,.15,0,.3,0,.44Z"/><path class="cls-6" d="M102.79,98.62a.52.52,0,0,0,.53-.52V94.34a.52.52,0,0,0-.53-.52.52.52,0,0,0-.52.52V98.1A.52.52,0,0,0,102.79,98.62Z"/><path class="cls-6" d="M99,98.62a.52.52,0,0,0,.53-.52V94.34a.52.52,0,0,0-.53-.52.52.52,0,0,0-.52.52V98.1A.52.52,0,0,0,99,98.62Z"/><path class="cls-8" d="M61.38,87l2.8-4.71a1.55,1.55,0,0,1,1.51-.76v0h10a7.52,7.52,0,0,1,2.64.16,2.56,2.56,0,0,1,.79,1l2.77,10a1.65,1.65,0,0,1-.93,2,1.89,1.89,0,0,1-.56.1,1.57,1.57,0,0,1-1.51-1.15l-.75-2.69c-.2-.43-.75-1.47-.64.3a1.59,1.59,0,0,1,0,.4L78.17,96a1.58,1.58,0,0,1-1.31,1.8l-.25,0a1.58,1.58,0,0,1-1.55-1.33l-.83-5.23c-.12-.69-.37-1.91-.33.23l.27,5.2a1.57,1.57,0,0,1-1.49,1.65H72.6A1.57,1.57,0,0,1,71,96.82l-.29-5.69c0-.31-.17-1-.33-1s-.35.46-.56,1l-1.13,5a1.57,1.57,0,0,1-1.53,1.23,1.73,1.73,0,0,1-.32,0,1.68,1.68,0,0,1-1.19-2L67.8,86a1,1,0,0,0-.93-1.17,1,1,0,0,0-.83.47l-2,3.3A1.57,1.57,0,0,1,61.38,87Z"/><path class="cls-9" d="M174.54,246.06a1.64,1.64,0,0,1-1.63-1.48L160,112.68a1.64,1.64,0,1,1,3.26-.32l12.89,131.9a1.65,1.65,0,0,1-1.48,1.8Z"/><rect class="cls-9" x="20.72" y="107.21" width="153.82" height="4.33" transform="translate(195.27 218.74) rotate(-180)"/></g></g></svg>