<svg xmlns="http://www.w3.org/2000/svg" viewBox="0 0 344.8 292.07"><defs><style>.cls-1{isolation:isolate;}.cls-2{fill:#f29291;}.cls-3{fill:#115f5c;}.cls-4{fill:#fff;}.cls-5{fill:#b96d6b;}.cls-11,.cls-6{fill:#de535e;}.cls-10,.cls-7{fill:#f49a6e;}.cls-8,.cls-9{fill:#b4d1cf;}.cls-10,.cls-11,.cls-9{opacity:0.4;}.cls-10,.cls-11,.cls-14,.cls-9{mix-blend-mode:multiply;}.cls-12{fill:#1d2827;}.cls-13{fill:#cc4e4c;}.cls-14{fill:#c3d1dd;opacity:0.68;}</style></defs><title>man_woman</title><g class="cls-1"><g id="Слой_2" data-name="Слой 2"><g id="Слой_1-2" data-name="Слой 1"><ellipse class="cls-2" cx="74.57" cy="278.84" rx="48.69" ry="13.23"/><ellipse class="cls-2" cx="294.77" cy="274.92" rx="41.05" ry="7.88"/><path class="cls-3" d="M33.92,93.52a.91.91,0,0,1-.52.29l-9,10.42-1.06-.92,9.05-10.42a.89.89,0,0,1,.22-.55l2.07-2.7a.5.5,0,0,1,.7,0l.84.72a.49.49,0,0,1,0,.7Z"/><path class="cls-2" d="M22.49,108.13l-.07,0-2,2.34a1.38,1.38,0,0,1-.31,1.21l-2.39,3.48a9.42,9.42,0,0,1-1.37,1.58l-3.08,2.81a1.41,1.41,0,0,1-2,.14l-1.4-1.22a1.41,1.41,0,0,1-.14-2l2.4-3.39a9,9,0,0,1,1.15-1.32l3.28-3.15a1.39,1.39,0,0,1,1.16-.48l2-2.34-.07-.06A1,1,0,0,1,21,104.16l.07.06.69-.8a1.71,1.71,0,0,1,2.4-.17l.11.1a1.69,1.69,0,0,1,.17,2.39l-.7.81.07,0a1,1,0,1,1-1.33,1.53Z"/><path class="cls-3" d="M24.13,110l-.64,1.13.73.74.58-1s0,.16.33.3l.08,0c.28.18.43.12.43.12l-.58,1,1,.24.64-1.13-.2-.37a1.6,1.6,0,0,0,.46-.9h.19l.56-.82.64-3.32-.47-.27-2.52,2.27L25,109l.1.15a1.63,1.63,0,0,0-.53.86Zm1.43,0a.23.23,0,0,1,.31-.09.23.23,0,0,1,.08.31.22.22,0,0,1-.31.08A.21.21,0,0,1,25.56,110Zm1.49-2.72c.18-.3.41-.49.54-.42s.08.37-.09.68-.41.49-.53.42S26.88,107.61,27.05,107.31Z"/><path class="cls-2" d="M24.59,112.84a.58.58,0,0,1,.67-.55h1s.31-.14.29.28a.62.62,0,0,0,.51.73c.4.13.3.34,0,.4a3.75,3.75,0,0,1-.73,0s-.34,0-.4.53a48,48,0,0,1-1.15,6.14,22.48,22.48,0,0,1-1.49,3,.65.65,0,0,1-.6.23c-.43,0-.79-.07-.83-.61s.21-.8.52-1.22a6.48,6.48,0,0,0,1-2.16C23.51,118.9,24.59,112.84,24.59,112.84Z"/><path class="cls-2" d="M24.06,112.54a.58.58,0,0,0,.13-.85l-.51-.86s-.05-.33-.4-.1a.62.62,0,0,1-.89,0c-.31-.28-.44-.09-.33.21a3.36,3.36,0,0,0,.35.64s.13.31-.26.62a48.3,48.3,0,0,0-4.66,4.15,22.36,22.36,0,0,0-1.81,2.83.65.65,0,0,0,.11.64c.25.35.47.64,1,.39s.58-.59.77-1.07a6.45,6.45,0,0,1,1.33-2C19.43,116.59,24.06,112.54,24.06,112.54Z"/><rect class="cls-3" x="36.99" y="116.37" width="13.34" height="19.78" rx="2.99" transform="translate(19.6 257.68) rotate(-150.55)"/><rect class="cls-4" x="41.81" y="119.44" width="8.74" height="5.37" rx="1.95" transform="translate(26.35 251.16) rotate(-150.55)"/><rect class="cls-5" x="15.36" y="107" width="48.77" height="3.37" transform="translate(20.91 222.86) rotate(-150.55)"/><path class="cls-2" d="M31.72,119.41a.64.64,0,0,1,.8-.54l1.11.11s.36-.11.29.34a.7.7,0,0,0,.48.88c.43.19.3.41,0,.44a4.23,4.23,0,0,1-.82,0s-.38,0-.5.55a53.13,53.13,0,0,1-2,6.7,25.59,25.59,0,0,1-2,3.19.7.7,0,0,1-.69.18c-.48-.08-.87-.16-.86-.77s.33-.87.72-1.3a7.37,7.37,0,0,0,1.35-2.29C29.84,126,31.72,119.41,31.72,119.41Z"/><path class="cls-2" d="M31.49,119.28a.64.64,0,0,0,.05-1l-.67-.9s-.09-.37-.44-.07a.69.69,0,0,1-1,0c-.39-.27-.51,0-.35.28a4,4,0,0,0,.46.67.62.62,0,0,1-.21.72,52.79,52.79,0,0,0-4.73,5.14,25.58,25.58,0,0,0-1.69,3.36.73.73,0,0,0,.19.69c.32.37.6.66,1.12.34s.57-.73.74-1.29A7.08,7.08,0,0,1,26.21,125C26.8,124.31,31.49,119.28,31.49,119.28Z"/><path class="cls-3" d="M34.37,117.09l.68-1.2,2-5.67-.23-.13h0l-.22-.13-3.85,4.61-.67,1.2.27.16c-.53.25-.46,1-.46,1l-.23-.12-.51.9s.61,1,.61,1l.57-1,.16.09h0l.16.09-.57,1s1.1,0,1.14,0l.51-.9-.23-.13s.7-.34.64-.93ZM33.16,117a.24.24,0,0,1-.33.09.24.24,0,1,1,.24-.41A.24.24,0,0,1,33.16,117Z"/><path class="cls-6" d="M21.15,93.27A2.14,2.14,0,0,1,22,96.19l-8.45,15L52,132.87l8.45-15A2.15,2.15,0,0,1,64.16,120L46.21,151.8a2.14,2.14,0,0,1-2.92.82,2.27,2.27,0,0,1-.25-.18l0,0-42.47-24,0-.09a2.14,2.14,0,0,1-.33-2.53l18-31.79A2.15,2.15,0,0,1,21.15,93.27Z"/><path class="cls-4" d="M42.72,131.2l.87.4c1.86-4,1.35-6,.6-6.88a3.17,3.17,0,0,0-5.2,1.09l.93.21a2,2,0,0,1,1.55-1.22,1.94,1.94,0,0,1,2,.52C43.92,125.9,44.45,127.44,42.72,131.2Z"/><path class="cls-4" d="M37,136.32a3.68,3.68,0,0,1,.15-.35l2-3.54a3.14,3.14,0,1,1,5.47,3.09l-2,3.54a3.55,3.55,0,0,1-.23.31Z"/><path class="cls-4" d="M39.4,141.88a.46.46,0,0,0,.63-.17l1.62-2.87a.47.47,0,0,0-.18-.63.45.45,0,0,0-.62.17l-1.62,2.87A.46.46,0,0,0,39.4,141.88Z"/><path class="cls-4" d="M36.46,140.22a.46.46,0,0,0,.63-.17l1.62-2.87a.47.47,0,0,0-.17-.63.46.46,0,0,0-.63.17l-1.62,2.88A.45.45,0,0,0,36.46,140.22Z"/><path class="cls-3" d="M12.77,115.07l4.17-2.4a1.36,1.36,0,0,1,1.49.08h0l3,1.7,4.6,2.6a6.68,6.68,0,0,1,2,1.26,2.22,2.22,0,0,1,.17,1.1L26,128.21a1.42,1.42,0,0,1-1.56,1.11,1.37,1.37,0,0,1-.47-.16,1.39,1.39,0,0,1-.67-1.54l.59-2.38c0-.41.06-1.44-.61,0a1,1,0,0,1-.19.3l-1.38,3.72a1.38,1.38,0,0,1-1.78.81l-.19-.09a1.38,1.38,0,0,1-.62-1.68l1.63-4.37c.2-.58.54-1.62-.35,0l-2,4.1a1.38,1.38,0,0,1-1.85.62l-.06,0a1.38,1.38,0,0,1-.56-1.82l2.24-4.48c.1-.26.31-.84.17-.89s-.47.2-.87.54l-3,3.36a1.38,1.38,0,0,1-1.7.28,1.19,1.19,0,0,1-.23-.16,1.46,1.46,0,0,1,0-2l5.71-6.32a.84.84,0,0,0-1-1.3l-2.93,1.68a1.35,1.35,0,0,1-1.36,0,1.38,1.38,0,0,1,0-2.4Z"/><path class="cls-7" d="M114.29,32.83s-37,21.56-43.39,26.81S46,97.22,43.55,99.15,36.09,105,36.09,108s1.38,5.81,6.08,5.25,6.35-8.56,8.28-11.33,24-28.73,27.64-31.5,21-9.12,21-9.12Z"/><path class="cls-8" d="M114.29,32.83S99.52,41.43,87,49.08c.67,5.43,1.95,12.3,4.31,15l.15.13c4.14-1.64,7.59-2.9,7.59-2.9Z"/><path class="cls-9" d="M114,33.44l-.82.06c-1.94,1.13-6.17,3.61-11.27,6.64-3.61,5.17-8.81,12.91-12.36,20.52a11,11,0,0,0,1.84,3.4l.15.13c4.14-1.64,7.59-2.9,7.59-2.9Z"/><path class="cls-7" d="M254.81,52.79c-.19.55-27.8,36.58-49.16,35.08,0,0-14-.13-10.74,5.79s10-.08,11.61-.44,32.24.13,50-20.88C272.31,53.53,254.81,52.79,254.81,52.79Z"/><path class="cls-10" d="M208.49,87.84a19.25,19.25,0,0,1-2.84,0s-14-.13-10.74,5.79a4.63,4.63,0,0,0,2.81,2.44C203.72,97.25,209.72,89.75,208.49,87.84Z"/><path class="cls-6" d="M254.81,52.79A124.12,124.12,0,0,1,244,65.38c1.25,4.11,3.44,9.46,6.9,12.56a49.2,49.2,0,0,0,5.58-5.6C272.31,53.53,254.81,52.79,254.81,52.79Z"/><path class="cls-11" d="M254.81,52.79A86.38,86.38,0,0,1,249,59.92c-.1,3.61-1.32,7.65-.34,10.41.75,2.13,3,4.31,3.78,6.23a47.58,47.58,0,0,0,4-4.22C272.31,53.53,254.81,52.79,254.81,52.79Z"/><path class="cls-7" d="M63,265.32s-.57,3.86.5,5.18c.87,1.08,7.9,1.79,12.07,3.1,1.69.53,4.25,1.65,4.39,3.41.09,1.07-2.47,2.31-4.21,2.24l-12.52-.46-2.77-.48a2.94,2.94,0,0,0-.59-.05l-2.79.05c-1.2,0-2.95-.41-3.36-1.54a10.25,10.25,0,0,1,.21-5.7c1.05-2,.31-8.29.31-8.29Z"/><path class="cls-12" d="M80,277c-.14-1.76-2.7-2.88-4.39-3.41-4.1-1.29-11-2-12-3.05-2.32,1.05-6.23,2.25-9.66.6a10.19,10.19,0,0,0-.18,5.62c.41,1.13,2.16,1.57,3.36,1.54l2.79-.05a2.94,2.94,0,0,1,.59.05l2.77.48,12.52.46C77.53,279.32,80.09,278.08,80,277Z"/><path class="cls-7" d="M93.84,265.59s-.43,3.88.69,5.16c.92,1.05,8,1.49,12.18,2.65,1.71.46,4.3,1.49,4.52,3.24.13,1.07-2.39,2.4-4.13,2.4H94.57l-2.79-.38a3.84,3.84,0,0,0-.59,0l-2.79.16c-1.19.06-3-.31-3.4-1.42a10.08,10.08,0,0,1,0-5.71c1-2.07,0-8.29,0-8.29Z"/><path class="cls-12" d="M111.23,276.64c-.22-1.75-2.81-2.78-4.52-3.24-4.14-1.14-11-1.59-12.12-2.6-2.28,1.13-6.14,2.47-9.62.95a10.17,10.17,0,0,0,0,5.63c.44,1.11,2.21,1.48,3.4,1.42l2.79-.16a3.84,3.84,0,0,1,.59,0l2.8.38H107.1C108.84,279,111.36,277.71,111.23,276.64Z"/><path class="cls-12" d="M257.62,44.7s5.53-5.5,2.81-7.17c-4.25-2.63-5.67-9.66-5.36-12.71.4-3.89,2.82-12.6,5.79-16.49.8-1,4.64-3.46,8.15-3.92a17.4,17.4,0,0,1,9,1.33c9,3.66,10.91,6.55,16.81,10.24,5.13,3.2,8.17,3.3,15.12-1.1C320.55,8.18,339,9,333.51,26.66c-3,9.64-16.62,37.28-39.06,24.13-13.6-8-14-2.13-21.22-.6C265.83,51.74,257.62,44.7,257.62,44.7Z"/><path class="cls-7" d="M266,31.73s-.14,8.29-3.59,10.08-7.19,3.46-8.29,6.91-4,14.09-3.18,17.27,3.87,7.19,7.46,13.4,8.77,14.2,8.64,19.72-3.37,24.71-2,25.68,2.88.89,7.3.89,26.12-.42,34.41-14c0,0,.34-.16.47-1s-14.29-22.22-16.91-29.4a37.27,37.27,0,0,1-1.94-14.51s35.51,21.69,46.56,46c0,0,.28-.14,0,3.18s5.36,14.4,8.54,11.36c2.61-2.49.93-10-1.19-15-.46-1.09-3.48-3.39-5.41-7.67,0,0-11.89-23.08-19.76-31.09S292.65,45.82,282,42.36a8.28,8.28,0,0,1-7.33-3.73l-.55-9.81Z"/><path class="cls-8" d="M265.35,121.12,276.58,261h7.74s11.79-96.16,8.84-120.1S265.35,121.12,265.35,121.12Z"/><path class="cls-7" d="M276.72,260.73a30.29,30.29,0,0,1,.79,6.41c-.14,2.43-10.74,5.11-11.85,6.16s-1.31,1.63-.72,2.22A10.35,10.35,0,0,0,273,277c4.12-.85,6.22-1.64,8.05-.46s4.84-.53,4.71-1.83.26-3.67-2.09-5.63a22.85,22.85,0,0,1,.66-8.13C285.49,256.93,276.72,260.73,276.72,260.73Z"/><path class="cls-3" d="M281,276.57c1.83,1.18,4.84-.53,4.71-1.83a9.65,9.65,0,0,0-.61-3.76c-2.66-.43-6.95,1.84-10.12,1.15a4.37,4.37,0,0,1-2.71-1.54c-2.91,1.17-6.07,2.16-6.65,2.71-1.11,1-1.31,1.63-.72,2.22A10.35,10.35,0,0,0,273,277C277.11,276.17,279.21,275.39,281,276.57Z"/><path class="cls-7" d="M311.87,259.29a30.17,30.17,0,0,1,2.58,5.93c.57,2.36-8.83,7.95-9.6,9.27s-.79,1.94-.05,2.34a10.37,10.37,0,0,0,8.14-.85c3.71-2,5.49-3.34,7.59-2.73s4.49-1.89,4-3.1-.79-3.59-3.61-4.8a22.78,22.78,0,0,1-1.68-8C319.2,253.16,311.87,259.29,311.87,259.29Z"/><path class="cls-3" d="M320.53,273.25c2.09.6,4.49-1.89,4-3.1a9.51,9.51,0,0,0-1.65-3.43c-2.68.34-6.14,3.74-9.38,4a4.35,4.35,0,0,1-3-.71c-2.46,1.95-5.21,3.8-5.61,4.49-.77,1.32-.79,1.94-.05,2.34a10.37,10.37,0,0,0,8.14-.85C316.65,274,318.43,272.64,320.53,273.25Z"/><path class="cls-4" d="M272.58,121.05l.08.29c1.89,6.91,37.22,135.59,39,138.72,0,0,7.73-1.56,8.1-1.56s-10.32-116-12.53-126.38.83-14.92.46-17.86-.36-4.06-3-6.91-32.08,13.8-32.08,13.8"/><path class="cls-10" d="M274.28,32.46l.06-.14-.2-3.5L266,31.73a24.84,24.84,0,0,1-1.09,6.53C266.91,37.94,272.34,36.71,274.28,32.46Z"/><path class="cls-7" d="M272,13.21c-2.31,6.36,1.38,9.86,2.48,11.15.92,1.06,1.85.46,2.58,1.19s-.18,2-.27,2.95-2.12,2.49-2.12,1.94-.83-.56-.83-.56l-1.75.74c-4.15,3-11.33,3-12.71,1.38s-1.94-8,.55-13.81a10.35,10.35,0,0,1,2-3.05,12.44,12.44,0,0,0,6.57-.36A15.15,15.15,0,0,0,272,13.21Z"/><path class="cls-6" d="M306.56,62.36c-8-8.39-17.54-17.72-24.54-20a8.62,8.62,0,0,1-4-.8c0,.09-.1.15-.14.24-6.42,12.84-15.13,14.21-17,10.08-1.07-2.4-.63-6.31-.05-9.28-3,1.54-5.81,3.18-6.75,6.12-1.11,3.45-4,14.09-3.18,17.27s3.87,7.19,7.46,13.4,8.77,14.2,8.64,19.72-3.37,24.71-2,25.68,2.88.89,7.3.89,26.12-.42,34.41-14c0,0,.34-.16.47-1s-14.29-22.22-16.91-29.4a37.27,37.27,0,0,1-1.94-14.51s4.61,2.82,11,7.56C302.29,71.86,304.78,66.85,306.56,62.36Z"/><path class="cls-7" d="M138.42,15.42S131.6,28,123.68,28.87s-12.71,4.61-15.1,7.55S77.81,83.58,75.42,89.66s-4.61,16.4-4.61,26.9S83,180.85,83.34,192.46s1.1,73.13,1.1,73.13-.55,1.47,3.32,1.47,7.92.56,8.66-.55,7.92-54,9.39-70.55,5.16-75.9,4-86.4C109.5,105.87,120.55,95,120.55,95s13.63-11.6,17.87-19.15,4.09-27.2,4.09-33.28S141.1,34.8,142,32a5.52,5.52,0,0,1,2.95-3.5l-4.89-13.67Z"/><path class="cls-12" d="M71.54,116.73s-5.7,63.15-9.49,74.54-8.49,35.23-9,51.19c-.46,13.12-.46,19.66-.43,22.3a1.57,1.57,0,0,0,1.48,1.54l9.09.47s4.18-21.95,9.37-45.31c3.2-14.38,8-20.85,10.79-31.8S91,125.54,91,125.54L77.7,107.74Z"/><path class="cls-4" d="M138.42,75.85c4.24-7.56,4.09-27.2,4.09-33.28-8.19-1.69-13.07-11.13-14.8-15.13a10.45,10.45,0,0,1-4,1.43c-7.92.92-12.71,4.61-15.1,7.55S77.81,83.58,75.42,89.66a76.26,76.26,0,0,0-4.37,20.76l39,9.66c.08-4.83,0-8.54-.17-10.52C109.5,105.87,120.55,95,120.55,95S134.18,83.4,138.42,75.85Z"/><path class="cls-3" d="M135.29,47.2c-2.77-15.2-14.1-14.92-14.1-14.92-9.5-1.78-13.46,6.74-16.69,10.16l-.1.12c-8.57,13-27.07,42.24-29,47.1-2.4,6.08-4.61,16.4-4.61,26.9S83,180.85,83.34,192.46s1.1,73.13,1.1,73.13-.55,1.47,3.32,1.47,7.92.56,8.66-.55,7.92-54,9.39-70.55,5.16-75.9,4-86.4c-.35-3.58,10-13.92,10.66-14.53l.06,0A148,148,0,0,0,134,81.87a1.1,1.1,0,0,0,.12-1.25l-2.9-5.23a1.08,1.08,0,0,1,0-1C132.46,71.87,137.72,60.6,135.29,47.2ZM124,71.79c-1.31,1.69-9.45,12.35-14.58,19.07A7.62,7.62,0,0,1,99.27,92.7h0a7.64,7.64,0,0,1-3.17-9l11.26-32.62,0-.08c.22-.86,4.35-16.38,10.79-15.84,6.63.55,10.2,5.93,10.2,12.29S125.89,69.31,124,71.79Z"/><path class="cls-10" d="M145,28.54l-1.53-4.27L140,20.2s-1.48.42-2.53,6.54c-.58,3.39,2.06,7.08,4.54,9.72A8.47,8.47,0,0,1,142,32,5.52,5.52,0,0,1,145,28.54Z"/><path class="cls-7" d="M160.46,14s-2,17.51-10.14,18.32c-1.35.14-5.24-.65-8.84-4.58s-3.6-8.67-3.6-11,.16-6.54,1.47-8.34S149.66,4,153.75,5.5,160.46,12.7,160.46,14Z"/><path class="cls-12" d="M152.61,10.25s-.82,8.5-3,5.72-3.27-2-3.93-1-.49,4.42-1.63,5.24-6.06-.17-6.22-2.46-.16-7.2.65-8,8-1,8-1Z"/><path class="cls-6" d="M137.55,12.21s20.62,2.13,22.58,3.27S164.55,4,153.59.76,138,5.5,137.55,12.21Z"/><path class="cls-13" d="M159.48,18.92a7.91,7.91,0,0,0-4.26-4.42c-3.1-1.15,12.6,0,12.6,0s5.73,0,4.75,4.09c0,2.13-2.46,2.13-5.4,1.8S159.48,18.92,159.48,18.92Z"/><circle class="cls-4" cx="275.35" cy="31.39" r="1.67"/><path class="cls-11" d="M288.37,66.82l.59.37a5.14,5.14,0,0,0-2.8-3.13c-3.31-1.39-4.42,6.9-3.87,10.22s3.87,13.82,6.63,18.24c2.15,3.42,13.24,14.14,18.13,18.8a2.5,2.5,0,0,0,.17-.59c.14-.83-14.29-22.22-16.91-29.4A37.27,37.27,0,0,1,288.37,66.82Z"/><path class="cls-14" d="M116.5,34.77s-6.91,6.35-6.64,13,11.61,31,18.24,37.86c.42.43.83.83,1.25,1.21,3.53-3.56,7.21-7.66,9.07-11C141.17,70.94,116.5,34.77,116.5,34.77Z"/><path class="cls-7" d="M199,85.07c-3.27.29-8.27,2.19-11,2-13.78-1-38-8.79-41.72-12.29s-6.92-11.13-6.92-11.13S132.79,39,122.19,35.14s-9.36,10.33-8,15.38,12.39,29.38,21,34.51,32.66,11,45.42,10.26l0-.07a73.56,73.56,0,0,1,8.52.76c3.08.6,8.85.61,11.94-.78a14.16,14.16,0,0,0,3.29-2.33,6.61,6.61,0,0,0,.93-3.81C205.4,86.54,200.11,85,199,85.07Z"/><path class="cls-4" d="M139,62.57c-1.4-4.79-7.56-24.07-16.83-27.43-10.6-3.84-9.36,10.33-8,15.38.85,3,5.16,13,10.34,21.66C131.87,70.91,137,65.23,139,62.57Z"/><path class="cls-4" d="M265.9,27.21l-6.08-2.76S258.9,32.37,265.9,27.21Z"/><path class="cls-4" d="M155.74,27.4l-.38-.16L149.84,25S149.84,32.56,155.74,27.4Z"/></g></g></g></svg>