<svg xmlns="http://www.w3.org/2000/svg" viewBox="0 0 375.61 438.66"><defs><style>.cls-1{fill:#f7e4e2;}.cls-2{fill:#f7baba;}.cls-3{fill:#fff;}.cls-4{fill:#c8e6e7;}.cls-5{fill:#de535e;}.cls-6{fill:#6ac2c1;}</style></defs><title>map</title><g id="Слой_2" data-name="Слой 2"><g id="Слой_1-2" data-name="Слой 1"><polygon class="cls-1" points="375.61 23.06 0 23.06 0 167.42 0 168.56 0 174.98 0 197.23 0 438.66 375.61 438.66 375.61 23.06"/><polygon class="cls-2" points="251.78 247.78 205.65 182.62 183.81 187.55 229.95 252.71 251.78 247.78"/><polygon class="cls-2" points="252.49 274.9 237.34 253.06 215.51 258 230.65 279.83 252.49 274.9"/><polygon class="cls-2" points="185.57 395.71 236.29 382.33 216.56 349.22 167.25 362.6 169.63 366.91 158.8 369.85 171.51 392.82 182.38 389.95 185.57 395.71"/><polygon class="cls-2" points="289.82 195.65 273.97 179.45 254.6 183.68 270.45 199.88 289.82 195.65"/><polygon class="cls-2" points="287.95 288.4 305.11 306.39 371.48 289.58 354.32 271.58 287.95 288.4"/><polygon class="cls-2" points="255.57 250.19 272.74 268.19 339.11 251.38 321.94 233.38 255.57 250.19"/><polygon class="cls-2" points="224.19 163.6 237.34 179.8 256.72 175.58 243.56 159.38 224.19 163.6"/><polygon class="cls-2" points="207.76 56.88 207.71 56.83 273.96 48.78 261.3 37.51 197.03 45.51 172.54 19.55 151.76 22.01 186.98 59.35 207.76 56.88"/><polygon class="cls-2" points="201.42 103.02 125.69 23.07 109.14 22.36 182.75 106.19 201.42 103.02"/><polygon class="cls-2" points="222.9 154.09 242.28 149.87 208.81 111.83 190.94 116.05 222.9 154.09"/><polygon class="cls-2" points="255.31 132.25 284.54 163.6 302.15 159.55 273.27 128.73 255.31 132.25"/><polygon class="cls-2" points="214.45 68.5 197.19 70.62 241.92 120.28 259.89 116.05 214.45 68.5"/><polygon class="cls-2" points="330.33 130.14 263.06 60.4 245.8 62.52 312.37 134.37 330.33 130.14"/><polygon class="cls-2" points="161.71 155.15 177.82 178.75 197.19 174.52 179.58 150.92 161.71 155.15"/><polygon class="cls-2" points="133.18 131.9 146.83 155.5 166.2 151.28 151.05 127.68 133.18 131.9"/><polygon class="cls-2" points="112.75 102.72 124.94 123.8 142.25 120.03 128.72 98.95 112.75 102.72"/><polygon class="cls-2" points="0 177.79 0 191.12 16.78 188.15 20.19 187.54 15.45 174.96 14.83 175.07 0 177.79"/><polygon class="cls-2" points="168.28 243.53 81.51 263.42 84.17 270.73 20.64 287.05 28.63 317.1 94.67 300.59 92.28 293.05 184.35 270.8 168.28 243.53"/><polygon class="cls-2" points="124.99 91.85 78.5 23.42 61.94 23.07 107.68 95.63 124.99 91.85"/><polygon class="cls-2" points="54.56 98.07 73.5 95.84 51.21 61.34 32.89 62.26 54.56 98.07"/><polygon class="cls-2" points="46.63 53.71 24.35 19.21 6.03 20.12 27.7 55.94 46.63 53.71"/><polygon class="cls-2" points="285.95 295.33 270.8 273.49 248.97 278.42 264.11 300.26 285.95 295.33"/><polygon class="cls-2" points="249.2 307.56 262.95 327.38 282.78 322.9 269.03 303.08 249.2 307.56"/><polygon class="cls-2" points="121 376.24 127.81 388.67 155.38 381.02 148.57 368.59 121 376.24"/><polygon class="cls-2" points="317.65 379.51 332.62 399.23 359.91 393.07 344.94 373.35 317.65 379.51"/><polygon class="cls-2" points="343.01 370.18 312.89 330.38 285.6 336.54 315.71 376.34 343.01 370.18"/><polygon class="cls-2" points="80.36 142 70.99 127.2 34.45 134.13 42.54 149.01 76.29 142.83 84.34 157.64 98.19 155.17 100.28 159.17 77.87 163.32 81.11 169.56 51.31 175.34 54.78 182.96 50.39 183.88 56.39 198.43 67.76 196.22 61.25 183.68 103.31 175.34 110.88 187.84 131.22 183.88 102.64 137.83 80.36 142"/><path class="cls-2" d="M127,355.13l13.89-3.89-2.22-5.84S216,324,218.1,324.54c-1-1.21-16.34-28.87-16.34-28.87l-25.84,6.39,3.06,6.11-50.29,11.39-2.5-5.28L55.33,331.79l13.06,38.34,33.34-8.34,3.06,8.34,23.62-11.39Z"/><path class="cls-2" d="M218.15,324.56l-.05,0S218.16,324.61,218.15,324.56Z"/><rect class="cls-2" x="9.64" y="391.48" width="56" height="22.19"/><polygon class="cls-2" points="375.61 314.37 342.66 322.71 359.82 340.71 375.61 336.71 375.61 314.37"/><polygon class="cls-2" points="0 48.52 0 81.52 7.08 93.63 26.02 91.4 0 48.52"/><polygon class="cls-2" points="6.65 147.75 0 148.97 0 162.35 11.38 160.33 6.65 147.75"/><polygon class="cls-2" points="23.73 159.11 15.5 160.62 0 163.45 0 169.65 2.07 176.37 14.79 174.11 28.46 171.69 23.73 159.11"/><polygon class="cls-2" points="0 370.06 41.62 360.42 34.46 340.59 0 348.57 0 370.06"/><polygon class="cls-2" points="375.61 161.72 337.37 170.62 347.7 181.79 375.61 175.29 375.61 161.72"/><polygon class="cls-2" points="375.61 205.84 375.61 192.26 343.68 199.69 322.45 176.44 302.86 181.18 334.75 215.68 353.96 210.96 353.9 210.89 375.61 205.84"/><path class="cls-3" d="M314.49,399.67l-50.57-73.13L161.81,178.85h0l55.82-11.73,30.2,36.27a2.17,2.17,0,0,0,1.67.76,2.48,2.48,0,0,0,.54-.06l50.16-12.49,75.41,77.84V252.75l-34.69-35.21,25.52-6.22,9.17,9.47v-5.91l-4.54-4.69,4.54-1.11V198.8l-42.86,10.45-39.89-40.48,82.75-19.88V138.62l-49.73,11.94,1.32-17.81,14.92-5.35a2,2,0,0,0,1.32-1.43,1.94,1.94,0,0,0-.55-1.82l-73-70.86,14.55-1.79,91.2,79.41V116.25L237.18.9a3.85,3.85,0,0,0-5.22.25,3.35,3.35,0,0,0,.26,4.92L280.37,48l-95,11.69L141.36,15a5.51,5.51,0,0,0-7.46-.26c-2.14,1.88-.17,5,1.82,7l73.37,75.74-87.58,23h0l-1.1-1.58a27,27,0,0,0-2.56-3.18L44,9.35A8.6,8.6,0,0,0,32.77,7.2c-3.66,2.26-.19,6.89,2.21,10.34l55,83h0c-9.33-2-21.06-2.39-35.54.7-3.27.69-6.69,1.56-10.25,2.64a2.53,2.53,0,0,0-.36.12l-17.07,6L0,99.39v4.32l21,8.35L0,119.45v15.94L6.77,133a32.36,32.36,0,0,1,11.75,6.68,38.92,38.92,0,0,1,8.72,11l3,7.3L40.67,183,0,191.13v4.07l42.23-8.41h0l3,7.12a2.11,2.11,0,0,0,2,1.27,3,3,0,0,0,.42,0l90.71-17.53,1.85-.35,9,13.66L164,213.55,63.68,233.89,0,224.83v7L43.25,238,1.13,246.58a6.2,6.2,0,0,0-1.13.36v14.55l2.44,7.45L0,269.46v10.2l5.56-1.17,9.51,29.06L0,311v10.25l22.29-5.14a5.77,5.77,0,0,0,1.06-.19l.51-.17,14.73-3.4,13,34.59c-15.16-1.74-29.32,2.18-31.24,2.75L0,354.53V364.8l23.08-5.46.32-.09c.29-.08,28.31-8.36,44.44,4.07,9.65,7.44,13.37,21.21,11,40.93a5.07,5.07,0,0,0,4.67,5.5,5.83,5.83,0,0,0,.59,0,5.18,5.18,0,0,0,5.24-4.43q2.45-20.75-3.29-34.44L151,341.25l82.4-22.31,53.16,80.73L310,435.21c1.51,2.24,10.36,3.45,13,3.45a8.21,8.21,0,0,0,4.26-1.18c3.69-2.22,8.66-6.84,6.3-10.32ZM188.88,63.25l75.75-9.31,73,70.81-13.19,4.73a2,2,0,0,0-1.35,1.72l-1.51,20.4-36.9,8.86ZM48.47,190.9l-17-41-.32-.77a1,1,0,0,1,0-.1,44.56,44.56,0,0,0-11-13.21A38,38,0,0,0,12.46,131l12.62-4.44,24.13-8.48c3.2-1,6.24-1.72,9.12-2.32,35.45-7.37,48.11,10.35,48.63,11.1a.64.64,0,0,0,.08.14l30.71,46.64Zm110.87-15.62-3.49-5-17.63-25.51-14.3-20.67,88.37-23.22L297,188.27,250.3,199.89l-30.17-36.23A2.18,2.18,0,0,0,218,163l-58.67,12.33Zm-134,129.9L9,255.17l161-32.64,28.17,42.8h0ZM147.66,331.8a5.08,5.08,0,0,0-.85.31l-65.76,30a36,36,0,0,0-6.52-6.53,40.22,40.22,0,0,0-10.67-5.8L48.9,310,204,274.23h0l23.64,35.92Z"/><polygon class="cls-4" points="80.2 20.48 146.11 114.94 177.6 106.55 97.83 15.44 80.2 20.48"/><path class="cls-4" d="M138.14,199.75l11.33,17.63s4.2,5.88-6.72,8.4-14.69-5.46-20.57-12.17-18.05-8-16.37-11.34S133.52,188.84,138.14,199.75Z"/><path class="cls-5" d="M176.54,86.8a2,2,0,0,1-3.38,0l-7.55-13.1a10.89,10.89,0,1,1,18.41.11Z"/><circle class="cls-3" cx="174.85" cy="67.94" r="8.52"/><path class="cls-5" d="M220.2,146.28a2,2,0,0,1-3.38,0l-7.55-13.11a10.89,10.89,0,1,1,18.41.12Z"/><circle class="cls-3" cx="218.51" cy="127.42" r="8.52"/><path class="cls-5" d="M67.2,93.28a2,2,0,0,1-3.38,0L56.27,80.17a10.89,10.89,0,1,1,18.41.12Z"/><circle class="cls-3" cx="65.51" cy="74.42" r="8.52"/><path class="cls-6" d="M222.79,99.14a2,2,0,0,1-3.38,0L211.86,86a10.89,10.89,0,1,1,18.41.11Z"/><circle class="cls-3" cx="221.1" cy="80.28" r="8.52"/><path class="cls-6" d="M278.84,88.85a2,2,0,0,1-3.38,0l-7.55-13.11a10.89,10.89,0,1,1,18.41.12Z"/><circle class="cls-3" cx="277.15" cy="69.99" r="8.52"/><path class="cls-5" d="M316.68,119.81a2,2,0,0,1-3.38,0l-7.55-13.11a10.88,10.88,0,1,1,18.41.12Z"/><circle class="cls-3" cx="314.99" cy="100.95" r="8.52"/><path class="cls-4" d="M115.83,216.34c-5.29-8.21-15.24-10.66-24.45-10a88,88,0,0,0-15.78,2.86c-6.09,1.62-10.92,5.52-16.82,7.32-7.38,2.26-13.77-1.86-21-2.22-5.91-.29-11.54,1.88-17.22,3.16a24.25,24.25,0,0,1-12.2.12c-2.86-.8-5.49-2.25-8.35-3v19.74a26,26,0,0,0,9.33.77c5.67-.6,11.12-2.5,16.79-3,6.59-.61,11.9,1.74,17.9,4,4.41,1.66,8.74,2.68,13.38,1.34,2.26-.65,4.31-1.92,6.55-2.6,5-1.5,10-.32,15,.49,9.65,1.57,21.26,5.11,30.51.37,3.44-1.76,7.73-4.67,8.76-8.63C119.11,223.5,117.74,219.3,115.83,216.34Z"/></g></g></svg>