<svg xmlns="http://www.w3.org/2000/svg" viewBox="0 0 45.83 56.45"><defs><style>.cls-1{fill:#f29291;}.cls-2{fill:#fff;}</style></defs><title>picture</title><g id="Слой_2" data-name="Слой 2"><g id="Слой_1-2" data-name="Слой 1"><rect class="cls-1" width="45.83" height="56.45" transform="translate(45.83 56.45) rotate(-180)"/><rect class="cls-2" x="3.86" y="4.9" width="38.11" height="46.65" transform="translate(45.83 56.45) rotate(-180)"/><path class="cls-1" d="M20.26,13.1,10.39,30.19a3.07,3.07,0,0,0,2.66,4.6H32.78a3.07,3.07,0,0,0,2.66-4.6L25.57,13.1A3.06,3.06,0,0,0,20.26,13.1Z"/><polyline class="cls-2" points="21.24 32.51 23.91 29.89 21.53 29.89 26.26 22.86 22.11 22.86 25.15 14.69 18.07 25.42 21.61 25.42 20.86 29.89 18.66 29.89"/><rect class="cls-1" x="9.03" y="38.44" width="27.78" height="3.23" transform="translate(45.83 80.1) rotate(-180)"/><rect class="cls-1" x="9.03" y="43.64" width="27.78" height="3.23" transform="translate(45.83 90.5) rotate(-180)"/></g></g></svg>