<svg xmlns="http://www.w3.org/2000/svg" viewBox="0 0 251.35 68.37"><defs><style>.cls-1{fill:#ef7c80;}</style></defs><title>road</title><g id="Слой_2" data-name="Слой 2"><g id="Слой_1-2" data-name="Слой 1"><path class="cls-1" d="M187.32,68.37a1.49,1.49,0,0,1-1.28-.72l-1.93-3.2a1.5,1.5,0,1,1,2.56-1.55l1.38,2.28.46-.11a1.5,1.5,0,1,1,.64,2.93l-1.51.34A1.66,1.66,0,0,1,187.32,68.37ZM194,66.9a1.5,1.5,0,0,1-.32-3l5.16-1.13a1.5,1.5,0,1,1,.65,2.92l-5.17,1.14A1.66,1.66,0,0,1,194,66.9Zm10.32-2.26a1.5,1.5,0,0,1-.32-3l5.16-1.13a1.49,1.49,0,0,1,1.79,1.14,1.51,1.51,0,0,1-1.15,1.79l-5.16,1.13A1.65,1.65,0,0,1,204.31,64.64Zm10.32-2.27a1.5,1.5,0,0,1-.32-3l5.16-1.13a1.5,1.5,0,1,1,.64,2.93L215,62.33A1.12,1.12,0,0,1,214.63,62.37Zm-32-1.72a1.49,1.49,0,0,1-1.28-.72l-2.73-4.52a1.5,1.5,0,1,1,2.56-1.55l2.74,4.52a1.5,1.5,0,0,1-.51,2.06A1.45,1.45,0,0,1,182.65,60.65ZM225,60.1a1.5,1.5,0,0,1-.32-3L229.79,56a1.5,1.5,0,1,1,.64,2.93l-5.16,1.13A1.12,1.12,0,0,1,225,60.1Zm-47.76-8.49a1.49,1.49,0,0,1-1.29-.72l-2.73-4.52a1.5,1.5,0,1,1,2.56-1.55l2.74,4.52A1.5,1.5,0,0,1,178,51.4,1.54,1.54,0,0,1,177.19,51.61Zm-5.47-9a1.49,1.49,0,0,1-1.29-.72l-2.73-4.52a1.5,1.5,0,0,1,2.57-1.55L173,40.3a1.5,1.5,0,0,1-.51,2.06A1.54,1.54,0,0,1,171.72,42.57Zm-5.47-9a1.5,1.5,0,0,1-1.28-.72l-2.74-4.52a1.5,1.5,0,0,1,2.57-1.56l2.73,4.52a1.5,1.5,0,0,1-.51,2.06A1.46,1.46,0,0,1,166.25,33.53ZM26.61,32.34a1.52,1.52,0,0,1-1.41-1L24,28.13a1.5,1.5,0,0,1,2.82-1l.71,2,.5-.13a1.5,1.5,0,1,1,.71,2.92L27,32.3A2.2,2.2,0,0,1,26.61,32.34Zm6.94-1.68a1.5,1.5,0,0,1-.35-3l5.13-1.24A1.5,1.5,0,1,1,39,29.37L33.9,30.62A1.34,1.34,0,0,1,33.55,30.66Zm10.27-2.49a1.5,1.5,0,0,1-.35-3L48.6,24a1.5,1.5,0,0,1,.71,2.92l-5.14,1.24A1.34,1.34,0,0,1,43.82,28.17Zm10.27-2.48a1.51,1.51,0,0,1-1.46-1.15,1.5,1.5,0,0,1,1.11-1.81l5.13-1.25a1.5,1.5,0,0,1,.71,2.92l-5.14,1.24A1.34,1.34,0,0,1,54.09,25.69Zm106.69-1.2a1.5,1.5,0,0,1-1.28-.72l-2.74-4.52a1.5,1.5,0,0,1,2.57-1.56l2.73,4.52a1.5,1.5,0,0,1-1.28,2.28ZM23.64,24.15a1.49,1.49,0,0,1-1.41-1l-1.35-3.7a1.5,1.5,0,1,1,2.82-1l1.35,3.7a1.5,1.5,0,0,1-.9,1.92A1.52,1.52,0,0,1,23.64,24.15Zm40.72-.95a1.5,1.5,0,0,1-.35-3L69.14,19a1.5,1.5,0,0,1,.71,2.91l-5.14,1.25A1.34,1.34,0,0,1,64.36,23.2Zm10.27-2.49a1.5,1.5,0,0,1-.35-3l5.13-1.24a1.5,1.5,0,0,1,.71,2.92L75,20.67A1.39,1.39,0,0,1,74.63,20.71ZM84.9,18.23a1.5,1.5,0,0,1-.35-3L89.68,14a1.5,1.5,0,0,1,.71,2.92l-5.14,1.24A1.41,1.41,0,0,1,84.9,18.23Zm10.27-2.49a1.5,1.5,0,0,1-.35-3L100,11.54a1.5,1.5,0,0,1,.71,2.91L95.52,15.7A1.45,1.45,0,0,1,95.17,15.74Zm60.14-.29a1.51,1.51,0,0,1-1.28-.72l-2.74-4.53a1.5,1.5,0,0,1,2.57-1.55l2.73,4.52a1.5,1.5,0,0,1-1.28,2.28Zm-49.87-2.2a1.5,1.5,0,0,1-.35-3l5.13-1.24a1.5,1.5,0,0,1,.71,2.92l-5.14,1.24A1.45,1.45,0,0,1,105.44,13.25Zm10.27-2.48a1.51,1.51,0,0,1-1.46-1.15,1.5,1.5,0,0,1,1.11-1.81l5.13-1.25a1.5,1.5,0,0,1,.71,2.92l-5.14,1.24A1.48,1.48,0,0,1,115.71,10.77ZM126,8.28a1.5,1.5,0,0,1-.35-3l5.13-1.24A1.5,1.5,0,0,1,131.47,7l-5.14,1.25A1.45,1.45,0,0,1,126,8.28Zm23.86-1.87a1.5,1.5,0,0,1-1.28-.73l-1.49-2.46-.2,0a1.5,1.5,0,1,1-.7-2.91L147.43,0a1.49,1.49,0,0,1,1.63.68l2.07,3.41a1.5,1.5,0,0,1-.51,2.06A1.46,1.46,0,0,1,149.84,6.41Zm-13.59-.62a1.5,1.5,0,0,1-.35-3L141,1.59a1.5,1.5,0,0,1,.71,2.92L136.6,5.75A1.45,1.45,0,0,1,136.25,5.79Z"/><ellipse class="cls-1" cx="230.52" cy="59.86" rx="20.83" ry="7.85"/><ellipse class="cls-1" cx="20.83" cy="13.41" rx="20.83" ry="7.85"/></g></g></svg>