<svg xmlns="http://www.w3.org/2000/svg" xmlns:xlink="http://www.w3.org/1999/xlink" viewBox="0 0 375.61 613.22"><defs><style>.cls-1{fill:none;}.cls-2{isolation:isolate;}.cls-3{fill:#f7e4e2;}.cls-4{fill:#f7baba;}.cls-5{fill:#fff;}.cls-6{fill:#c8e6e7;}.cls-7{fill:#de535e;}.cls-8{fill:#6ac2c1;}.cls-9{fill:#ef7c80;}.cls-10{clip-path:url(#clip-path);}.cls-11,.cls-12{fill:#f49a6e;}.cls-12{opacity:0.4;mix-blend-mode:multiply;}.cls-13{fill:#115f5c;}.cls-14{fill:#1d2827;}.cls-15{fill:#b96d6b;}.cls-16{clip-path:url(#clip-path-2);}</style><clipPath id="clip-path"><circle class="cls-1" cx="86.19" cy="162.56" r="51.74"/></clipPath><clipPath id="clip-path-2"><circle class="cls-1" cx="294.04" cy="209.16" r="51.74"/></clipPath></defs><title>Slide3</title><g class="cls-2"><g id="Слой_2" data-name="Слой 2"><g id="Слой_1-2" data-name="Слой 1"><polygon class="cls-3" points="375.61 7.62 0 7.62 0 146.91 0 148.01 0 154.21 0 175.68 0 408.64 375.61 408.64 375.61 7.62"/><polygon class="cls-4" points="251.78 232.34 205.65 167.18 183.81 172.11 229.95 237.27 251.78 232.34"/><polygon class="cls-4" points="252.49 259.46 237.34 237.62 215.51 242.55 230.65 264.39 252.49 259.46"/><polygon class="cls-4" points="185.57 380.27 236.29 366.88 216.56 333.77 167.25 347.16 169.63 351.46 158.8 354.4 171.51 377.38 182.38 374.51 185.57 380.27"/><polygon class="cls-4" points="289.82 180.21 273.97 164.01 254.6 168.24 270.45 184.44 289.82 180.21"/><polygon class="cls-4" points="287.95 272.95 305.11 290.95 371.48 274.14 354.32 256.14 287.95 272.95"/><polygon class="cls-4" points="255.57 234.75 272.74 252.75 339.11 235.93 321.94 217.93 255.57 234.75"/><polygon class="cls-4" points="224.19 148.16 237.34 164.36 256.72 160.13 243.56 143.93 224.19 148.16"/><polygon class="cls-4" points="207.76 41.44 207.71 41.38 273.96 33.34 261.3 22.07 197.03 30.07 172.54 4.1 151.76 6.57 186.98 43.9 207.76 41.44"/><polygon class="cls-4" points="201.42 87.58 125.69 7.63 109.14 6.92 182.75 90.75 201.42 87.58"/><polygon class="cls-4" points="222.9 138.65 242.28 134.42 208.81 96.38 190.94 100.61 222.9 138.65"/><polygon class="cls-4" points="255.31 116.81 284.54 148.16 302.15 144.11 273.27 113.29 255.31 116.81"/><polygon class="cls-4" points="214.45 53.06 197.19 55.17 241.92 104.84 259.89 100.61 214.45 53.06"/><polygon class="cls-4" points="330.33 114.7 263.06 44.96 245.8 47.07 312.37 118.92 330.33 114.7"/><polygon class="cls-4" points="161.71 139.71 177.82 163.3 197.19 159.08 179.58 135.48 161.71 139.71"/><polygon class="cls-4" points="133.18 116.46 146.83 140.06 166.2 135.83 151.05 112.23 133.18 116.46"/><polygon class="cls-4" points="112.75 87.28 124.94 108.36 142.25 104.58 128.72 83.5 112.75 87.28"/><polygon class="cls-4" points="0 162.35 0 175.68 16.78 172.71 20.19 172.1 15.45 159.52 14.83 159.63 0 162.35"/><polygon class="cls-4" points="168.28 228.09 81.51 247.97 84.17 255.29 20.64 271.61 28.63 301.66 94.67 285.14 92.28 277.6 184.35 255.36 168.28 228.09"/><polygon class="cls-4" points="124.99 76.41 78.5 7.98 61.94 7.63 107.68 80.18 124.99 76.41"/><polygon class="cls-4" points="54.56 82.62 73.5 80.39 51.21 45.9 32.89 46.81 54.56 82.62"/><polygon class="cls-4" points="46.63 38.26 24.35 3.76 6.03 4.68 27.7 40.49 46.63 38.26"/><polygon class="cls-4" points="285.95 279.89 270.8 258.05 248.97 262.98 264.11 284.82 285.95 279.89"/><polygon class="cls-4" points="249.2 292.11 262.95 311.94 282.78 307.46 269.03 287.63 249.2 292.11"/><polygon class="cls-4" points="121 360.79 127.81 373.22 155.38 365.57 148.57 353.15 121 360.79"/><polygon class="cls-4" points="117.83 386.15 130.52 411.86 152.81 405.27 140.12 379.56 117.83 386.15"/><polygon class="cls-4" points="317.65 364.06 332.62 383.79 359.91 377.63 344.94 357.9 317.65 364.06"/><polygon class="cls-4" points="343.01 354.73 312.89 314.93 285.6 321.1 315.71 360.89 343.01 354.73"/><polygon class="cls-4" points="80.36 126.56 70.99 111.76 34.45 118.69 42.54 133.56 76.29 127.39 84.34 142.2 98.19 139.73 100.28 143.72 77.87 147.88 81.11 154.12 51.31 159.89 54.78 167.51 50.39 168.44 56.39 182.99 67.76 180.78 61.25 168.24 103.31 159.89 110.88 172.39 131.22 168.44 102.64 122.38 80.36 126.56"/><path class="cls-4" d="M127,339.68l13.89-3.89L138.69,330S216,308.53,218.1,309.09c-1-1.21-16.34-28.87-16.34-28.87l-25.84,6.39,3.06,6.12-50.29,11.39-2.5-5.28-70.86,17.5,13.06,38.35,33.34-8.34,3.06,8.34,23.62-11.4Z"/><path class="cls-4" d="M218.15,309.12l-.05,0C218.14,309.14,218.16,309.16,218.15,309.12Z"/><rect class="cls-4" x="9.64" y="376.04" width="56" height="22.19"/><polygon class="cls-4" points="375.61 298.92 342.66 307.27 359.82 325.27 375.61 321.27 375.61 298.92"/><polygon class="cls-4" points="0 33.08 0 66.08 7.08 78.19 26.02 75.96 0 33.08"/><polygon class="cls-4" points="6.65 132.31 0 133.53 0 146.91 11.38 144.89 6.65 132.31"/><polygon class="cls-4" points="23.73 143.67 15.5 145.18 0 148.01 0 154.21 2.07 160.93 14.79 158.67 28.46 156.25 23.73 143.67"/><polygon class="cls-4" points="0 354.62 41.62 344.97 34.46 325.14 0 333.13 0 354.62"/><polygon class="cls-4" points="375.61 146.27 337.37 155.17 347.7 166.34 375.61 159.85 375.61 146.27"/><polygon class="cls-4" points="375.61 190.39 375.61 176.82 343.68 184.25 322.45 161 302.86 165.74 334.75 200.23 353.96 195.51 353.9 195.45 375.61 190.39"/><path class="cls-5" d="M314.49,372.68l-50.57-67.44L161.81,169h0l55.82-10.83,30.2,33.45a2.26,2.26,0,0,0,1.67.7,2.48,2.48,0,0,0,.54-.06l50.16-11.51,75.41,71.78V237.19l-34.69-32.47L366.44,199l9.17,8.73v-5.44l-4.54-4.33,4.54-1v-9.49l-42.86,9.65-39.89-37.33,82.75-18.34v-9.47l-49.73,11,1.32-16.44,14.92-4.93a2,2,0,0,0,1.32-1.31,1.7,1.7,0,0,0-.55-1.68l-73-65.35,14.55-1.65,91.2,73.23V111.31L237.18,4.93a4.1,4.1,0,0,0-5.22.23,2.93,2.93,0,0,0,.26,4.54l48.15,38.65-95,10.78L141.36,18a5.84,5.84,0,0,0-7.46-.24c-2.14,1.72-.17,4.63,1.82,6.49l73.37,69.84-87.58,21.23h0l-1.1-1.46a26.8,26.8,0,0,0-2.56-2.92L44,12.73c-2.4-3.19-7.61-4.08-11.27-2S32.58,17.1,35,20.28L90,96.86h0c-9.33-1.87-21.06-2.21-35.54.64-3.27.65-6.69,1.44-10.25,2.44l-.36.11-17.07,5.53L0,95.76v4l21,7.69L0,114.26V129l6.77-2.19a32.91,32.91,0,0,1,11.75,6.16A36.24,36.24,0,0,1,27.24,143l3,6.72L40.67,172.9,0,180.37v3.75l42.23-7.76h0l3,6.56a2.12,2.12,0,0,0,2,1.17,3,3,0,0,0,.42,0l90.71-16.16,1.85-.33,9,12.6L164,201,63.68,219.8,0,211.44v6.5l43.25,5.68L1.13,231.5a5.46,5.46,0,0,0-1.13.34v13.41l2.44,6.87L0,252.6V262l5.56-1.09,9.51,26.81L0,290.93v9.46l22.29-4.74a5.73,5.73,0,0,0,1.06-.18,5,5,0,0,0,.51-.16l14.73-3.13,13,31.9a93.93,93.93,0,0,0-31.24,2.53L0,331.06v9.46l23.08-5,.32-.08c.29-.08,28.31-7.71,44.44,3.75,9.65,6.86,13.37,19.56,11,37.74-.32,2.52,1.77,4.79,4.67,5.08l.59,0a5.07,5.07,0,0,0,5.24-4.08c1.63-12.76.51-23.36-3.29-31.77L151,318.81l82.4-20.58,53.16,74.45L310,405.46c1.51,2.06,10.36,3.18,13,3.18a8.83,8.83,0,0,0,4.26-1.09c3.69-2.05,8.66-6.31,6.3-9.51ZM188.88,64.38l75.75-8.88,73,67.49-13.19,4.5a1.91,1.91,0,0,0-1.35,1.64l-1.51,19.44L284.67,157ZM48.47,186,31.47,147l-.32-.73a1,1,0,0,1,0-.1,43.06,43.06,0,0,0-11-12.59A37.85,37.85,0,0,0,12.46,129l12.62-4.23,24.13-8.08c3.2-.92,6.24-1.64,9.12-2.21,35.45-7,48.11,9.86,48.63,10.58l.08.13,30.71,44.44Zm110.87-14.89-3.49-4.81L138.22,142l-14.3-19.7,88.37-22.13L297,183.52,250.3,194.59l-30.17-34.53a2.28,2.28,0,0,0-2.12-.68l-58.67,11.76Zm-134,123.79L9,247.27l161-31.1L198.11,257h0ZM147.66,320.3a5,5,0,0,0-.85.29L81.05,349.21A34.69,34.69,0,0,0,74.53,343a40.45,40.45,0,0,0-10.67-5.53l-15-37.94L204,265.43h0l23.64,34.22Z"/><polygon class="cls-6" points="80.2 5.04 146.11 99.5 177.6 91.1 97.83 0 80.2 5.04"/><path class="cls-6" d="M138.14,184.31l11.33,17.63s4.2,5.88-6.72,8.4-14.69-5.46-20.57-12.18-18.05-8-16.37-11.33S133.52,173.39,138.14,184.31Z"/><path class="cls-7" d="M176.54,71.36a2,2,0,0,1-3.38,0l-7.55-13.11a10.89,10.89,0,1,1,18.41.12Z"/><circle class="cls-5" cx="174.85" cy="52.5" r="8.52"/><path class="cls-7" d="M220.2,130.83a2,2,0,0,1-3.38,0l-7.55-13.1A10.89,10.89,0,1,1,229.4,112a10.8,10.8,0,0,1-1.72,5.87Z"/><circle class="cls-5" cx="218.51" cy="111.97" r="8.52"/><path class="cls-7" d="M67.2,77.83a2,2,0,0,1-3.38,0l-7.55-13.1A10.89,10.89,0,1,1,76.4,59a10.8,10.8,0,0,1-1.72,5.87Z"/><circle class="cls-5" cx="65.51" cy="58.97" r="8.52"/><path class="cls-8" d="M222.79,83.7a2,2,0,0,1-3.38,0l-7.55-13.11a10.89,10.89,0,1,1,18.41.12Z"/><circle class="cls-5" cx="221.1" cy="64.84" r="8.52"/><path class="cls-7" d="M27.48,341.85a2,2,0,0,1-3.38,0l-7.55-13.11a10.89,10.89,0,1,1,18.41.12Z"/><circle class="cls-5" cx="25.79" cy="322.99" r="8.52"/><path class="cls-8" d="M20.84,93.4a1.94,1.94,0,0,1-3.38,0L9.91,80.3A10.89,10.89,0,1,1,30,74.54a10.8,10.8,0,0,1-1.72,5.87Z"/><circle class="cls-5" cx="19.15" cy="74.54" r="8.52"/><path class="cls-8" d="M278.84,73.4a1.94,1.94,0,0,1-3.38,0l-7.55-13.1A10.89,10.89,0,1,1,288,54.54a10.8,10.8,0,0,1-1.72,5.87Z"/><circle class="cls-5" cx="277.15" cy="54.54" r="8.52"/><path class="cls-7" d="M316.68,104.37a2,2,0,0,1-3.38,0l-7.55-13.11a10.88,10.88,0,1,1,18.41.12Z"/><circle class="cls-5" cx="314.99" cy="85.51" r="8.52"/><path class="cls-9" d="M252.22,335.11a1.49,1.49,0,0,1-1.28-.72l-1.93-3.2a1.5,1.5,0,1,1,2.56-1.55l1.38,2.27.46-.1a1.5,1.5,0,1,1,.65,2.93l-1.52.33A1.12,1.12,0,0,1,252.22,335.11Zm6.67-1.47a1.5,1.5,0,0,1-.32-3l5.16-1.14a1.5,1.5,0,0,1,.65,2.93l-5.16,1.14Zm10.32-2.27a1.5,1.5,0,0,1-.32-3l5.16-1.14a1.5,1.5,0,0,1,.65,2.93l-5.17,1.14A1.66,1.66,0,0,1,269.21,331.37Zm10.32-2.27a1.5,1.5,0,0,1-.32-3l5.16-1.14a1.5,1.5,0,0,1,.65,2.93l-5.16,1.14Zm-32-1.71a1.51,1.51,0,0,1-1.29-.72l-2.73-4.52a1.5,1.5,0,1,1,2.56-1.55l2.74,4.52a1.5,1.5,0,0,1-.51,2.06A1.54,1.54,0,0,1,247.56,327.39Zm42.29-.56a1.5,1.5,0,0,1-.32-3l5.16-1.14a1.5,1.5,0,1,1,.64,2.93l-5.16,1.14A1.66,1.66,0,0,1,289.85,326.83Zm-47.76-8.48a1.51,1.51,0,0,1-1.29-.72l-2.73-4.52a1.5,1.5,0,0,1,2.56-1.56l2.74,4.52a1.5,1.5,0,0,1-.51,2.06A1.46,1.46,0,0,1,242.09,318.35Zm-5.47-9a1.51,1.51,0,0,1-1.29-.72l-2.73-4.52a1.5,1.5,0,0,1,2.57-1.56L237.9,307a1.5,1.5,0,0,1-.51,2.06A1.46,1.46,0,0,1,236.62,309.31Zm-5.47-9a1.48,1.48,0,0,1-1.28-.73L227.13,295a1.5,1.5,0,1,1,2.57-1.55l2.73,4.52a1.5,1.5,0,0,1-1.28,2.28ZM91.51,299.08a1.52,1.52,0,0,1-1.41-1l-1.17-3.22a1.5,1.5,0,1,1,2.82-1l.72,2,.5-.12a1.5,1.5,0,1,1,.7,2.92l-1.8.43A1.49,1.49,0,0,1,91.51,299.08Zm6.94-1.68A1.52,1.52,0,0,1,97,296.25a1.5,1.5,0,0,1,1.11-1.81l5.14-1.25a1.5,1.5,0,1,1,.7,2.92l-5.13,1.24A1.49,1.49,0,0,1,98.45,297.4Zm10.27-2.49a1.5,1.5,0,0,1-.35-3l5.13-1.24a1.51,1.51,0,0,1,1.82,1.1,1.5,1.5,0,0,1-1.11,1.81l-5.14,1.25A2,2,0,0,1,108.72,294.91ZM119,292.42a1.5,1.5,0,0,1-.35-3l5.13-1.24a1.5,1.5,0,0,1,.71,2.92l-5.14,1.24A1.34,1.34,0,0,1,119,292.42Zm106.69-1.19a1.48,1.48,0,0,1-1.28-.73L221.66,286a1.5,1.5,0,0,1,2.57-1.55L227,289a1.5,1.5,0,0,1-1.28,2.28Zm-137.14-.34a1.49,1.49,0,0,1-1.41-1l-1.35-3.7a1.5,1.5,0,1,1,2.82-1L90,288.88a1.5,1.5,0,0,1-.9,1.92A1.52,1.52,0,0,1,88.54,290.89Zm40.72-.95a1.5,1.5,0,0,1-.35-3l5.13-1.25a1.5,1.5,0,0,1,.71,2.92l-5.14,1.24A1.34,1.34,0,0,1,129.26,289.94Zm10.27-2.49a1.5,1.5,0,0,1-.35-3l5.13-1.24a1.5,1.5,0,1,1,.71,2.91l-5.14,1.25A2,2,0,0,1,139.53,287.45ZM149.8,285a1.5,1.5,0,0,1-.35-3l5.13-1.24a1.5,1.5,0,0,1,.71,2.92l-5.14,1.24A1.39,1.39,0,0,1,149.8,285Zm10.27-2.48a1.5,1.5,0,0,1-.35-3l5.13-1.25a1.5,1.5,0,0,1,.71,2.92l-5.14,1.24A1.41,1.41,0,0,1,160.07,282.48Zm60.14-.29a1.5,1.5,0,0,1-1.28-.73l-2.74-4.52a1.5,1.5,0,0,1,2.57-1.55l2.73,4.52a1.5,1.5,0,0,1-1.28,2.28ZM170.34,280a1.5,1.5,0,0,1-.35-3l5.13-1.24a1.5,1.5,0,0,1,.71,2.91L170.69,280A1.45,1.45,0,0,1,170.34,280Zm10.27-2.49a1.5,1.5,0,0,1-.35-3l5.13-1.24a1.5,1.5,0,0,1,.71,2.92L181,277.46A1.45,1.45,0,0,1,180.61,277.5ZM190.88,275a1.5,1.5,0,0,1-.35-3l5.13-1.25a1.5,1.5,0,0,1,.71,2.92L191.23,275A1.48,1.48,0,0,1,190.88,275Zm23.86-1.88a1.49,1.49,0,0,1-1.28-.72L212,270l-.2.05a1.5,1.5,0,1,1-.7-2.92l1.26-.3a1.51,1.51,0,0,1,1.64.68l2.06,3.41a1.5,1.5,0,0,1-.51,2.06A1.45,1.45,0,0,1,214.74,273.14Zm-13.59-.61a1.5,1.5,0,0,1-.35-3l5.13-1.24a1.5,1.5,0,0,1,.71,2.91l-5.14,1.25A1.45,1.45,0,0,1,201.15,272.53Z"/><ellipse class="cls-9" cx="295.42" cy="326.59" rx="20.83" ry="7.85"/><ellipse class="cls-9" cx="85.73" cy="280.15" rx="20.83" ry="7.85"/><path class="cls-6" d="M115.83,200.9c-5.29-8.21-15.24-10.66-24.45-10a88,88,0,0,0-15.78,2.86c-6.09,1.62-10.92,5.51-16.82,7.32-7.38,2.25-13.77-1.87-21-2.22-5.91-.29-11.54,1.88-17.22,3.16a24.36,24.36,0,0,1-12.2.12c-2.86-.81-5.49-2.25-8.35-3V218.9a26,26,0,0,0,9.33.77c5.67-.61,11.12-2.51,16.79-3,6.59-.62,11.9,1.74,17.9,4,4.41,1.66,8.74,2.67,13.38,1.33,2.26-.65,4.31-1.91,6.55-2.59,5-1.51,10-.32,15,.49,9.65,1.57,21.26,5.11,30.51.37,3.44-1.76,7.73-4.68,8.76-8.64C119.11,208.05,117.74,203.86,115.83,200.9Z"/><path class="cls-7" d="M96.45,277.17a11.84,11.84,0,0,1-20.51,0L30,197.53a66.14,66.14,0,1,1,111.86.7Z"/><circle class="cls-3" cx="86.19" cy="162.56" r="51.74"/><g class="cls-10"><path class="cls-11" d="M78.15,166,77.08,180.4S76,184,73,184.32s-19.41,3.56-19.41,3.56-16.56,3-21,22.44-3,53.79-3,53.79L143,265.89s1.07-45.59-3.92-59.49c-.2-.58-.42-1.14-.65-1.68a30.77,30.77,0,0,0-22.86-18.07l-12.76-2.4s-2.84-.36-3.2-4.46-.25-13.64-.25-13.64Z"/><path class="cls-12" d="M78.15,166l-.42,5.72c2.26,2.1,5.44,4.82,7.72,5.86,3.12,1.42,10.07.46,13.68-1.25a88,88,0,0,1,.21-10.15Z"/><path class="cls-5" d="M138.41,204.72a30.77,30.77,0,0,0-22.86-18.07l-12.76-2.4a3.54,3.54,0,0,1-2.09-1.32c-3.87,4.9-14,14.6-25.2.09a4.2,4.2,0,0,1-2.52,1.3c-3,.35-19.41,3.56-19.41,3.56s-16.56,3-21,22.44-3,53.79-3,53.79L143,265.89s1.07-45.59-3.92-59.49C138.86,205.82,138.64,205.26,138.41,204.72Z"/><path class="cls-13" d="M115.55,186.65l-8.28-1.56c-1.8,9.62-6,33.56-6.16,46.91l8.94.1c.13-12.49,4.25-35.93,6-45.34Z"/><path class="cls-13" d="M62.82,216.36c.48,13.68.55,16.06.55,16.44h0a4.47,4.47,0,0,0,4.5,4.53H68c3.34-.13,4.09-2.44,4.22-4.94h0c0-.83,0-1.68,0-2.48-.08-2.34-.22-6.51-.48-13.85-.62-17.61-2.71-28.15-3.34-31-2.67.48-6,1.1-8.79,1.64C60,188.32,62.19,198.59,62.82,216.36Z"/><rect class="cls-13" x="62.76" y="217.62" width="48.34" height="50.58"/><path class="cls-11" d="M89.37,172.56s11.93,2.32,15.14-19.05c0,0,2.67-.9,3.21-5a9.77,9.77,0,0,0-1.79-7l-2.67-12.64L81,127.15l-8.55,9.43L72,139.92c0,.35.06.85-.24,1-1.8,1.15-3.23,9.16,1,12.72C72.81,153.68,77.44,173.1,89.37,172.56Z"/><path class="cls-14" d="M79.22,134.27s15.85-2.85,20.12.53,2.82,13.76,4.64,13.72c4-.1,3.74-11.4,3.74-11.4l-3.92-12.47-26.18-3-6.42,9.8c-.39-.17-.47,15.63,2.14,17.63,1.22.93,2.14-1.07,2.32-3.38S75.83,135.34,79.22,134.27Z"/><path class="cls-15" d="M70.85,139.08h37s11.1,2.4,8.19,4.32c-7,4.64-45.23-4.32-45.23-4.32h37"/><path class="cls-7" d="M107.89,139.08V127.35c0-7.83-6.7-14.24-14.89-14.24H85.74c-8.19,0-14.89,6.41-14.89,14.24v11.73Z"/></g><path class="cls-8" d="M304.29,323.76a11.83,11.83,0,0,1-20.51,0l-45.89-79.64a66.14,66.14,0,1,1,111.86.7Z"/><circle class="cls-3" cx="294.04" cy="209.16" r="51.74"/><g class="cls-16"><path class="cls-11" d="M298,565.58s2.63,17.59-1.1,26.39-7.26,18.91-.66,20.67,13.19-2.64,11.21-21.33-.44-26.39-.44-26.39Z"/><path class="cls-11" d="M287.64,564.7s1.1,23.31,1.32,30.12,1.32,16.72-7.7,18.26-7.25-9.46-4.61-18.26,4.17-14.29,1.53-26.38S287.64,564.7,287.64,564.7Z"/><path class="cls-13" d="M307.76,596l-.33-.06s-7.7,8.58-11.87.66c-.12-.21-.22-.38-.33-.55-2.92,7.61-4.61,15.11,1,16.61C302.22,614.24,308.23,610.73,307.76,596Z"/><path class="cls-11" d="M287.64,564.7s1.1,23.31,1.32,30.12,1.32,16.72-7.7,18.26-7.25-9.46-4.61-18.26,4.17-14.29,1.53-26.38S287.64,564.7,287.64,564.7Z"/><path class="cls-5" d="M257.62,356.12s-2,18.47,1.32,66,6.93,78.18,6.93,78.18,10.23,58.05,12.2,67.62c0,0,4.62,2.63,8.91-.33l1.65-1.65,3.63-194.28,5.28,194.61s6.92,4.28,9.56.66,18.47-97.31,19.79-132.6,1.21-81.37,1.21-81.37Z"/><path class="cls-14" d="M267.85,232.43c-9.46-10.12-10.56-22-1.54-25.29s10.56-3.08,8.8-9.68-6.38-15.17-3.52-20.45,8.79-19.13,16.49-15.83,7.26-.44,12.09,0,17.6,2,18.48,13.85-4,12.54,3.51,21.33,10.56,22.65-2,32.11S267.85,232.43,267.85,232.43Z"/><path class="cls-7" d="M286.23,206.47s1.25,10.2-.62,12.44S262.1,226.62,259,232s-7.71,14.3-4.35,28.23,16.17,25,17.79,28.61,3.36,6.09,2.24,9.08S267,308.34,265,316.17s-7,27.09-8,42.59,70.92,3.63,71.25,1.32-.66-22.43-4.29-35.62-8.5-19.24-10.55-22.76c-2.31-4,0-12.87,0-12.87S332.5,278,332.83,249.58c.1-8.91-1.65-15.17-7.26-19.13s-20.78-8.25-20.78-8.25-2.31-1-2.64-5.27a110.81,110.81,0,0,1,.33-12.54Z"/><path class="cls-7" d="M317.56,285.67c-2.35-6.22-4-10.53-4-10.53l-18.47-27.21-26.51,35.79a31.27,31.27,0,0,1,3.88,5.09c1.22,2.72,2.5,4.8,2.58,6.95,10.12-.55,31.64,1.27,47.18,23.15-3.32-9.42-7.08-14.23-8.82-17.21-2.31-4,0-12.87,0-12.87A28.28,28.28,0,0,0,317.56,285.67Z"/><path class="cls-13" d="M289,596c-1.31,2.33-8,13.21-12.63.9-.06-.17-.13-.3-.19-.46-2.35,8.46-3.38,18.07,5.08,16.63S289.27,602.74,289,596Z"/><path class="cls-11" d="M278.62,222.08c2.57,9,8.34,15.3,15.07,15.3,6.42,0,12-5.74,14.69-14.09-2.15-.68-3.59-1.09-3.59-1.09s-2.31-1-2.64-5.27a110.81,110.81,0,0,1,.33-12.54l-16.25,2.08s1.25,10.2-.62,12.44C285,219.65,282.19,220.75,278.62,222.08Z"/><path class="cls-12" d="M297,222.39a15.59,15.59,0,0,0,5.86-2.49,9.13,9.13,0,0,1-.7-3,110.81,110.81,0,0,1,.33-12.54l-16.25,2.08a56.09,56.09,0,0,1,.34,8.72C289.22,218.38,293.6,222.87,297,222.39Z"/><path class="cls-11" d="M293.58,175.58s-2.86,8.58-8.8,11.66-1.87,23.42,5.94,25.73,14.07-7.59,15.61-10.78,4.4-3.3,5.06-6.49.11-5.49-2.09-4.39-4.62-.44-5.94-3.63S297.54,176.24,293.58,175.58Z"/><ellipse class="cls-5" cx="310.02" cy="202.41" rx="2.8" ry="3.63"/><path class="cls-11" d="M311.39,195.71c-.66,3.18-3.52,3.3-5.06,6.48a27.42,27.42,0,0,1-6,8h0c-2.65,2.31-5.95,3.87-9.58,2.8a7.14,7.14,0,0,1-3-1.93c-5.73-5.71-8-21.15-2.92-23.8,5.94-3.08,8.8-11.65,8.8-11.65,4,.66,8.46,8.9,9.78,12.08s3.75,4.74,5.94,3.63S312.05,192.52,311.39,195.71Z"/></g></g></g></g></svg>