<svg xmlns="http://www.w3.org/2000/svg" viewBox="0 0 476 402.38"><defs><style>.cls-1{fill:#f8e6e2;}.cls-2{fill:#f29291;}.cls-3{fill:#f49a6e;}.cls-4{fill:#fff;}.cls-5{fill:#b35a5d;}.cls-6{fill:#f3cdca;}.cls-7{fill:#115f5c;}.cls-8{fill:#b96d6b;}.cls-9{fill:#de535e;}.cls-10{fill:#1d2827;}.cls-11{fill:#db4d58;}.cls-12{fill:#dc805b;}</style></defs><title>Slide2</title><g id="Слой_2" data-name="Слой 2"><g id="Слой_1-2" data-name="Слой 1"><ellipse class="cls-1" cx="238" cy="201.19" rx="238" ry="201.19"/><ellipse class="cls-2" cx="356.66" cy="335.82" rx="65.85" ry="17.89"/><ellipse class="cls-2" cx="260.42" cy="333.79" rx="80.26" ry="25.31"/><polygon class="cls-3" points="310.42 319.55 309.71 328.14 317.58 327.07 317.94 319.01 310.42 319.55"/><ellipse class="cls-2" cx="101.8" cy="315.2" rx="70.15" ry="15.03"/><rect class="cls-2" x="132.38" y="115.05" width="45.83" height="56.45" transform="translate(310.59 286.56) rotate(-180)"/><rect class="cls-4" x="136.24" y="119.96" width="38.11" height="46.65" transform="translate(310.59 286.56) rotate(-180)"/><path class="cls-2" d="M152.64,128.15l-9.87,17.09a3.07,3.07,0,0,0,2.66,4.6h19.73a3.07,3.07,0,0,0,2.66-4.6L158,128.15A3.07,3.07,0,0,0,152.64,128.15Z"/><polyline class="cls-4" points="153.62 147.57 156.29 144.94 153.9 144.94 158.64 137.91 154.49 137.91 157.53 129.75 150.44 140.47 153.99 140.47 153.24 144.94 151.04 144.94"/><rect class="cls-2" x="141.4" y="153.49" width="27.78" height="3.23" transform="translate(310.59 310.21) rotate(-180)"/><rect class="cls-2" x="141.4" y="158.69" width="27.78" height="3.23" transform="translate(310.59 320.61) rotate(-180)"/><path class="cls-5" d="M195.08,339.54h-.17a1.64,1.64,0,0,1-1.47-1.8l12.88-131.9a1.67,1.67,0,0,1,1.8-1.48,1.64,1.64,0,0,1,1.47,1.8l-12.88,131.9A1.64,1.64,0,0,1,195.08,339.54Z"/><path class="cls-6" d="M233.3,93.89c0,16,3,29,18.61,29s37.93-13,37.93-29-12.65-29-28.27-29S233.3,77.88,233.3,93.89Z"/><circle class="cls-2" cx="279.11" cy="79.22" r="27.33"/><circle class="cls-4" cx="279.11" cy="77.39" r="22.19"/><path class="cls-2" d="M276.45,74.66,274.4,92.14a.2.2,0,0,0,.39.1L281,75.74a2.08,2.08,0,0,0-1.5-2.76l-.47-.11A2.09,2.09,0,0,0,276.45,74.66Z"/><path class="cls-2" d="M278.18,77.45l14.11,1.27a.2.2,0,0,0,.1-.38L279.26,73a2.09,2.09,0,0,0-2.77,1.5l-.11.47A2.09,2.09,0,0,0,278.18,77.45Z"/><path class="cls-7" d="M244.64,147.23a1,1,0,0,1-.35.57l-3.14,15.4-1.57-.32,3.14-15.4a1,1,0,0,1-.09-.66l.55-3.84a.55.55,0,0,1,.66-.43l1.24.25a.56.56,0,0,1,.44.66Z"/><path class="cls-2" d="M241.49,168.11l-.1,0-.7,3.47a1.59,1.59,0,0,1,.37,1.37l-.42,4.79a11.62,11.62,0,0,1-.48,2.33l-1.47,4.51a1.6,1.6,0,0,1-1.89,1.24l-2.08-.42a1.62,1.62,0,0,1-1.25-1.89l.49-4.71a10.86,10.86,0,0,1,.39-1.95l1.5-5a1.58,1.58,0,0,1,.88-1.12l.71-3.47h-.1a1.16,1.16,0,0,1,.46-2.27l.1,0,.24-1.18a1.94,1.94,0,0,1,2.28-1.51l.17,0a1.93,1.93,0,0,1,1.51,2.27l-.24,1.19.09,0a1.15,1.15,0,0,1-.46,2.26Z"/><path class="cls-7" d="M244.16,169v1.48l1.14.33v-1.34s.12.14.5.12h.1c.38,0,.5-.12.5-.12v1.34l1.14-.33V169l-.39-.25a1.89,1.89,0,0,0-.05-1.15l.19-.1.09-1.12-1.22-3.66h-.62l-1.22,3.66.09,1.12.19.1a1.89,1.89,0,0,0,0,1.15Zm1.43-.77a.26.26,0,1,1,.26.26A.26.26,0,0,1,245.59,168.27Zm0-3.53c0-.39.13-.71.29-.71s.29.32.29.71-.13.72-.29.72S245.56,165.14,245.56,164.74Z"/><path class="cls-2" d="M246.21,171.6a.65.65,0,0,1,.35-.91l1-.57s.24-.3.45.12a.71.71,0,0,0,.91.45c.47-.1.5.16.21.39a4.09,4.09,0,0,1-.7.45s-.3.23-.09.75a55.23,55.23,0,0,1,2.3,6.73,27.13,27.13,0,0,1,.21,3.82.76.76,0,0,1-.47.56c-.45.21-.82.38-1.17-.14s-.24-.91-.17-1.5a7.45,7.45,0,0,0-.21-2.7C248.53,178.21,246.21,171.6,246.21,171.6Z"/><path class="cls-2" d="M245.51,171.6a.65.65,0,0,0-.35-.91l-1-.57s-.24-.3-.45.12a.71.71,0,0,1-.91.45c-.47-.1-.49.16-.21.39a4.09,4.09,0,0,0,.7.45s.3.23.09.75a53.75,53.75,0,0,0-2.29,6.73,25.56,25.56,0,0,0-.21,3.82.73.73,0,0,0,.46.56c.45.21.82.38,1.18-.14s.23-.91.16-1.5a7.45,7.45,0,0,1,.21-2.7C243.19,178.21,245.51,171.6,245.51,171.6Z"/><rect class="cls-7" x="265.04" y="162.97" width="15.19" height="22.52" rx="3.4" transform="translate(545.26 348.47) rotate(-180)"/><rect class="cls-4" x="267.83" y="165.66" width="9.95" height="6.11" rx="2.22" transform="translate(545.61 337.43) rotate(-180)"/><rect class="cls-8" x="231.14" y="157.08" width="55.52" height="3.84" transform="translate(517.8 318) rotate(-180)"/><path class="cls-2" d="M257,174.12a.74.74,0,0,1,.5-1l1.15-.51s.3-.32.49.18a.78.78,0,0,0,1,.59c.53-.05.52.24.19.47a4.91,4.91,0,0,1-.84.42.7.7,0,0,0-.19.82,59.75,59.75,0,0,1,1.8,7.75,29.11,29.11,0,0,1-.19,4.28.83.83,0,0,1-.59.57c-.52.19-.95.33-1.28-.29s-.16-1,0-1.69a8.08,8.08,0,0,0,.07-3C258.79,181.74,257,174.12,257,174.12Z"/><path class="cls-2" d="M256.65,174.12a.74.74,0,0,0-.49-1l-1.16-.51s-.29-.32-.48.18a.79.79,0,0,1-1,.59c-.53-.05-.53.24-.19.47a5,5,0,0,0,.83.42.68.68,0,0,1,.19.82,63.26,63.26,0,0,0-1.8,7.75,28.5,28.5,0,0,0,.2,4.28.8.8,0,0,0,.58.57c.52.19,1,.33,1.29-.29a2.07,2.07,0,0,0,0-1.69,8.31,8.31,0,0,1-.06-3C254.81,181.74,256.65,174.12,256.65,174.12Z"/><path class="cls-7" d="M258.28,170.34v-1.57l-1.23-6.72h-.62l-1.23,6.72v1.57h.37c-.39.55.11,1.28.11,1.28h-.29v1.18s1.14.62,1.14.62V172.1H257v1.32s1.09-.62,1.14-.62v-1.18h-.3s.5-.73.11-1.28Zm-1.27.56a.27.27,0,1,1-.27-.27A.27.27,0,0,1,257,170.9Z"/><path class="cls-9" d="M231.84,154.13a2.44,2.44,0,0,1,2.44,2.44v19.56h50.29V156.57a2.44,2.44,0,0,1,4.88,0v41.56a2.44,2.44,0,0,1-2.44,2.44c-.12,0-.23,0-.35,0v0H231.14v-.11a2.45,2.45,0,0,1-1.75-2.33V156.57A2.45,2.45,0,0,1,231.84,154.13Z"/><path class="cls-4" d="M274.46,179.66l1.09-.09c-.42-5-2-6.68-3.26-7.17a3.62,3.62,0,0,0-4.55,4l1.05-.31a2.25,2.25,0,0,1,.84-2.07,2.21,2.21,0,0,1,2.26-.6C272.68,173.73,274.07,175,274.46,179.66Z"/><path class="cls-4" d="M271.69,187.91a3,3,0,0,1,0-.43v-4.63a3.58,3.58,0,1,1,7.15,0v4.63a3,3,0,0,1,0,.43Z"/><path class="cls-4" d="M277.15,192.1a.52.52,0,0,0,.52-.52v-3.75a.52.52,0,0,0-.52-.53.53.53,0,0,0-.53.53v3.75A.52.52,0,0,0,277.15,192.1Z"/><path class="cls-4" d="M273.3,192.1a.52.52,0,0,0,.53-.52v-3.75a.53.53,0,1,0-1.05,0v3.75A.52.52,0,0,0,273.3,192.1Z"/><path class="cls-7" d="M235.74,180.43l2.79-4.71a1.56,1.56,0,0,1,1.52-.76v0H250a7.52,7.52,0,0,1,2.64.16,2.59,2.59,0,0,1,.79,1l2.77,9.94a1.64,1.64,0,0,1-.93,2,1.58,1.58,0,0,1-2.07-1.05l-.75-2.69c-.2-.43-.75-1.47-.63.3a1.48,1.48,0,0,1,0,.4l.71,4.46a1.57,1.57,0,0,1-1.3,1.8l-.25,0a1.57,1.57,0,0,1-1.55-1.32l-.84-5.24c-.12-.69-.37-1.91-.32.23l.26,5.2a1.56,1.56,0,0,1-1.49,1.65H247a1.58,1.58,0,0,1-1.57-1.49l-.29-5.69c0-.31-.16-1-.33-1s-.35.47-.56,1l-1.13,5a1.56,1.56,0,0,1-1.53,1.23l-.32,0a1.68,1.68,0,0,1-1.19-2l2.13-9.46a1,1,0,0,0-.94-1.17,1,1,0,0,0-.82.47l-2,3.3a1.57,1.57,0,1,1-2.7-1.6Z"/><polygon class="cls-6" points="105.29 316.71 108.44 316.71 114.74 76.08 111.59 76.08 105.29 316.71"/><polygon class="cls-6" points="54.27 316.71 57.42 316.71 63.72 76.08 60.57 76.08 54.27 316.71"/><polygon class="cls-9" points="123.26 317.34 126.71 317.34 113.6 45.24 110.15 45.24 123.26 317.34"/><polygon class="cls-9" points="67.38 317.34 70.83 317.34 57.72 45.24 54.27 45.24 67.38 317.34"/><polygon class="cls-9" points="61.79 129.79 116.29 129.79 116.09 125.52 61.58 125.52 61.79 129.79"/><polygon class="cls-9" points="63.19 158.91 117.7 158.91 117.49 154.65 62.99 154.65 63.19 158.91"/><polygon class="cls-9" points="64.6 188.04 119.1 188.04 118.89 183.78 64.39 183.78 64.6 188.04"/><polygon class="cls-9" points="66 217.17 120.5 217.17 120.3 212.91 65.79 212.91 66 217.17"/><polygon class="cls-9" points="67.4 246.3 121.91 246.3 121.7 242.04 67.2 242.04 67.4 246.3"/><polygon class="cls-9" points="68.81 275.43 123.31 275.43 123.11 271.17 68.6 271.17 68.81 275.43"/><polygon class="cls-9" points="57.08 104.41 114.34 104.41 112.25 61.07 54.99 61.07 57.08 104.41"/><path class="cls-7" d="M398.26,249.69a1.06,1.06,0,0,1-1.06-.95,1.08,1.08,0,0,1,.93-1.19c9.73-1.15,9.8-9.14,9-17.23a26.48,26.48,0,0,1-.2-3.47c.19-3.52-6.42-20.32-9-26.49a1.07,1.07,0,1,1,2-.83c1,2.32,9.39,22.79,9.15,27.43a24.22,24.22,0,0,0,.19,3.16c.59,6.32,1.69,18.07-10.92,19.56Z"/><path class="cls-7" d="M399.69,336.72a1.06,1.06,0,0,1-1.05-.91l-12.41-85.37a1.07,1.07,0,1,1,2.11-.31l12.41,85.37a1.08,1.08,0,0,1-.9,1.21Z"/><path class="cls-7" d="M350.54,336.72h-.15a1.08,1.08,0,0,1-.9-1.21l12.41-85.37a1.06,1.06,0,1,1,2.1.31l-12.4,85.37A1.07,1.07,0,0,1,350.54,336.72Z"/><path class="cls-9" d="M348.16,236.69h51.54a0,0,0,0,1,0,0v14.55a0,0,0,0,1,0,0H352.45a8.35,8.35,0,0,1-8.35-8.35v-2.15A4.06,4.06,0,0,1,348.16,236.69Z" transform="translate(743.79 487.93) rotate(-180)"/><path class="cls-9" d="M384.54,181.81h16.58a0,0,0,0,1,0,0v21a0,0,0,0,1,0,0H384.54a3.7,3.7,0,0,1-3.7-3.7v-13.6A3.7,3.7,0,0,1,384.54,181.81Z" transform="translate(781.97 384.62) rotate(-180)"/><polygon class="cls-3" points="309.8 319.72 309.09 328.31 316.96 327.23 317.32 319.18 309.8 319.72"/><path class="cls-10" d="M296.19,336.81c3.71-1.21,11.08-4.22,12.54-9.4l7.34-3s1-.53,2.14.72c1.79,2,1.43,5.81,1.79,7.06s-10.55,6-10.55,6a20.67,20.67,0,0,1-3.58,1.61c-9.83,3.46-12.17,0-12.17,0h0A3.69,3.69,0,0,1,296.19,336.81Z"/><polygon class="cls-3" points="348.45 316.86 350.96 324.37 357.94 321.51 354.9 314.89 348.45 316.86"/><path class="cls-10" d="M338,334c3.72-1.23,11.37-4.45,13-10.49l6.62-2.87a8.09,8.09,0,0,1,5.55,5.19l.43,3.65s-8.79,5.51-12.42,7.27c-2.38,1.15-11.08,3.74-14.42,2.1-1.13-.55-1.43-2.1-1.5-2.1s0,0,0,0h0A4.33,4.33,0,0,1,338,334Z"/><path class="cls-11" d="M361.41,106.43s10.12,7.3,8.32,10.12-11.78-4-11.78-4l.25-5.25Z"/><path class="cls-10" d="M307.83,320.91l11-.24S335,274.15,336.47,268.9s6.2-20,10.49-22.43,33.65-10.26,33.65-10.26L362.71,204l-24.45,3.7-.84,8-18.13,23.38Z"/><path class="cls-12" d="M359.49,117.27s4.41,10.86,15.15,16.58,19.09,19.21,21.24,35c0,0,.82,16,.22,23s-7,11.1-7,11.1-47.6,5.37-50.82,4.77l-.12-6.68s-7.64,3.82-10.26-4.89.35-28.51.35-28.51l-1.07-1s10.14-23.86,25-32.45c0,0,2.87-1,2-8.11S359.49,117.27,359.49,117.27Z"/><path class="cls-4" d="M327.68,167.13l-.52-.47s10.14-23.86,25-32.45l.07,0,.89-.33c7-2.35,14.85-2,18.88-1.55a28.59,28.59,0,0,0,2.59,1.55c10.74,5.73,19.09,19.21,21.24,35,0,0,1.22,16.21.62,23.25s-7.42,10.87-7.42,10.87-41.64,7.51-50.82,4.77l-.12-6.68a29.12,29.12,0,0,1-.36-4.89c0-3,4.89-16,4.53-19C342,174.51,331,169.52,327.68,167.13Z"/><path class="cls-7" d="M389.88,201.42s11.69,21.24,2.38,31-47.48,12.17-47.48,12.17-4.29.95-1.19,3.58c0,0,7.87,13.12,8.59,34.83s3.34,34.6,3.34,34.6-8.59,2.86-8.59,2.15-36.51-86.61-36.51-86.61-5.72-15.51,10.74-17.66S354.8,210,354.8,210l15.51-8.59Z"/><path class="cls-10" d="M358.62,118.78s3.2-1,3.5-4.1-.8-4.2-1.1-5.59,0-3.2-.5-4.8a6.79,6.79,0,0,0-4.11-4c-1.7-.4-7-1.24-10-.64s-3,2.18-3.33,4.48-2.95,4.27-1.95,5.37S358.62,118.78,358.62,118.78Z"/><path class="cls-7" d="M349.28,138.57l-.65,20.14,12.89-1.19s-.63-14.1,11.55-22.14c.51.31,1,.62,1.57.91a30.24,30.24,0,0,1,4.19,2.72c-3.25,2.06-7,6-9,13.5-3.82,14.79,7.16,44.86,7.16,44.86l12.34,7.81-.29.18s-41.64,7.51-50.82,4.77l-.12-6.68a29.12,29.12,0,0,1-.36-4.89c0-3,4.89-16,4.53-19-.09-.8-1.16-1.81-2.69-2.89l2.09-10.83,1.7-22.06A45,45,0,0,1,349.28,138.57Z"/><path class="cls-3" d="M341.54,107.29s-1.1,3.59.2,9.59,5.29,11.28,7.19,11.58,7.89-1.39,9.09-4.29.8-7.79,1.3-8.69,2.6-2.7,1.5-4.4-2.1-1-2.8,0-1.4,1.9-1.8.6-.9-4-1.6-4.59-1.29-3.3-3.49-3S341.54,107.29,341.54,107.29Z"/><path class="cls-9" d="M341.17,112.32s17.16-3.2,19.6-4.87c1.54-1.06.72-13.18-13.33-10.37C335.28,99.51,340.32,110.51,341.17,112.32Z"/><path class="cls-12" d="M345.78,124.05c4.24-6,8.65-3.75,8.65-3.75s2,1.38.63,6.61a12.49,12.49,0,0,1-6.13,1.55c-.93-.14-2.35-1.48-3.72-3.5C345.39,124.65,345.58,124.34,345.78,124.05Z"/><path class="cls-3" d="M334.44,201.73c4.05.12,5.37-1.79,8-6.44s2.62-11.09,4.89-20.64,2.75-30.54,2.86-36.5,1.79-7.28,3-11.45-.36-5.25-.36-5.25-3.22-1.67-6.32,2.74-1.91,11.81-2.15,12.89-9.66,24.09-11.33,30.3-4.42,19-4.54,21.47-.24,6.8,1.2,9.19S334.44,201.73,334.44,201.73Z"/><path class="cls-5" d="M348.9,339.54a1.65,1.65,0,0,1-1.64-1.48l-12.88-131.9a1.64,1.64,0,1,1,3.27-.32l12.88,131.9a1.64,1.64,0,0,1-1.47,1.8Z"/><rect class="cls-5" x="195.07" y="200.69" width="153.82" height="4.33" transform="translate(543.97 405.7) rotate(-180)"/><path class="cls-12" d="M397.55,195.05l-1.32-22.54L377.62,175s1.34,8.83,1.85,12.72a5.42,5.42,0,0,0,.14.7l2.91,11.32c3.08,1.5,7.14,5,8.46,4.49C398.86,201.38,397.55,195.05,397.55,195.05Z"/><path class="cls-12" d="M347.66,173.06c.34-1.75.64-3.76.89-5.93L341.43,159l-5.82.74c-.58,1.57-1.11,3-1.54,4.3a2.13,2.13,0,0,0,1.2.37,3.84,3.84,0,0,0,1-.27,3,3,0,0,1,3.17.66Z"/><path class="cls-12" d="M337.84,160.18a14,14,0,0,0,4.47,2.72c1.29,1.41,3.38,3.63,6,6.29.43-3.11.76-6.66,1-10.24l-4-2.41a6.53,6.53,0,0,1-2.91-3.71,10,10,0,0,0-1.77-3.48,8.87,8.87,0,0,0-.73-.79c-1.25,3.2-2.59,6.65-3.76,9.79A17.46,17.46,0,0,0,337.84,160.18Z"/><rect class="cls-10" x="330.51" y="140.48" width="10.5" height="20.84" rx="2.84" transform="translate(-31.79 130.55) rotate(-21.03)"/><path class="cls-3" d="M395.77,188.5l-52-31.19a2.27,2.27,0,0,1-1-1.4,11.92,11.92,0,0,0-2.15-4.89c-2.14-2.66-6.87-4.72-7.69-4.57-1.27.25-2.71,2.82-1.41,5.75s3.34,6.92,6.32,9.64a14.09,14.09,0,0,0,4.47,2.73c7.15,7.82,38.43,39.78,47.8,39.78h.24C396.6,204.48,401.48,191,395.77,188.5Z"/></g></g></svg>