<svg xmlns="http://www.w3.org/2000/svg" viewBox="0 0 494.56 446.56"><defs><style>.cls-1{fill:#f8e6e2;}.cls-14,.cls-2{fill:#f5afaf;}.cls-13,.cls-17,.cls-18,.cls-19,.cls-2{opacity:0.4;}.cls-17,.cls-18,.cls-19,.cls-2,.cls-22{isolation:isolate;}.cls-3{fill:#f3cecb;}.cls-4{fill:#f29292;}.cls-5{fill:#115f5c;}.cls-6{fill:#33928e;}.cls-19,.cls-7{fill:#df535e;}.cls-8{fill:#6ac2c1;}.cls-9{fill:#fff;}.cls-10{fill:#ba6d6b;}.cls-11,.cls-23{fill:none;}.cls-11{stroke:#ed6e6d;stroke-linecap:round;stroke-linejoin:round;stroke-width:2px;}.cls-12{fill:#ef7c80;}.cls-15,.cls-18{fill:#f49a6e;}.cls-16,.cls-17{fill:#b4d1cf;}.cls-20{fill:#1d2827;}.cls-21{fill:#cc4e4c;}.cls-22{fill:#c3d1dd;opacity:0.68;}.cls-24{fill:#f5adad;}</style></defs><title>Slide4</title><g id="Слой_2" data-name="Слой 2"><g id="Слой_1-2" data-name="Слой 1"><g id="Group_2" data-name="Group 2"><g id="Slide4"><g id="Слой_2-2" data-name="Слой 2"><g id="Слой_1-3" data-name="Слой 1"><ellipse id="Ellipse_1" data-name="Ellipse 1" class="cls-1" cx="247.28" cy="223.28" rx="247.28" ry="223.28"/><path id="Path_1" data-name="Path 1" class="cls-2" d="M219.43,334.77c6.6-1.31,10.61-3,10.61-4.92,0-4.09-18.87-7.41-42.14-7.41s-42.14,3.32-42.14,7.41c0,2.29,5.89,4.33,15.14,5.69-21.28,1.36-35.53,3.83-35.53,6.66,0,4.29,32.71,7.77,73.07,7.77s73.06-3.48,73.06-7.77C271.5,338.69,249.55,335.72,219.43,334.77Z"/><path id="Path_2" data-name="Path 2" class="cls-3" d="M208.16,127.24c0,32.24-3.49,52.24-39.34,53.78s-97.67-27.44-97.67-59.68S100.2,61.71,136,60.17,208.16,95,208.16,127.24Z"/><path id="Path_3" data-name="Path 3" class="cls-4" d="M179,109.19H95.72a11.06,11.06,0,0,0-11.06,11.06V145.3a11.06,11.06,0,0,0,11.06,11.06H179a11.06,11.06,0,0,0,11.06-11.06V120.25A11.06,11.06,0,0,0,179,109.19Zm6.69,36.11A6.7,6.7,0,0,1,179,152H95.72A6.7,6.7,0,0,1,89,145.32V120.25a6.71,6.71,0,0,1,6.69-6.69H179a6.71,6.71,0,0,1,6.69,6.69Z"/><rect id="Rectangle_1" data-name="Rectangle 1" class="cls-5" x="94.08" y="117.29" width="5.47" height="32.82"/><rect id="Rectangle_2" data-name="Rectangle 2" class="cls-6" x="140.08" y="117.51" width="5.47" height="32.82" transform="translate(-40.36 64.81) rotate(-22.49)"/><rect id="Rectangle_3" data-name="Rectangle 3" class="cls-7" x="152.93" y="131.03" width="32.82" height="5.47" transform="translate(-14.82 246.24) rotate(-69.72)"/><rect id="Rectangle_4" data-name="Rectangle 4" class="cls-8" x="159.63" y="131.69" width="32.82" height="3.42" transform="translate(-10.11 252.29) rotate(-69.72)"/><rect id="Rectangle_5" data-name="Rectangle 5" class="cls-9" x="147.47" y="117.92" width="3.32" height="32.82" transform="translate(-40.04 67.26) rotate(-22.49)"/><rect id="Rectangle_6" data-name="Rectangle 6" class="cls-7" x="135.02" y="117.92" width="3.32" height="32.82" transform="translate(-40.99 62.5) rotate(-22.49)"/><rect id="Rectangle_7" data-name="Rectangle 7" class="cls-8" x="123.06" y="117.56" width="4.65" height="32.54"/><rect id="Rectangle_8" data-name="Rectangle 8" class="cls-10" x="117.59" y="114.83" width="3.28" height="35.28"/><rect id="Rectangle_9" data-name="Rectangle 9" class="cls-9" x="106.11" y="117.29" width="9.02" height="32.82"/><rect id="Rectangle_10" data-name="Rectangle 10" class="cls-4" x="102.01" y="121.12" width="2.73" height="28.99"/><line id="Line_1" data-name="Line 1" class="cls-11" x1="202.84" y1="275.26" x2="215.12" y2="331.92"/><line id="Line_2" data-name="Line 2" class="cls-11" x1="175.51" y1="278.02" x2="166.98" y2="334.68"/><line id="Line_3" data-name="Line 3" class="cls-11" x1="168.74" y1="274.26" x2="158.21" y2="329.91"/><line id="Line_4" data-name="Line 4" class="cls-11" x1="211.36" y1="272.25" x2="224.65" y2="331.42"/><path id="Path_4" data-name="Path 4" class="cls-12" d="M169,189.12c-5.6,3.43-11.95,13-11.95,38.63,0,45.88,13.54,53,34.22,51.14s26.33-12,27.46-18.8c1-6.13-4.75-66.24-32.11-72.5C183.81,186.94,173.44,186.42,169,189.12Z"/><g id="Group_1" data-name="Group 1" class="cls-13"><path id="Path_5" data-name="Path 5" class="cls-7" d="M173.21,247.68a10,10,0,0,1-10-9.34c-.19-2.93-.28-6.11-.28-9.57,0-20.76,5.14-28.49,9.67-31.27,3.57-2.19,12-1.76,14.27-1.23,13.93,3.18,20.94,23.61,24,39.57a10,10,0,0,1-9.8,11.84Z"/><path id="Path_6" data-name="Path 6" class="cls-7" d="M211.8,253.7a.83.83,0,0,1,.58.32,1.94,1.94,0,0,1,.36,1.68,12.73,12.73,0,0,1-.37,1.38c-1.7,5.27-7,11.76-21.7,13.09-10.65,1-18.95-1-23.59-12.15a3.12,3.12,0,0,1,2.85-4.32Z"/></g><path id="Path_7" data-name="Path 7" class="cls-9" d="M220.61,205.8H174.74a2.63,2.63,0,0,0-2.63,2.62l5.68,29.27a2.63,2.63,0,0,0,2.63,2.62H215.8a2.64,2.64,0,0,0,2.62-2.62l4.81-29.27A2.64,2.64,0,0,0,220.61,205.8Z"/><ellipse id="Ellipse_2" data-name="Ellipse 2" class="cls-14" cx="197.67" cy="223.28" rx="5.46" ry="2.18"/><rect id="Rectangle_11" data-name="Rectangle 11" class="cls-5" x="135.42" y="238.57" width="120.57" height="5.24"/><path id="Path_8" data-name="Path 8" class="cls-5" d="M256,344.54a2,2,0,0,1-2-1.71L239.6,244.1a2,2,0,0,1,4-.58L258,342.25a2,2,0,0,1-1.69,2.27h0Z"/><path id="Path_9" data-name="Path 9" class="cls-5" d="M135.42,344.54h-.29a2,2,0,0,1-1.69-2.27h0l14.42-98.73a2,2,0,1,1,3.95.58L137.4,342.83A2,2,0,0,1,135.42,344.54Z"/><rect id="Rectangle_12" data-name="Rectangle 12" class="cls-9" x="291.79" y="234.44" width="19.22" height="25.77" rx="2.62"/><rect id="Rectangle_13" data-name="Rectangle 13" class="cls-8" x="296.59" y="240.55" width="9.61" height="13.54" rx="2.62"/><path id="Path_10" data-name="Path 10" class="cls-8" d="M233,350.87c-4.75,0-9-.68-12.22-2.23-11.75-5.56-13.19-35.29-14.72-66.77-.72-14.78-1.46-30.07-3.29-43.17a1,1,0,0,1,1.89-.27c1.84,13.19,2.58,28.52,3.3,43.35,1.5,30.89,2.92,60.06,13.64,65.14,15.76,7.46,57.3-7,64.28-19.7a28.32,28.32,0,0,1,10.5-11.29c2.42-1.59,3.88-2.54,4.24-5.4.86-6.84,0-57,0-57.53a1,1,0,0,1,.94-1h0a1,1,0,0,1,1,.94c0,2.07.87,50.82,0,57.8-.46,3.73-2.5,5.07-5.09,6.76a26.36,26.36,0,0,0-9.87,10.62C281.56,339,252.76,350.87,233,350.87Z"/><ellipse id="Ellipse_3" data-name="Ellipse 3" class="cls-4" cx="135.59" cy="365.59" rx="48.69" ry="13.23"/><ellipse id="Ellipse_4" data-name="Ellipse 4" class="cls-4" cx="355.8" cy="361.66" rx="41.05" ry="7.88"/><path id="Path_11" data-name="Path 11" class="cls-5" d="M95,180.26a.88.88,0,0,1-.52.29L85.38,191l-1.06-.92,9.05-10.42a.92.92,0,0,1,.22-.55l2.07-2.69a.49.49,0,0,1,.69,0h0l.84.73a.5.5,0,0,1,0,.7Z"/><path id="Path_12" data-name="Path 12" class="cls-4" d="M83.52,194.88l-.07-.06-2,2.35a1.43,1.43,0,0,1-.31,1.21l-2.39,3.48a9.36,9.36,0,0,1-1.38,1.57l-3.07,2.82a1.42,1.42,0,0,1-2,.14l-1.41-1.23a1.42,1.42,0,0,1-.14-2l2.41-3.39a9.64,9.64,0,0,1,1.14-1.33l3.29-3.15a1.41,1.41,0,0,1,1.16-.47l2-2.34-.06-.06A1,1,0,0,1,82,190.91l.06.05.7-.8a1.7,1.7,0,0,1,2.39-.17l.12.11a1.68,1.68,0,0,1,.18,2.38h0l-.7.8.07.06a1,1,0,0,1-1.33,1.53Z"/><path id="Path_13" data-name="Path 13" class="cls-5" d="M85.15,196.74l-.63,1.13.73.75.58-1s0,.16.33.3h.08c.27.18.42.12.42.12l-.57,1,1,.25.64-1.13-.2-.37a1.56,1.56,0,0,0,.46-.9h.19l.55-.82.65-3.33-.47-.26-2.52,2.27-.41.9.1.15a1.61,1.61,0,0,0-.53.86Zm1.44,0a.22.22,0,0,1,.3-.09h0a.23.23,0,0,1,.1.31.23.23,0,0,1-.41-.2ZM88.08,194c.17-.3.41-.49.54-.42s.08.37-.09.67-.41.49-.53.42-.09-.34.08-.64Z"/><path id="Path_14" data-name="Path 14" class="cls-4" d="M85.62,199.58a.58.58,0,0,1,.59-.55h1.07s.31-.13.29.28a.61.61,0,0,0,.48.73h0c.4.13.3.34,0,.4a4.45,4.45,0,0,1-.73,0s-.34,0-.4.54a47.27,47.27,0,0,1-1.15,6.13,22,22,0,0,1-1.49,3,.65.65,0,0,1-.6.23c-.43,0-.79-.07-.83-.62s.21-.8.52-1.22a6.6,6.6,0,0,0,1-2.15C84.54,205.64,85.62,199.58,85.62,199.58Z"/><path id="Path_15" data-name="Path 15" class="cls-4" d="M85.09,199.28a.57.57,0,0,0,.16-.8l0,0-.51-.85s0-.34-.4-.11a.61.61,0,0,1-.86,0l0,0c-.32-.27-.45-.09-.33.21a3.09,3.09,0,0,0,.34.65s.14.31-.25.61a49.77,49.77,0,0,0-4.66,4.16,22.63,22.63,0,0,0-1.81,2.83.63.63,0,0,0,.11.63c.25.36.47.64,1,.4s.57-.6.77-1.08a6.72,6.72,0,0,1,1.33-2C80.46,203.34,85.09,199.28,85.09,199.28Z"/><rect id="Rectangle_14" data-name="Rectangle 14" class="cls-5" x="94.8" y="206.34" width="19.78" height="13.34" rx="2.99" transform="translate(-132.27 199.44) rotate(-60.55)"/><rect id="Rectangle_15" data-name="Rectangle 15" class="cls-9" x="104.52" y="204.49" width="5.37" height="8.74" rx="1.95" transform="translate(-127.38 199.52) rotate(-60.55)"/><rect id="Rectangle_16" data-name="Rectangle 16" class="cls-10" x="99.07" y="171.04" width="3.37" height="48.77" transform="translate(-118.96 187.08) rotate(-60.55)"/><path id="Path_16" data-name="Path 16" class="cls-4" d="M92.75,206.15a.65.65,0,0,1,.72-.55l.08,0,1.11.1s.36-.11.29.35a.71.71,0,0,0,.46.88h0c.43.19.3.41-.05.43a3.75,3.75,0,0,1-.82,0s-.38,0-.5.55a53.88,53.88,0,0,1-2,6.71,26.14,26.14,0,0,1-2,3.18.71.71,0,0,1-.69.19c-.48-.08-.87-.17-.86-.78s.33-.87.72-1.3a7.21,7.21,0,0,0,1.35-2.28C90.87,212.77,92.75,206.15,92.75,206.15Z"/><path id="Path_17" data-name="Path 17" class="cls-4" d="M92.52,206a.64.64,0,0,0,.1-.9l-.1-.1-.67-.89s-.09-.37-.44-.07a.7.7,0,0,1-1,0h0c-.39-.27-.51,0-.35.27a4.51,4.51,0,0,0,.46.68.59.59,0,0,1-.21.71,52.31,52.31,0,0,0-4.68,5.3,25.2,25.2,0,0,0-1.7,3.36.76.76,0,0,0,.2.69c.32.36.59.66,1.11.33s.58-.73.74-1.28a7.32,7.32,0,0,1,1.26-2.35C87.82,211.06,92.52,206,92.52,206Z"/><path id="Path_18" data-name="Path 18" class="cls-5" d="M95.4,203.84l.67-1.21L98,197l-.22-.12h0l-.23-.13-3.84,4.61-.68,1.2.28.16c-.53.25-.46,1-.46,1l-.23-.13-.51.91.61,1,.57-1,.15.09h0l.16.09-.57,1h1.13l.52-.91-.23-.13s.7-.34.64-.92Zm-1.21-.12a.25.25,0,0,1-.33.09.23.23,0,0,1-.1-.31v0a.24.24,0,0,1,.43.23Z"/><path id="Path_19" data-name="Path 19" class="cls-7" d="M82.17,180a2.15,2.15,0,0,1,.82,2.93h0l-8.45,15L113,219.61l8.45-15a2.15,2.15,0,0,1,3.85,1.91,1.28,1.28,0,0,1-.11.2l-18,31.78a2.14,2.14,0,0,1-2.92.81h0l-.26-.17h0l-42.47-24,.05-.08a2.16,2.16,0,0,1-.33-2.54l18-31.78A2.15,2.15,0,0,1,82.17,180Z"/><path id="Path_20" data-name="Path 20" class="cls-9" d="M103.75,218l.87.4c1.85-4,1.35-6,.6-6.89a3.18,3.18,0,0,0-4.5,0,3.35,3.35,0,0,0-.7,1.08l.93.21a2,2,0,0,1,1.54-1.22,1.92,1.92,0,0,1,2,.52C105,212.65,105.48,214.18,103.75,218Z"/><path id="Path_21" data-name="Path 21" class="cls-9" d="M98.07,223.07a2.75,2.75,0,0,1,.15-.36l2-3.54a3.14,3.14,0,1,1,5.51,3l0,.08-2,3.53a3.71,3.71,0,0,1-.23.32Z"/><path id="Path_22" data-name="Path 22" class="cls-9" d="M100.43,228.63a.47.47,0,0,0,.63-.18l1.62-2.87a.47.47,0,0,0-.18-.63.46.46,0,0,0-.62.18L100.25,228A.47.47,0,0,0,100.43,228.63Z"/><path id="Path_23" data-name="Path 23" class="cls-9" d="M97.49,227a.47.47,0,0,0,.63-.17h0L99.74,224a.46.46,0,0,0-.8-.45l-1.62,2.87a.46.46,0,0,0,.17.63Z"/><path id="Path_24" data-name="Path 24" class="cls-5" d="M73.8,201.82l4.17-2.4a1.39,1.39,0,0,1,1.49.07h0l3,1.69,4.6,2.6a6.54,6.54,0,0,1,2,1.27,2.18,2.18,0,0,1,.17,1.1L87,215a1.45,1.45,0,0,1-1.57,1.12A1.56,1.56,0,0,1,85,216a1.39,1.39,0,0,1-.66-1.53l.59-2.38c0-.42.06-1.45-.61,0a1.23,1.23,0,0,1-.19.31L82.74,216a1.39,1.39,0,0,1-1.78.81l-.19-.1a1.36,1.36,0,0,1-.62-1.68l1.63-4.36c.2-.58.54-1.62-.35,0l-2.05,4.1a1.38,1.38,0,0,1-1.84.62h-.07a1.38,1.38,0,0,1-.56-1.82l2.24-4.47c.1-.26.3-.85.17-.9s-.47.21-.87.55l-3,3.36a1.37,1.37,0,0,1-1.7.28,1.24,1.24,0,0,1-.23-.17,1.46,1.46,0,0,1,0-2l5.71-6.31a.86.86,0,0,0-.16-1.19.87.87,0,0,0-.84-.11l-2.92,1.68a1.44,1.44,0,0,1-1.51-2.46Z"/><path id="Path_25" data-name="Path 25" class="cls-15" d="M175.32,119.58s-37,21.55-43.39,26.8S107.06,184,104.58,185.9s-7.47,5.8-7.47,8.84,1.39,5.8,6.08,5.25,6.36-8.57,8.29-11.33,24-28.74,27.64-31.5,21-9.12,21-9.12Z"/><path id="Path_26" data-name="Path 26" class="cls-16" d="M175.32,119.58s-14.77,8.59-27.25,16.25c.67,5.43,2,12.3,4.31,15l.15.14c4.14-1.64,7.59-2.9,7.59-2.9Z"/><path id="Path_27" data-name="Path 27" class="cls-17" d="M175,120.18l-.82.07c-1.94,1.13-6.17,3.61-11.27,6.64-3.61,5.17-8.81,12.91-12.36,20.52a11,11,0,0,0,1.84,3.39l.15.14c4.14-1.64,7.59-2.9,7.59-2.9Z"/><path id="Path_28" data-name="Path 28" class="cls-15" d="M315.84,139.54c-.19.55-27.8,36.57-49.16,35.08,0,0-14-.14-10.74,5.79s9.95-.09,11.61-.44,32.24.13,49.95-20.89C333.34,140.28,315.84,139.54,315.84,139.54Z"/><path id="Path_29" data-name="Path 29" class="cls-18" d="M269.52,174.58a22.43,22.43,0,0,1-2.84,0s-14-.14-10.74,5.79a4.6,4.6,0,0,0,2.81,2.44C264.75,184,270.75,176.49,269.52,174.58Z"/><path id="Path_30" data-name="Path 30" class="cls-7" d="M315.84,139.54A127.31,127.31,0,0,1,305,152.13c1.25,4.11,3.44,9.45,6.9,12.56a49.27,49.27,0,0,0,5.58-5.61C333.34,140.28,315.84,139.54,315.84,139.54Z"/><path id="Path_31" data-name="Path 31" class="cls-19" d="M315.84,139.54q-2.73,3.71-5.81,7.13c-.1,3.61-1.32,7.64-.34,10.4.75,2.14,3,4.31,3.78,6.23a46.94,46.94,0,0,0,4-4.22C333.34,140.28,315.84,139.54,315.84,139.54Z"/><path id="Path_32" data-name="Path 32" class="cls-15" d="M124.07,352.07s-.57,3.86.49,5.18c.88,1.08,7.91,1.79,12.08,3.09,1.69.53,4.24,1.66,4.39,3.42.09,1.07-2.47,2.3-4.21,2.24l-12.52-.47-2.77-.48a2.91,2.91,0,0,0-.59,0l-2.79.05c-1.2,0-3-.41-3.36-1.54a10.09,10.09,0,0,1,.21-5.71c1-2,.31-8.28.31-8.28Z"/><path id="Path_33" data-name="Path 33" class="cls-20" d="M141,363.76c-.15-1.76-2.7-2.89-4.39-3.42-4.1-1.28-11-2-12-3-2.33,1.05-6.23,2.24-9.66.59a10.17,10.17,0,0,0-.18,5.63c.4,1.13,2.16,1.56,3.36,1.54l2.79-.05a2.91,2.91,0,0,1,.59,0l2.77.48,12.52.47C138.56,366.06,141.12,364.83,141,363.76Z"/><path id="Path_34" data-name="Path 34" class="cls-15" d="M154.87,352.34s-.43,3.88.69,5.15c.92,1.05,8,1.5,12.18,2.65,1.7.47,4.3,1.49,4.52,3.25.13,1.07-2.39,2.39-4.13,2.39H155.6l-2.79-.37a2,2,0,0,0-.59,0l-2.79.15c-1.19.07-3-.3-3.41-1.41a10.27,10.27,0,0,1,0-5.71c1-2.08,0-8.29,0-8.29Z"/><path id="Path_35" data-name="Path 35" class="cls-20" d="M172.26,363.39c-.22-1.76-2.82-2.78-4.52-3.25-4.14-1.13-11-1.58-12.12-2.59-2.28,1.13-6.14,2.47-9.62.95a10.35,10.35,0,0,0,0,5.63c.45,1.11,2.22,1.48,3.41,1.41l2.79-.15a2,2,0,0,1,.59,0l2.79.37h12.53C169.87,365.78,172.39,364.46,172.26,363.39Z"/><path id="Path_36" data-name="Path 36" class="cls-20" d="M318.65,131.45s5.53-5.5,2.81-7.18c-4.25-2.62-5.67-9.65-5.36-12.71.4-3.88,2.82-12.59,5.79-16.48A16.29,16.29,0,0,1,330,91.15a17.68,17.68,0,0,1,9,1.33c9,3.66,10.91,6.56,16.81,10.24C361,105.93,364,106,371,101.63c10.61-6.71,29.09-5.91,23.56,11.78-3,9.64-16.61,37.28-39,24.13-13.6-8-14-2.13-21.22-.61S318.65,131.45,318.65,131.45Z"/><path id="Path_37" data-name="Path 37" class="cls-15" d="M327,118.47s-.14,8.29-3.59,10.09-7.19,3.45-8.29,6.91-4,14.09-3.18,17.27,3.87,7.18,7.46,13.4,8.77,14.19,8.64,19.72-3.37,24.71-2,25.68,2.88.88,7.3.88,26.12-.41,34.41-13.95c0,0,.33-.17.47-1s-14.29-22.21-16.92-29.4a37.39,37.39,0,0,1-1.93-14.5s35.51,21.69,46.56,46c0,0,.28-.13,0,3.18s5.36,14.41,8.54,11.37c2.61-2.5.93-10-1.19-15-.46-1.08-3.48-3.38-5.41-7.67,0,0-11.89-23.07-19.76-31.08S353.65,132.59,343,129.14a8.3,8.3,0,0,1-7.33-3.73l-.55-9.81Z"/><path id="Path_38" data-name="Path 38" class="cls-16" d="M326.37,207.87l11.24,139.86h7.74s11.79-96.16,8.84-120.11S326.37,207.87,326.37,207.87Z"/><path id="Path_39" data-name="Path 39" class="cls-15" d="M337.75,347.48a30,30,0,0,1,.78,6.41c-.13,2.42-10.73,5.1-11.84,6.15s-1.31,1.64-.72,2.23a10.37,10.37,0,0,0,8,1.5c4.12-.85,6.22-1.63,8-.46s4.84-.52,4.71-1.83.26-3.66-2.09-5.63a22.7,22.7,0,0,1,.66-8.12C346.52,343.68,337.75,347.48,337.75,347.48Z"/><path id="Path_40" data-name="Path 40" class="cls-5" d="M342.07,363.31c1.83,1.18,4.84-.52,4.71-1.83a9.65,9.65,0,0,0-.61-3.76c-2.66-.43-6.95,1.84-10.13,1.16a4.34,4.34,0,0,1-2.7-1.55c-2.91,1.17-6.07,2.16-6.65,2.71-1.11,1-1.31,1.64-.72,2.23a10.37,10.37,0,0,0,8,1.5C338.14,362.92,340.24,362.14,342.07,363.31Z"/><path id="Path_41" data-name="Path 41" class="cls-15" d="M372.9,346a30.51,30.51,0,0,1,2.58,5.92c.57,2.36-8.83,8-9.6,9.28s-.79,1.94-.05,2.33a10.34,10.34,0,0,0,8.14-.85c3.71-2,5.49-3.34,7.59-2.73s4.49-1.88,4-3.1-.79-3.59-3.61-4.8a22.63,22.63,0,0,1-1.68-8C380.23,339.9,372.9,346,372.9,346Z"/><path id="Path_42" data-name="Path 42" class="cls-5" d="M381.56,360c2.09.61,4.49-1.88,4-3.1a9.71,9.71,0,0,0-1.66-3.42c-2.67.34-6.13,3.74-9.37,4a4.36,4.36,0,0,1-3-.7c-2.46,1.94-5.21,3.8-5.61,4.49-.77,1.32-.79,1.94-.05,2.33a10.34,10.34,0,0,0,8.14-.85C377.68,360.73,379.46,359.38,381.56,360Z"/><path id="Path_43" data-name="Path 43" class="cls-9" d="M333.61,207.79l.08.29c1.89,6.91,37.22,135.59,39,138.73,0,0,7.74-1.57,8.11-1.57s-10.32-116-12.53-126.37.83-14.92.46-17.87-.37-4.05-3-6.91-32.07,13.8-32.07,13.8"/><path id="Path_44" data-name="Path 44" class="cls-18" d="M335.31,119.21a.35.35,0,0,1,.06-.14l-.2-3.5-8.15,2.9a24.93,24.93,0,0,1-1.09,6.53C327.94,124.69,333.37,123.46,335.31,119.21Z"/><path id="Path_45" data-name="Path 45" class="cls-15" d="M333,100c-2.31,6.35,1.38,9.85,2.48,11.14.92,1.07,1.84.46,2.58,1.2s-.18,2-.28,3-2.11,2.49-2.11,1.93-.83-.55-.83-.55l-1.75.74c-4.15,3-11.33,3-12.71,1.38s-1.94-8,.55-13.82a10.67,10.67,0,0,1,2-3,12.44,12.44,0,0,0,6.57-.36A15,15,0,0,0,333,100Z"/><path id="Path_46" data-name="Path 46" class="cls-7" d="M367.59,149.11c-8-8.4-17.55-17.73-24.54-20a8.74,8.74,0,0,1-4-.8c-.05.08-.1.15-.14.23-6.42,12.84-15.13,14.22-17,10.09-1.07-2.41-.63-6.31-.05-9.28-3,1.53-5.81,3.17-6.75,6.12-1.11,3.45-4,14.09-3.18,17.27s3.87,7.18,7.46,13.4,8.77,14.19,8.64,19.72-3.37,24.71-2,25.68,2.88.88,7.3.88,26.12-.41,34.41-13.95c0,0,.33-.17.47-1s-14.29-22.21-16.92-29.4a37.39,37.39,0,0,1-1.93-14.5s4.61,2.82,11,7.55C363.32,158.61,365.81,153.59,367.59,149.11Z"/><path id="Path_47" data-name="Path 47" class="cls-15" d="M199.45,102.17s-6.82,12.53-14.74,13.45-12.71,4.6-15.11,7.55-30.76,47.16-33.15,53.24-4.61,16.39-4.61,26.89,12.16,64.3,12.53,75.9,1.1,73.14,1.1,73.14-.55,1.47,3.32,1.47,7.92.55,8.66-.55,7.92-54,9.39-70.56,5.16-75.9,4-86.4c-.36-3.68,10.69-14.55,10.69-14.55s13.63-11.61,17.87-19.16,4.09-27.2,4.09-33.28-1.41-7.76-.49-10.52a5.49,5.49,0,0,1,2.95-3.5l-4.89-13.67Z"/><path id="Path_48" data-name="Path 48" class="cls-20" d="M132.57,203.47s-5.7,63.15-9.49,74.55-8.49,35.23-9,51.19c-.46,13.12-.46,19.66-.43,22.29a1.56,1.56,0,0,0,1.48,1.54l9.08.48s4.18-22,9.38-45.31c3.2-14.39,8-20.86,10.79-31.81S152,212.28,152,212.28l-13.27-17.8Z"/><path id="Path_49" data-name="Path 49" class="cls-9" d="M199.45,162.59c4.23-7.55,4.09-27.2,4.09-33.28-8.2-1.68-13.07-11.12-14.8-15.12a10.55,10.55,0,0,1-4,1.43c-7.92.92-12.71,4.6-15.11,7.55s-30.76,47.16-33.15,53.24a76,76,0,0,0-4.37,20.76l39,9.66c.08-4.84,0-8.55-.17-10.53-.36-3.68,10.69-14.55,10.69-14.55S195.21,170.14,199.45,162.59Z"/><path id="Path_50" data-name="Path 50" class="cls-5" d="M196.32,134c-2.77-15.2-14.1-14.93-14.1-14.93-9.5-1.78-13.46,6.74-16.69,10.16a.64.64,0,0,0-.1.13c-8.58,13-27.07,42.24-29,47.1-2.4,6.08-4.61,16.39-4.61,26.89s12.16,64.3,12.53,75.9,1.1,73.14,1.1,73.14-.55,1.47,3.32,1.47,7.92.55,8.66-.55,7.92-54,9.39-70.56,5.16-75.9,4-86.4c-.35-3.57,10.05-13.91,10.66-14.52l.06-.05A148.08,148.08,0,0,0,195,168.61a1.07,1.07,0,0,0,.13-1.24l-2.91-5.24a1.1,1.1,0,0,1,0-1C193.49,158.62,198.75,147.34,196.32,134ZM185,158.54c-1.31,1.68-9.45,12.35-14.58,19.07a7.64,7.64,0,0,1-10.11,1.84h0a7.64,7.64,0,0,1-3.17-9l11.26-32.62v-.08c.22-.87,4.34-16.38,10.79-15.84,6.63.55,10.2,5.93,10.2,12.28S186.92,156.05,185,158.54Z"/><path id="Path_51" data-name="Path 51" class="cls-18" d="M206,115.29,204.47,111,201,107s-1.48.42-2.53,6.54c-.58,3.38,2.06,7.08,4.53,9.71a8.46,8.46,0,0,1,0-4.41A5.46,5.46,0,0,1,206,115.29Z"/><path id="Path_52" data-name="Path 52" class="cls-15" d="M221.49,100.75s-2,17.51-10.15,18.33c-1.34.13-5.23-.65-8.83-4.58s-3.6-8.67-3.6-11,.16-6.55,1.47-8.35,10.31-4.42,14.4-2.94S221.49,99.45,221.49,100.75Z"/><path id="Path_53" data-name="Path 53" class="cls-20" d="M213.63,97s-.81,8.51-2.94,5.73-3.27-2-3.93-1-.49,4.41-1.63,5.23-6.06-.16-6.22-2.45-.16-7.2.65-8,8-1,8-1Z"/><path id="Path_54" data-name="Path 54" class="cls-7" d="M198.58,99s20.62,2.13,22.58,3.28,4.42-11.46-6.54-14.73S199.07,92.25,198.58,99Z"/><path id="Path_55" data-name="Path 55" class="cls-21" d="M220.51,105.66a7.85,7.85,0,0,0-4.26-4.41c-3.11-1.15,12.6,0,12.6,0s5.73,0,4.75,4.09c0,2.12-2.46,2.12-5.4,1.8A77.26,77.26,0,0,1,220.51,105.66Z"/><circle id="Ellipse_5" data-name="Ellipse 5" class="cls-9" cx="336.38" cy="118.14" r="1.67"/><path id="Path_56" data-name="Path 56" class="cls-19" d="M349.4,153.57l.59.36a5.19,5.19,0,0,0-2.8-3.13c-3.32-1.38-4.42,6.91-3.87,10.23s3.87,13.81,6.63,18.23c2.14,3.43,13.23,14.15,18.13,18.8a2.48,2.48,0,0,0,.17-.59c.14-.83-14.29-22.21-16.92-29.4a37.39,37.39,0,0,1-1.93-14.5Z"/><path id="Path_57" data-name="Path 57" class="cls-22" d="M177.53,121.51s-6.91,6.36-6.64,13,11.61,31,18.24,37.86c.41.43.83.83,1.25,1.21,3.53-3.56,7.21-7.66,9.07-11C202.2,157.69,177.53,121.51,177.53,121.51Z"/><path id="Path_58" data-name="Path 58" class="cls-15" d="M260,171.82c-3.27.28-8.27,2.18-11,2-13.78-1-38-8.79-41.72-12.29s-6.92-11.14-6.92-11.14-6.54-24.66-17.14-28.5-9.36,10.32-7.95,15.37,12.39,29.39,21,34.51,32.66,11,45.42,10.26V182a71.52,71.52,0,0,1,8.52.76c3.08.59,8.85.61,11.94-.79a14,14,0,0,0,3.29-2.33,6.53,6.53,0,0,0,.92-3.81C266.43,173.28,261.14,171.72,260,171.82Z"/><path id="Path_59" data-name="Path 59" class="cls-9" d="M200.05,149.32c-1.4-4.8-7.56-24.08-16.83-27.43-10.6-3.85-9.36,10.32-7.95,15.37.85,3,5.16,13.05,10.33,21.67C192.9,157.66,198,152,200.05,149.32Z"/><path id="Path_60" data-name="Path 60" class="cls-9" d="M326.93,114l-6.08-2.76S319.93,119.12,326.93,114Z"/><path id="Path_61" data-name="Path 61" class="cls-9" d="M216.76,114.14l-.37-.15-5.52-2.24S210.87,119.3,216.76,114.14Z"/><rect id="Rectangle_17" data-name="Rectangle 17" class="cls-23" x="276.02" y="251.3" width="10.24" height="10.24"/><rect id="Rectangle_18" data-name="Rectangle 18" class="cls-23" x="278.91" y="223.28" width="10.24" height="10.24"/><rect id="Rectangle_19" data-name="Rectangle 19" class="cls-23" x="313.74" y="255.61" width="5.12" height="5.12"/><rect id="Rectangle_20" data-name="Rectangle 20" class="cls-23" x="310.11" y="221.09" width="10.24" height="10.24"/><rect id="Rectangle_21" data-name="Rectangle 21" class="cls-23" x="295.1" y="221.75" width="5.12" height="5.12"/></g></g></g></g><g id="star"><path id="Path_5766" data-name="Path 5766" class="cls-24" d="M318.7,221.81,316,221.4l-1.2-2.56a.28.28,0,0,0-.39-.11.27.27,0,0,0-.1.11l-1.21,2.56-2.68.41a.27.27,0,0,0-.23.31.28.28,0,0,0,.08.15l2,2-.47,2.83a.27.27,0,0,0,.23.31.25.25,0,0,0,.17,0l2.4-1.32,2.4,1.32a.27.27,0,0,0,.37-.11.25.25,0,0,0,0-.17l-.46-2.83,2-2a.26.26,0,0,0,0-.38.31.31,0,0,0-.15-.08Z"/></g><g id="star-2" data-name="star"><path id="Path_5766-2" data-name="Path 5766" class="cls-24" d="M315.47,269.66l-2.38-.36L312,267a.26.26,0,0,0-.35-.1.28.28,0,0,0-.09.1l-1.07,2.28-2.39.36a.25.25,0,0,0-.2.28.2.2,0,0,0,.06.13l1.74,1.78-.41,2.51a.24.24,0,0,0,.2.28.2.2,0,0,0,.15,0l2.14-1.17,2.13,1.18a.25.25,0,0,0,.33-.1.41.41,0,0,0,0-.16l-.41-2.51,1.73-1.78a.25.25,0,0,0,0-.34.27.27,0,0,0-.14-.07Z"/></g><g id="star-3" data-name="star"><path id="Path_5766-3" data-name="Path 5766" class="cls-24" d="M323.44,250.21l-1.92-.3-.87-1.84a.21.21,0,0,0-.28-.08.27.27,0,0,0-.07.08l-.87,1.84-1.92.3a.19.19,0,0,0-.17.22.24.24,0,0,0,.06.11l1.4,1.43-.33,2a.2.2,0,0,0,.16.23.27.27,0,0,0,.12,0l1.73-.95,1.72.95a.18.18,0,0,0,.26-.07.2.2,0,0,0,0-.13l-.33-2,1.4-1.43a.19.19,0,0,0,0-.28.16.16,0,0,0-.11,0Z"/></g><g id="star-4" data-name="star"><path id="Path_5766-4" data-name="Path 5766" class="cls-24" d="M284.61,229.35l-1.93-.29-.87-1.84a.19.19,0,0,0-.27-.08.16.16,0,0,0-.08.08l-.86,1.84-1.93.29a.21.21,0,0,0-.17.22.2.2,0,0,0,.06.11l1.4,1.44-.33,2a.19.19,0,0,0,.16.22.16.16,0,0,0,.12,0l1.73-.95,1.72.95a.2.2,0,0,0,.27-.08.25.25,0,0,0,0-.12l-.33-2,1.4-1.44a.2.2,0,0,0,0-.28l-.1-.05Z"/></g><g id="star-5" data-name="star"><path id="Path_5766-5" data-name="Path 5766" class="cls-24" d="M281.83,254l-2.22-.34-1-2.12a.23.23,0,0,0-.41,0l-1,2.12L275,254a.23.23,0,0,0-.19.26.31.31,0,0,0,.06.13l1.62,1.66-.38,2.34a.23.23,0,0,0,.33.24l2-1.1,2,1.1a.23.23,0,0,0,.31-.09.26.26,0,0,0,0-.15l-.38-2.34L282,254.4a.22.22,0,0,0,0-.32.24.24,0,0,0-.13-.07Z"/></g></g></g></svg>