<svg xmlns="http://www.w3.org/2000/svg" viewBox="0 0 494.56 446.55"><defs><style>.cls-1{isolation:isolate;}.cls-2{fill:#f7e5e2;}.cls-14,.cls-3{fill:#f5afaf;}.cls-17,.cls-3{opacity:0.4;mix-blend-mode:multiply;}.cls-4{fill:#f3cdca;}.cls-5{fill:#f29291;}.cls-6{fill:#115f5c;}.cls-7{fill:#33928e;}.cls-8{fill:#de535e;}.cls-9{fill:#6ac2c1;}.cls-10{fill:#fff;}.cls-11{fill:#b96d6b;}.cls-12{fill:none;stroke:#ed6e6c;stroke-linecap:round;stroke-linejoin:round;stroke-width:2px;}.cls-13{fill:#ef7c80;}.cls-15{fill:#f49a6e;}.cls-16{fill:#1d2827;}.cls-17{fill:#ec6063;}.cls-18{fill:#dc805b;}.cls-19{fill:#7fc8c5;}.cls-20{fill:#f39ca0;}</style></defs><title>Slide12</title><g class="cls-1"><g id="Слой_2" data-name="Слой 2"><g id="Слой_1-2" data-name="Слой 1"><ellipse class="cls-2" cx="247.28" cy="223.28" rx="247.28" ry="223.28"/><path class="cls-3" d="M184.14,371c6.6-1.3,10.61-3,10.61-4.91,0-4.09-18.87-7.41-42.14-7.41s-42.14,3.32-42.14,7.41c0,2.29,5.89,4.33,15.14,5.69-21.28,1.36-35.53,3.83-35.53,6.66,0,4.29,32.71,7.76,73.06,7.76s73.07-3.47,73.07-7.76C236.21,374.92,214.26,372,184.14,371Z"/><ellipse class="cls-3" cx="350.46" cy="399.69" rx="33.71" ry="7.78"/><path class="cls-4" d="M181.7,124.87c0,32.24-3.49,52.24-39.34,53.78S44.69,151.21,44.69,119s29.05-59.63,64.9-61.17S181.7,92.63,181.7,124.87Z"/><path class="cls-5" d="M152.55,106.82H69.26A11.06,11.06,0,0,0,58.2,117.88v25.05A11.06,11.06,0,0,0,69.26,154h83.29a11.06,11.06,0,0,0,11.06-11.06V117.88A11.06,11.06,0,0,0,152.55,106.82Zm6.69,36.11a6.7,6.7,0,0,1-6.69,6.69H69.26a6.7,6.7,0,0,1-6.69-6.69V117.88a6.7,6.7,0,0,1,6.69-6.69h83.29a6.7,6.7,0,0,1,6.69,6.69Z"/><rect class="cls-6" x="67.62" y="114.92" width="5.47" height="32.82"/><rect class="cls-7" x="113.62" y="115.12" width="5.47" height="32.82" transform="translate(-41.47 54.52) rotate(-22.49)"/><rect class="cls-8" x="140.14" y="114.99" width="5.47" height="32.82" transform="translate(54.41 -41.38) rotate(20.28)"/><rect class="cls-9" x="147.86" y="114.63" width="3.42" height="32.82" transform="translate(54.7 -43.73) rotate(20.28)"/><rect class="cls-10" x="121.02" y="115.53" width="3.32" height="32.82" transform="translate(-41.15 56.98) rotate(-22.49)"/><rect class="cls-8" x="108.57" y="115.53" width="3.32" height="32.82" transform="translate(-42.09 52.21) rotate(-22.49)"/><rect class="cls-9" x="96.6" y="115.19" width="4.65" height="32.54"/><rect class="cls-11" x="91.13" y="112.46" width="3.28" height="35.28"/><rect class="cls-10" x="79.65" y="114.92" width="9.02" height="32.82"/><rect class="cls-5" x="75.55" y="118.75" width="2.73" height="28.99"/><line class="cls-12" x1="167.54" y1="311.49" x2="179.83" y2="368.15"/><line class="cls-12" x1="140.22" y1="314.24" x2="131.69" y2="370.9"/><line class="cls-12" x1="133.45" y1="310.48" x2="122.92" y2="366.14"/><line class="cls-12" x1="176.07" y1="308.48" x2="189.35" y2="367.64"/><path class="cls-13" d="M133.74,225.35c-5.6,3.43-12,13-12,38.63,0,45.88,13.54,53,34.22,51.14s26.32-12,27.45-18.8c1-6.13-4.74-66.25-32.1-72.5C148.51,223.17,138.15,222.64,133.74,225.35Z"/><path class="cls-8" d="M137.92,283.91a10,10,0,0,1-10-9.34q-.28-4.4-.28-9.57c0-20.77,5.14-28.49,9.67-31.27,3.57-2.19,12-1.76,14.26-1.24,13.93,3.19,20.95,23.62,24,39.58a10,10,0,0,1-9.81,11.84Z"/><path class="cls-8" d="M176.51,289.93a.78.78,0,0,1,.58.32,1.93,1.93,0,0,1,.36,1.68c-.1.45-.22.91-.37,1.38-1.71,5.27-7,11.75-21.7,13.09-10.65,1-19-1-23.59-12.15a3.1,3.1,0,0,1,2.85-4.32Z"/><path class="cls-10" d="M185.31,242H139.44a2.63,2.63,0,0,0-2.62,2.62l5.68,29.27a2.63,2.63,0,0,0,2.62,2.62h35.39a2.63,2.63,0,0,0,2.62-2.62l4.8-29.27A2.63,2.63,0,0,0,185.31,242Z"/><ellipse class="cls-14" cx="162.38" cy="259.5" rx="5.46" ry="2.18"/><rect class="cls-6" x="100.13" y="274.79" width="120.57" height="5.24"/><path class="cls-6" d="M220.7,380.77a2,2,0,0,1-2-1.71L204.3,280.33a2,2,0,1,1,4-.58l14.42,98.73a2,2,0,0,1-1.69,2.27Z"/><path class="cls-6" d="M100.13,380.77l-.29,0a2,2,0,0,1-1.69-2.27l14.41-98.73a2,2,0,0,1,4,.58l-14.41,98.73A2,2,0,0,1,100.13,380.77Z"/><path class="cls-15" d="M356.23,372.87s1.6,10.69-.67,16-4.41,11.5-.4,12.57,8-1.61,6.82-13-.27-16-.27-16Z"/><path class="cls-15" d="M350,372.33s.67,14.17.8,18.32.8,10.16-4.68,11.09-4.41-5.74-2.81-11.09,2.54-8.69.94-16S350,372.33,350,372.33Z"/><path class="cls-6" d="M362.18,391.35l-.2,0s-4.68,5.21-7.22.4a3.4,3.4,0,0,0-.2-.34c-1.78,4.63-2.8,9.19.6,10.1C358.81,402.45,362.46,400.32,362.18,391.35Z"/><path class="cls-15" d="M350,372.33s.67,14.17.8,18.32.8,10.16-4.68,11.09-4.41-5.74-2.81-11.09,2.54-8.69.94-16S350,372.33,350,372.33Z"/><path class="cls-10" d="M331.7,245.52s-1.21,11.23.8,40.11,4.21,47.53,4.21,47.53,6.22,35.29,7.42,41.11a5.38,5.38,0,0,0,5.42-.2l1-1L352.75,255,356,373.27s4.21,2.6,5.82.4,11.23-59.16,12-80.62.74-49.47.74-49.47Z"/><path class="cls-16" d="M337.91,170.32c-5.74-6.15-6.41-13.37-.93-15.38s6.42-1.87,5.35-5.88-3.88-9.23-2.14-12.43,5.34-11.64,10-9.63,4.42-.27,7.36,0,10.69,1.2,11.23,8.42-2.41,7.62,2.14,13,6.41,13.77-1.21,19.52S337.91,170.32,337.91,170.32Z"/><path class="cls-8" d="M349.09,154.54s.76,6.2-.38,7.56-14.29,4.69-16.18,7.94a21.58,21.58,0,0,0-2.65,17.16c2.05,8.47,9.83,15.2,10.82,17.4s2,3.7,1.36,5.52-4.69,6.35-5.9,11.11-4.26,16.47-4.86,25.9,43.11,2.2,43.31.8a94.27,94.27,0,0,0-2.6-21.66,44.89,44.89,0,0,0-6.42-13.84c-1.4-2.41,0-7.82,0-7.82s11.63-6.62,11.83-23.86c.06-5.42-1-9.23-4.41-11.64s-12.64-5-12.64-5-1.4-.6-1.6-3.21a67.48,67.48,0,0,1,.2-7.62Z"/><path class="cls-17" d="M368.14,202.69c-1.43-3.79-2.45-6.4-2.45-6.4l-11.23-16.55L338.34,201.5a18.92,18.92,0,0,1,2.36,3.1c.74,1.65,1.52,2.92,1.57,4.22A32.34,32.34,0,0,1,371,222.9a46.83,46.83,0,0,0-5.36-10.47c-1.4-2.41,0-7.82,0-7.82A17.76,17.76,0,0,0,368.14,202.69Z"/><path class="cls-6" d="M350.78,391.37c-.8,1.42-4.89,8-7.69.55a1.82,1.82,0,0,0-.11-.28c-1.43,5.14-2.06,11,3.09,10.1S350.94,395.46,350.78,391.37Z"/><path class="cls-15" d="M344.46,164c1.56,5.47,5.07,9.3,9.16,9.3,3.91,0,7.28-3.49,8.94-8.57-1.31-.41-2.19-.66-2.19-.66s-1.4-.6-1.6-3.21a67.48,67.48,0,0,1,.2-7.62l-9.88,1.27s.76,6.2-.38,7.56C348.34,162.55,346.63,163.22,344.46,164Z"/><path class="cls-18" d="M355.63,164.21a9.37,9.37,0,0,0,3.56-1.51,5.55,5.55,0,0,1-.42-1.81,67.48,67.48,0,0,1,.2-7.62l-9.88,1.27a33.52,33.52,0,0,1,.21,5.29C350.91,161.77,353.57,164.51,355.63,164.21Z"/><path class="cls-15" d="M353.56,135.76s-1.74,5.21-5.35,7.08-1.14,14.24,3.61,15.64,8.55-4.61,9.49-6.55,2.67-2,3.08-3.94.06-3.34-1.27-2.67-2.81-.27-3.61-2.21S356,136.16,353.56,135.76Z"/><ellipse class="cls-10" cx="363.55" cy="152.07" rx="1.7" ry="2.21"/><path class="cls-15" d="M364.39,148c-.4,1.94-2.14,2-3.08,3.94a16.62,16.62,0,0,1-3.66,4.85h0c-1.61,1.41-3.62,2.35-5.82,1.7a4.3,4.3,0,0,1-1.84-1.17c-3.48-3.47-4.88-12.86-1.77-14.47,3.61-1.87,5.35-7.08,5.35-7.08,2.41.4,5.14,5.41,5.94,7.35s2.28,2.88,3.61,2.2S364.79,146.05,364.39,148Z"/><path class="cls-18" d="M354.28,148.52s-3.81-1-5.28,1.15c-.78,1.12-.93,3.08-.75,5.13a9.35,9.35,0,0,0,1.73,2.51,4.3,4.3,0,0,0,1.84,1.17c2.2.65,4.21-.29,5.82-1.7h0a11.9,11.9,0,0,0,.88-.86C359.17,153.63,358.61,150.9,354.28,148.52Z"/><path class="cls-15" d="M346.54,204.26a4,4,0,0,0,1-1.35c1.44-3.16,7.31-16.62,7.79-27.28.54-12.16-.27-13.78-.27-13.78s-.27-2.17.81-3.25,3.92-4,1.21-7.16-6.89-2.84-7.43.54a11.06,11.06,0,0,0,1.08,6.35s1.35-.13.14,4.87c-1,4.26-3.45,17.94-6.23,23.9-.48,1-2,3.66-3,2s-.68-1.08-.68-1.08-4.3,6.38-8.82,4.81h0c2.91,5.37,7.22,9.5,8.36,11.37C341.43,204.87,344.12,206.34,346.54,204.26Z"/><path class="cls-18" d="M341.65,189.14c-.95-1.62-.68-1.08-.68-1.08s-4.18,6.21-8.64,4.86l-.19,0c.46.85,1,1.67,1.48,2.46,5.59-.66,7.73-3.61,8.54-5.56A2.34,2.34,0,0,1,341.65,189.14Z"/><path class="cls-18" d="M350.15,166.31c.67,7.15,1.53,17.37,2.67,22.44a57.31,57.31,0,0,0,2.48-13.12c.12-2.72.17-4.9.18-6.67-.28-.91-.54-1.79-.77-2.61-.61-2.24-1.43-6-.35-7.21s5.78-6-1-9.83a3.12,3.12,0,0,0-3.72,2.67,11.06,11.06,0,0,0,1.08,6.35s1.35-.13.14,4.87C350.65,164,350.42,165,350.15,166.31Z"/><path class="cls-15" d="M375.16,192.38l-.17,0c-1,.09-6.67.34-8.75-4.07l-1.89,1.76s-6.09-15.24-8.43-23.74c-.62-2.24-1.43-6-.35-7.21s5.81-6.08-1.08-9.86c0,0-3.11-.81-4.33.95s-.54,6.08.27,8.51,2,25.81,4.06,31.75,3.64,12.16,5.67,13.65c1.24.91,3.84.65,5.67.32a25.63,25.63,0,0,0,9.36-11.94Z"/><path class="cls-18" d="M375.16,192.38l-.17,0c-1,.09-6.67.34-8.75-4.07l-.79.74c.86,2.34,3,7.15,6.51,8.43a5.16,5.16,0,0,0,.52.16,27.43,27.43,0,0,0,2.71-5.14Z"/><rect class="cls-10" x="272.5" y="270.66" width="19.22" height="25.77" rx="2.62"/><rect class="cls-9" x="277.3" y="276.78" width="9.61" height="13.54" rx="2.62"/><path class="cls-9" d="M213.73,387.1a29,29,0,0,1-12.22-2.23c-11.75-5.56-13.2-35.29-14.72-66.77-.72-14.79-1.46-30.08-3.3-43.17a1,1,0,0,1,.82-1.08,1,1,0,0,1,1.07.81c1.85,13.19,2.59,28.52,3.31,43.35,1.5,30.89,2.92,60.06,13.63,65.14,15.77,7.46,57.3-7,64.29-19.7a28.42,28.42,0,0,1,10.49-11.29c2.43-1.59,3.89-2.55,4.25-5.4.85-6.85,0-57,0-57.53a1,1,0,0,1,.94-1h0a1,1,0,0,1,.95.93c0,2.08.86,50.83,0,57.8-.46,3.74-2.51,5.07-5.09,6.77a26.37,26.37,0,0,0-9.87,10.61C262.27,375.27,233.47,387.1,213.73,387.1Z"/><path class="cls-8" d="M276.9,280.34c-.1-.16-.51-.64-1.14-1.36-3.69-4.22-14.84-16.44-14.84-16.44L255.11,268,228.6,253.83l25.06,24,8-6.9Z"/><path class="cls-8" d="M270.47,294.1c-.14,0-.6,0-1.29,0-4.06.22-16,1.11-16,1.11l.51,5.76-20,8.8,24.92-3.57-.37-7.66Z"/><path class="cls-8" d="M312.7,319.94c0-.14-.18-.58-.42-1.22-1.39-3.83-5.75-15-5.75-15l-5.36,2.17-14.25-16.53,10.71,22.79,7.21-2.59Z"/><path class="cls-8" d="M295.14,267.8c.11-.08.47-.38,1-.83,3.06-2.68,11.93-10.77,11.93-10.77l-4-4.22,10.28-19.24L297,250.93l5,5.8Z"/><path class="cls-19" d="M277.63,227.66a12.86,12.86,0,0,0-4.74.91,10.45,10.45,0,0,0-17.44,10.57,8.14,8.14,0,0,0-1.22-.1,7.89,7.89,0,1,0,2.33,15.43,7.39,7.39,0,0,0,13.94-3,13,13,0,1,0,7.13-23.83Z"/><circle class="cls-19" cx="275.39" cy="261.67" r="4.21"/><path class="cls-10" d="M288.13,138.92a27.82,27.82,0,0,0-22,10.73,22.58,22.58,0,0,0-42.93,9.82,22.81,22.81,0,0,0,.65,5.33A22.59,22.59,0,1,0,244,202a17.46,17.46,0,0,0,30.28-11.09,27.84,27.84,0,1,0,13.9-52Z"/><path class="cls-6" d="M61.26,254.64c2.36-.89,2.91-4.19,1.86-6.48s-3.16-3.89-5-5.64-3.53-4-3.33-6.52c.21-2.75,2.59-4.9,3-7.61,1-6-7.31-9.61-8.21-15.58-.46-3.08,1.16-6.3.19-9.26-.65-2-2.36-3.45-3.44-5.26a9.21,9.21,0,0,1-1-6.73c.47-2,1.5-4.32.11-5.78-1.25-1.31-3.65-.61-4.64.9s-1,3.46-.9,5.27a105.27,105.27,0,0,0,3.74,22.91c.95,3.42,2,7.29.21,10.34-.46.76-1.09,1.43-1.49,2.23A4.8,4.8,0,0,0,45,233.85c1.32.45,3.09.5,3.58,1.8s-.66,2.41-1.12,3.62a3.87,3.87,0,0,0,3.8,5c-.13,3.34.8,6.9,3.3,9.12s6.78,2.52,9,.06"/><path class="cls-14" d="M59,257c.55-2,.06-4-.1-6s.2-4.34,1.86-5.5a19.4,19.4,0,0,1,3-1.25c3.58-1.68,4.26-6.48,3.82-10.41s-1.44-8.18.48-11.64c.77-1.38,1.94-2.5,2.71-3.88,2.11-3.77.76-8.43-.19-12.64s-1.11-9.42,2.36-12c1.36-1,3.5-1.31,4.62,0a4.18,4.18,0,0,1,.83,2.49,16.89,16.89,0,0,1-1.32,8c-.77,1.8-1.89,3.59-1.72,5.54.37,4.27,6.6,6.67,6.07,10.93-.4,3.22-4.64,5.11-4.58,8.36,0,2.56,2.83,4.41,3,7,.33,4.54-7.17,6.3-7.45,10.85-.08,1.33.49,2.78-.2,3.92a4,4,0,0,1-2.37,1.45l-9.24,3Z"/><path class="cls-5" d="M63.19,255.17l3.65-13.6c1.49-5.54,2.45-12.65-2.25-15.93-2.17-1.52-5.58-2.36-5.72-5-.08-1.43,1-2.65,1.84-3.78a29.5,29.5,0,0,0,6.23-19.74,4.56,4.56,0,0,0-.74-2.62c-.66-.84-1.77-1.16-2.57-1.87A5.87,5.87,0,0,1,62,189a21.84,21.84,0,0,1,1.21-10.89c.83-2.15,1.91-4.85.31-6.52-2.14-2.22-5.89.63-6.71,3.61a12.47,12.47,0,0,0,1.67,10.15,8.86,8.86,0,0,1,1.6,2.83c.51,2.34-1.56,4.33-2.82,6.37a10.48,10.48,0,0,0-.3,10.29,30,30,0,0,1,2.19,3.85c.93,2.65-.07,5.54-1.06,8.16-2.74,7.26-5.44,15.4-2.47,22.57a12.64,12.64,0,0,1,1.39,4.15c.1,2.37-1.65,4.43-1.95,6.78A5.67,5.67,0,0,0,65,254.73"/><path class="cls-8" d="M45.35,252.58a23.47,23.47,0,0,0-.36,4.15,21.26,21.26,0,0,0,6.24,15.51h19a21.23,21.23,0,0,0,6.25-15.51,24.45,24.45,0,0,0-.36-4.15Z"/><rect class="cls-5" x="29.81" y="271.69" width="58.98" height="43.69" rx="2.73"/><polygon class="cls-20" points="88.78 286.54 60.17 286.54 60.17 271.69 58.42 271.69 58.42 286.54 29.81 286.54 29.81 288.29 58.42 288.29 60.17 288.29 88.78 288.29 88.78 286.54"/><ellipse class="cls-14" cx="45.18" cy="279.47" rx="4.46" ry="1.6"/><ellipse class="cls-14" cx="74.23" cy="279.47" rx="4.46" ry="1.6"/></g></g></g></svg>