<svg xmlns="http://www.w3.org/2000/svg" viewBox="0 0 137 121.01"><defs><style>.cls-1{fill:#f3cdca;}.cls-2{fill:#f29291;}.cls-3{fill:#105e5b;}.cls-4{fill:#31918e;}.cls-5{fill:#de525d;}.cls-6{fill:#6ac2c0;}.cls-7{fill:#fff;}.cls-8{fill:#b96c6a;}</style></defs><title>Ресурс9</title><g id="Слой_2" data-name="Слой 2"><g id="Слой_1-2" data-name="Слой 1"><path id="Path_2" data-name="Path 2" class="cls-1" d="M137,67.15c0,32.2-3.5,52.2-39.3,53.8S0,93.55,0,61.25,29.1,1.65,64.9.05,137,35,137,67.15Z"/><g id="Group_1" data-name="Group 1"><path id="Path_3" data-name="Path 3" class="cls-2" d="M107.9,49.15H24.6a11.14,11.14,0,0,0-11.1,11.1v25.1a11.14,11.14,0,0,0,11.1,11.1h83.3A11.14,11.14,0,0,0,119,85.35V60.15A11.06,11.06,0,0,0,107.9,49.15Zm6.7,36.1a6.7,6.7,0,0,1-6.7,6.7H24.6a6.7,6.7,0,0,1-6.7-6.7V60.15a6.7,6.7,0,0,1,6.7-6.7h83.3a6.7,6.7,0,0,1,6.7,6.7Z"/><rect id="Rectangle_3" data-name="Rectangle 3" class="cls-3" x="23" y="57.25" width="5.5" height="32.8"/><rect id="Rectangle_4" data-name="Rectangle 4" class="cls-4" x="69.01" y="57.43" width="5.5" height="32.81" transform="translate(-22.8 33.1) rotate(-22.51)"/><rect id="Rectangle_5" data-name="Rectangle 5" class="cls-5" x="81.86" y="70.92" width="32.8" height="5.5" transform="translate(-4.91 140.3) rotate(-69.72)"/><rect id="Rectangle_6" data-name="Rectangle 6" class="cls-6" x="88.49" y="71.65" width="32.8" height="3.4" transform="translate(-0.27 146.31) rotate(-69.72)"/><rect id="Rectangle_7" data-name="Rectangle 7" class="cls-7" x="76.41" y="57.84" width="3.3" height="32.81" transform="translate(-22.48 35.55) rotate(-22.51)"/><rect id="Rectangle_8" data-name="Rectangle 8" class="cls-5" x="63.91" y="57.86" width="3.3" height="32.81" transform="translate(-23.44 30.76) rotate(-22.51)"/><rect id="Rectangle_9" data-name="Rectangle 9" class="cls-6" x="52" y="57.45" width="4.6" height="32.5"/><rect id="Rectangle_10" data-name="Rectangle 10" class="cls-8" x="46.5" y="54.75" width="3.3" height="35.3"/><rect id="Rectangle_11" data-name="Rectangle 11" class="cls-7" x="35" y="57.25" width="9" height="32.8"/><rect id="Rectangle_12" data-name="Rectangle 12" class="cls-2" x="30.9" y="61.05" width="2.7" height="29"/></g></g></g></svg>