<svg xmlns="http://www.w3.org/2000/svg" viewBox="0 0 48.27 275.19"><defs><style>.cls-1{fill:#f3996d;}.cls-2{fill:#105e5b;}.cls-3{fill:#fff;}.cls-4{fill:#1d2827;}.cls-5{fill:#de525d;}.cls-6{fill:#eb5f63;opacity:0.4;isolation:isolate;}.cls-7{fill:#db7f5a;}</style></defs><title>Ресурс 6</title><g id="Слой_2" data-name="Слой 2"><g id="Слой_1-2" data-name="Слой 1"><g id="Group_9" data-name="Group 9"><path id="Path_10" data-name="Path 10" class="cls-1" d="M27.06,246.2s1.6,10.7-.7,16S22,273.7,26,274.8s8-1.6,6.8-13-.3-16-.3-16Z"/><path id="Path_11" data-name="Path 11" class="cls-1" d="M20.76,245.7s.7,14.2.8,18.3.8,10.2-4.7,11.1-4.4-5.7-2.8-11.1,2.5-8.7.9-16S20.76,245.7,20.76,245.7Z"/><path id="Path_12" data-name="Path 12" class="cls-2" d="M33.06,264.7h-.2s-4.7,5.2-7.2.4c-.1-.1-.1-.2-.2-.3-1.8,4.6-2.8,9.2.6,10.1C29.66,275.8,33.26,273.6,33.06,264.7Z"/><path id="Path_13" data-name="Path 13" class="cls-1" d="M20.76,245.7s.7,14.2.8,18.3.8,10.2-4.7,11.1-4.4-5.7-2.8-11.1,2.5-8.7.9-16S20.76,245.7,20.76,245.7Z"/><path id="Path_14" data-name="Path 14" class="cls-3" d="M2.56,118.8s-1.2,11.2.8,40.1,4.2,47.5,4.2,47.5,6.2,35.3,7.4,41.1a5.33,5.33,0,0,0,5.4-.2l1-1,2.2-118.1,3.2,118.3s4.2,2.6,5.8.4,11.2-59.2,12-80.6.7-49.5.7-49.5Z"/><path id="Path_15" data-name="Path 15" class="cls-4" d="M8.76,43.6c-5.7-6.2-6.4-13.4-.9-15.4s6.4-1.9,5.3-5.9-3.9-9.2-2.1-12.4,5.3-11.6,10-9.6,4.4-.3,7.4,0,10.7,1.2,11.2,8.4-2.4,7.6,2.1,13,6.4,13.8-1.2,19.5S8.76,43.6,8.76,43.6Z"/><path id="Path_16" data-name="Path 16" class="cls-5" d="M20,27.9s.8,6.2-.4,7.6-14.3,4.7-16.2,7.9A21.49,21.49,0,0,0,.76,60.6c2,8.5,9.8,15.2,10.8,17.4s2,3.7,1.4,5.5-4.7,6.4-5.9,11.1-4.3,16.5-4.9,25.9,43.1,2.2,43.3.8a95,95,0,0,0-2.6-21.7,45.33,45.33,0,0,0-6.4-13.8c-1.4-2.4,0-7.8,0-7.8s11.6-6.6,11.8-23.9c.1-5.4-1-9.2-4.4-11.6s-12.6-5-12.6-5-1.4-.6-1.6-3.2a68.89,68.89,0,0,1,.2-7.6Z"/><path id="Path_18" data-name="Path 18" class="cls-6" d="M39,76c-1.4-3.8-2.4-6.4-2.4-6.4L25.36,53.1,9.16,74.8a17.14,17.14,0,0,1,2.4,3.1c.7,1.7,1.5,2.9,1.6,4.2a32.58,32.58,0,0,1,28.7,14.1,44.42,44.42,0,0,0-5.4-10.5c-1.4-2.4,0-7.8,0-7.8A19.14,19.14,0,0,0,39,76Z"/><path id="Path_19" data-name="Path 19" class="cls-2" d="M21.66,264.7c-.8,1.4-4.9,8-7.7.5,0-.1-.1-.2-.1-.3-1.4,5.1-2.1,11,3.1,10.1S21.76,268.8,21.66,264.7Z"/><path id="Path_20" data-name="Path 20" class="cls-1" d="M15.26,37.3c1.6,5.5,5.1,9.3,9.2,9.3,3.9,0,7.3-3.5,8.9-8.6-1.3-.4-2.2-.7-2.2-.7s-1.4-.6-1.6-3.2a68.89,68.89,0,0,1,.2-7.6l-9.9,1.3s.8,6.2-.4,7.6C19.16,35.9,17.46,36.5,15.26,37.3Z"/><path id="Path_21" data-name="Path 21" class="cls-7" d="M26.46,37.5a11,11,0,0,0,3.6-1.5,4.42,4.42,0,0,1-.4-1.8,68.89,68.89,0,0,1,.2-7.6L20,27.9a28.5,28.5,0,0,1,.2,5.3C21.76,35.1,24.46,37.8,26.46,37.5Z"/><path id="Path_22" data-name="Path 22" class="cls-1" d="M24.36,9.1s-1.7,5.2-5.3,7.1S18,30.4,22.66,31.8s8.6-4.6,9.5-6.6,2.7-2,3.1-3.9.1-3.3-1.3-2.7-2.8-.3-3.6-2.2S26.76,9.5,24.36,9.1Z"/><ellipse id="Ellipse_3" data-name="Ellipse 3" class="cls-3" cx="34.36" cy="25.4" rx="1.7" ry="2.2"/><path id="Path_23" data-name="Path 23" class="cls-1" d="M35.26,21.3c-.4,1.9-2.1,2-3.1,3.9a16,16,0,0,1-3.7,4.8h0c-1.6,1.4-3.6,2.4-5.8,1.7a3.56,3.56,0,0,1-1.8-1.2C17.36,27,16,17.6,19.06,16c3.6-1.9,5.4-7.1,5.4-7.1,2.4.4,5.1,5.4,5.9,7.3s2.3,2.9,3.6,2.2C35.26,18,35.66,19.4,35.26,21.3Z"/><path id="Path_24" data-name="Path 24" class="cls-7" d="M25.16,21.8s-3.8-1-5.3,1.2c-.8,1.1-.9,3.1-.7,5.1a10,10,0,0,0,1.7,2.5,4.64,4.64,0,0,0,1.8,1.2,6.21,6.21,0,0,0,5.8-1.7h0l.9-.9C30.06,26.9,29.46,24.2,25.16,21.8Z"/><g id="Group_8" data-name="Group 8"><path id="Path_25" data-name="Path 25" class="cls-1" d="M17.36,77.6a5.77,5.77,0,0,0,1-1.3c1.4-3.2,7.3-16.6,7.8-27.3.5-12.2-.3-13.8-.3-13.8s-.3-2.2.8-3.2,3.9-4.1,1.2-7.2-6.9-2.8-7.4.5a11.57,11.57,0,0,0,1.1,6.4s1.4-.1.1,4.9c-1,4.3-3.4,17.9-6.2,23.9-.5,1-2,3.7-3,2s-.7-1.1-.7-1.1S7.46,67.8,3,66.2H3c2.9,5.4,7.2,9.5,8.4,11.4C12.26,78.2,15,79.7,17.36,77.6Z"/><path id="Path_26" data-name="Path 26" class="cls-7" d="M12.46,62.5c-.9-1.6-.7-1.1-.7-1.1s-4.2,6.2-8.6,4.9H3c.5.9,1,1.7,1.5,2.5,5.6-.7,7.7-3.6,8.5-5.6C12.86,63,12.66,62.8,12.46,62.5Z"/><path id="Path_27" data-name="Path 27" class="cls-7" d="M21,39.6c.7,7.1,1.5,17.4,2.7,22.4a56.18,56.18,0,0,0,2.5-13.1c.1-2.7.2-4.9.2-6.7-.3-.9-.5-1.8-.8-2.6-.6-2.2-1.4-6-.3-7.2s5.8-6.1-1-9.8a3.13,3.13,0,0,0-3.66,2.48,1.7,1.7,0,0,0,0,.22,11.57,11.57,0,0,0,1.1,6.4s1.4-.1.1,4.9A26.56,26.56,0,0,0,21,39.6Z"/><path id="Path_28" data-name="Path 28" class="cls-1" d="M46,65.7h-.2c-1,.1-6.7.3-8.8-4.1l-1.9,1.8S29,48.2,26.66,39.7c-.6-2.2-1.4-6-.3-7.2s5.8-6.1-1.1-9.9c0,0-3.1-.8-4.3.9s-.5,6.1.3,8.5,2,25.8,4.1,31.8S29,76,31.06,77.4c1.2.9,3.8.7,5.7.3a25.73,25.73,0,0,0,9.4-11.9Z"/><path id="Path_29" data-name="Path 29" class="cls-7" d="M46,65.7h-.2c-1,.1-6.7.3-8.8-4.1l-.8.7c.9,2.3,3,7.2,6.5,8.4.2.1.3.1.5.2a29.6,29.6,0,0,0,2.7-5.1Z"/></g></g></g></g></svg>